<svg width="158" height="45" viewBox="0 0 158 45" fill="none" xmlns="http://www.w3.org/2000/svg">
<path d="M8.19922 33.0586H6.39746C6.27051 33.0586 6.20703 32.9951 6.20703 32.8682V12.1992C6.22656 12.0723 6.29004 12.0088 6.39746 12.0088L15.6406 12.0234C16.3145 12.043 16.6465 12.7363 16.6367 14.1035H8.96094C8.58008 14.1035 8.38965 14.2939 8.38965 14.6748V32.8682C8.38965 32.9951 8.32617 33.0586 8.19922 33.0586ZM14.542 22.7314H10.0889V20.6367L15.9482 20.6807L14.542 22.7314ZM23.0869 12.0234H24.3174C24.8154 12.0234 25.0645 12.2773 25.0645 12.7852V33H24.7861C23.5264 33 22.8965 33 22.8965 33V12.2139C22.916 12.0869 22.9795 12.0234 23.0869 12.0234ZM31.7197 12.0381H33.5068C33.6338 12.0576 33.6973 12.1211 33.6973 12.2285V32.8096C33.6973 32.9365 33.6338 33 33.5068 33H31.7197C31.5928 33 31.5293 32.9365 31.5293 32.8096V12.2285C31.5488 12.1016 31.6123 12.0381 31.7197 12.0381ZM46.0752 12.0381H47.6719C47.9258 12.1455 48.0527 12.3652 48.0527 12.6973V32.8096C48.0527 32.9365 47.9893 33 47.8623 33H47.584C46.2852 31.6426 42.3838 27.1748 35.8799 19.5967V16.5645H35.9678L45.5039 27.4336H45.6943C45.8213 27.4336 45.8848 27.3701 45.8848 27.2432V12.2285C45.9043 12.1016 45.9678 12.0381 46.0752 12.0381ZM63.0059 11.6719H63.2988C63.4746 11.6719 65.1348 15.1777 68.2793 22.1895C68.7188 22.9023 70.2764 26.252 72.9521 32.2383C72.9521 32.5801 72.8252 32.7998 72.5713 32.8975H71.0479C70.9111 32.7607 69.793 30.5 67.6934 26.1152L67.5029 26.0127H58.7139C58.4893 26.0127 57.6885 27.6094 56.3115 30.8027C55.6572 32.1992 55.2471 32.9316 55.0811 33H53.9238C53.582 33 53.3281 32.8389 53.1621 32.5166V32.4287C55.2227 27.751 56.5947 24.8799 57.2783 23.8154H66.6533V23.7275C64.6709 19.5186 63.5527 17.1895 63.2988 16.7402H63.0059C62.8789 16.7402 62.0537 18.4004 60.5303 21.7207L60.3398 21.8086H58.333L58.1279 21.7207C60.833 15.959 62.459 12.6094 63.0059 11.6719ZM78.2373 12.0381H80.0244C80.1514 12.0576 80.2148 12.1211 80.2148 12.2285V32.8096C80.2148 32.9365 80.1514 33 80.0244 33H78.2373C78.1104 33 78.0469 32.9365 78.0469 32.8096V12.2285C78.0664 12.1016 78.1299 12.0381 78.2373 12.0381ZM92.5928 12.0381H94.1895C94.4434 12.1455 94.5703 12.3652 94.5703 12.6973V32.8096C94.5703 32.9365 94.5068 33 94.3799 33H94.1016C92.8027 31.6426 88.9014 27.1748 82.3975 19.5967V16.5645H82.4854L92.0215 27.4336H92.2119C92.3389 27.4336 92.4023 27.3701 92.4023 27.2432V12.2285C92.4219 12.1016 92.4854 12.0381 92.5928 12.0381ZM109.919 12.0381H110.812C114.006 12.0381 116.667 13.3271 118.796 15.9053C118.854 16.0029 118.884 16.1201 118.884 16.2568C118.884 16.5107 118.405 16.9014 117.448 17.4287C115.642 15.1533 113.278 14.0156 110.358 14.0156C106.989 14.0156 104.387 15.6318 102.551 18.8643C102.268 19.333 101.999 19.9922 101.745 20.8418H99.7676C99.7676 18.8691 100.847 16.833 103.005 14.7334C105.075 12.9365 107.38 12.0381 109.919 12.0381ZM101.657 23.625C101.755 24.4453 101.994 25.2217 102.375 25.9541C104.094 29.3623 106.848 31.0664 110.637 31.0664C113.273 31.0664 115.573 29.9922 117.536 27.8438H117.639C118.459 28.3906 118.874 28.8057 118.884 29.0889C118.229 30.4561 116.613 31.5938 114.035 32.502C112.922 32.8633 111.696 33.0439 110.358 33.0439C105.261 33.0439 101.853 30.6514 100.134 25.8662C99.8311 24.9678 99.6797 24.2256 99.6797 23.6396L101.657 23.625ZM123.466 12.0234H124.696C125.194 12.0234 125.443 12.2773 125.443 12.7852V33H125.165C123.905 33 123.275 33 123.275 33V12.2139C123.295 12.0869 123.358 12.0234 123.466 12.0234ZM139.752 11.6719H140.045C140.221 11.6719 141.881 15.1777 145.025 22.1895C145.465 22.9023 147.022 26.252 149.698 32.2383C149.698 32.5801 149.571 32.7998 149.317 32.8975H147.794C147.657 32.7607 146.539 30.5 144.439 26.1152L144.249 26.0127H135.46C135.235 26.0127 134.435 27.6094 133.058 30.8027C132.403 32.1992 131.993 32.9316 131.827 33H130.67C130.328 33 130.074 32.8389 129.908 32.5166V32.4287C131.969 27.751 133.341 24.8799 134.024 23.8154H143.399V23.7275C141.417 19.5186 140.299 17.1895 140.045 16.7402H139.752C139.625 16.7402 138.8 18.4004 137.276 21.7207L137.086 21.8086H135.079L134.874 21.7207C137.579 15.959 139.205 12.6094 139.752 11.6719Z" fill="#1F2C36"/>
</svg>
