<?xml version="1.0" encoding="utf-8"?>
<!-- Generator: Adobe Illustrator 22.1.0, SVG Export Plug-In . SVG Version: 6.00 Build 0)  -->
<svg version="1.1" xmlns="http://www.w3.org/2000/svg" xmlns:xlink="http://www.w3.org/1999/xlink" x="0px" y="0px"
	 viewBox="0 0 150 150" style="enable-background:new 0 0 150 150;" xml:space="preserve">
<g id="Layer_2">
</g>
<g id="Layer_1">
	<g>
		<circle cx="66.3" cy="33.9" r="4.3"/>
		<circle cx="83.7" cy="33.9" r="4.3"/>
		<path d="M83.8,43.7H66.2c-0.9,0-1.6,0.9-1.4,1.7c0.9,4.7,5.2,8.2,10.3,8.2c5,0,9.1-3.5,10.3-8.2C85.4,44.6,84.8,43.7,83.8,43.7z"
			/>
		<path d="M42.8,123.8l-7.9-0.6c-1.3-0.2-2.4-0.9-2.8-2.1l-3-7.3c-1.1-2.7-5-2.7-6.2,0l-3,7.3c-0.5,1.1-1.6,1.9-2.8,2.1l-7.9,0.6
			c-3,0.3-4.1,3.9-1.9,5.8l6,5.2c0.9,0.8,1.4,2.1,1.1,3.3l-1.9,7.7c-0.6,2.8,2.4,5.2,4.9,3.6l6.8-4.1c1.1-0.6,2.4-0.6,3.5,0l6.8,4.1
			c2.5,1.6,5.7-0.8,4.9-3.6l-1.7-7.9c-0.3-1.3,0.2-2.5,1.1-3.3l6-5.2C46.9,127.7,45.8,124.1,42.8,123.8z"/>
		<path d="M91.7,123.8l-7.9-0.6c-1.3-0.2-2.4-0.9-2.8-2.1l-3-7.3c-1.1-2.7-5-2.7-6.2,0l-3,7.3c-0.5,1.1-1.6,1.9-2.8,2.1l-7.9,0.6
			c-3,0.3-4.1,3.9-1.9,5.8l6.2,5.2c0.9,0.8,1.4,2.1,1.1,3.3l-1.9,7.7c-0.6,2.8,2.4,5.2,4.9,3.6l6.8-4.1c1.1-0.6,2.4-0.6,3.5,0
			l6.8,4.1c2.5,1.6,5.7-0.8,4.9-3.6l-1.7-7.9c-0.3-1.3,0.2-2.5,1.1-3.3l6-5.2C95.8,127.7,94.7,124.1,91.7,123.8z"/>
		<path d="M142.7,129.6c2.2-1.9,1.1-5.5-1.9-5.8l-7.9-0.6c-1.3-0.2-2.4-0.9-2.8-2.1l-3-7.3c-1.1-2.7-5-2.7-6.2,0l-3,7.3
			c-0.5,1.1-1.6,1.9-2.8,2.1l-7.9,0.6c-3,0.3-4.1,3.9-1.9,5.8l6,5.2c0.9,0.8,1.4,2.1,1.1,3.3l-1.9,7.7c-0.6,2.8,2.4,5.2,4.9,3.6
			l6.8-4.1c1.1-0.6,2.4-0.6,3.5,0l6.8,4.1c2.5,1.6,5.7-0.8,4.9-3.6l-1.7-7.9c-0.3-1.3,0.2-2.5,1.1-3.3L142.7,129.6z"/>
		<path d="M26.1,102.7h97.8c2.1,0,3.6-1.6,3.6-3.6c0-2.1-1.6-3.6-3.6-3.6h-9.3v-9.9c0-9.5-7.7-17.2-17.2-17.2h-7.7l-1.6-6.2
			c1.1-0.8,2.2-1.7,3.3-2.5c3.2,0.2,6.3,0.6,8.8,0.9c2.8,0.5,5.2-1.7,5-4.6c-0.2-3.5-0.5-8.4-0.8-13.7c1.7-1.4,2.7-3.8,2.7-7.3
			c0-3.8-0.9-6.5-2.7-8c-0.3-0.3-0.8-0.6-1.4-0.9C100.4,2.5,84.3,0,75,0S49.6,2.5,47.1,25.9c-0.6,0.3-1.1,0.6-1.4,0.9
			c-1.9,1.6-2.7,4.3-2.7,8c0,3.3,0.9,5.7,2.7,7.3c-0.3,5.4-0.6,10.3-0.8,13.7c-0.2,2.8,2.4,5,5,4.6c2.5-0.5,5.5-0.8,8.7-0.9
			c1.1,0.9,2.1,1.7,3.3,2.5l-1.6,6.2h-7.7c-9.5,0-17.2,7.7-17.2,17.2v9.9h-9.3c-2.1,0-3.6,1.6-3.6,3.6
			C22.5,100.9,24.1,102.7,26.1,102.7z M64.6,70.3l1.6-5.8c2.8,1.1,5.7,1.9,8.8,1.9c3,0,6-0.6,8.8-1.9l1.6,5.8
			c0.5,1.7-0.2,3.5-1.6,4.4l-6.3,4.7c-1.4,1.1-3.6,1.1-5,0l-6.3-4.7C64.7,73.6,64.3,71.9,64.6,70.3z M53.4,41.9
			c-0.2-1.4-1.3-2.5-2.7-2.7c-1.7-0.2-3-0.3-3-4.3c0-3.2,0.8-4.3,1.1-4.6c0,0,0.2-0.2,0.5-0.3c0.2,0.9,0.9,1.6,1.9,1.7
			c1.3,0.2,2.5-0.6,2.7-1.9c0.9-5.5,2.1-9.8,3.8-12.9l1.3,5.7c0.2,0.9,1.1,1.6,2.1,1.6h27.8c0.9,0,1.7-0.6,2.1-1.6L92,17
			c1.7,3,2.8,7.3,3.8,12.9c0.2,1.1,1.3,1.9,2.4,1.9c0.2,0,0.3,0,0.5,0c0.9-0.2,1.7-0.9,1.9-1.7c0.3,0.2,0.5,0.2,0.5,0.3
			c0.5,0.3,1.1,1.4,1.1,4.6c0,3.9-1.3,4.1-3,4.3c-1.4,0.2-2.5,1.3-2.7,2.7c-0.6,6-4.4,11.5-11.4,16.4c-6,4.3-14.5,4.3-20.5,0
			C57.8,53.5,54,47.9,53.4,41.9z"/>
	</g>
</g>
</svg>
