<?xml version="1.0" encoding="utf-8"?>
<!-- Generator: Adobe Illustrator 22.1.0, SVG Export Plug-In . SVG Version: 6.00 Build 0)  -->
<svg version="1.1" xmlns="http://www.w3.org/2000/svg" xmlns:xlink="http://www.w3.org/1999/xlink" x="0px" y="0px"
	 viewBox="0 0 750 500" style="enable-background:new 0 0 750 500;" xml:space="preserve">
<style type="text/css">
	.st0{fill:#FFFFFF;}
	.st1{fill:#FF5E69;}
	.st2{font-family:'Roboto-Black';}
	.st3{font-size:34.4295px;}
	.st4{fill:#277FD9;}
	.st5{fill:#DCA86E;}
	.st6{fill:url(#SVGID_1_);}
	.st7{fill:#2167BE;}
	.st8{fill:url(#SVGID_2_);}
	.st9{fill:#FEC4AD;}
	.st10{fill:url(#SVGID_3_);}
	.st11{fill:url(#SVGID_4_);}
	.st12{fill:#F8D2A1;}
	.st13{fill:none;stroke:#D4DBE2;stroke-width:0.25;stroke-miterlimit:10;}
	.st14{fill:#FFBA01;}
	.st15{fill:#D2DCEB;}
	.st16{fill:none;stroke:#A6AEBA;stroke-width:0.5;stroke-miterlimit:10;}
	.st17{fill:#50CC85;}
	.st18{fill:#77E6A6;}
	.st19{fill:#F3BA7A;}
	.st20{fill:#A6AEBA;}
	.st21{fill:#B6BFCC;}
</style>
<g id="BACKGROUND">
	<rect class="st0" width="750" height="500"/>
</g>
<g id="OBJECTS">
	<g>
		<g>
			<g>
				<text transform="matrix(1 0 0 1 275.4692 104.9203)" class="st1 st2 st3">EROARE 404</text>
				<g>
					<path class="st4" d="M230.3,154.5c0.7,0.4,1.8,0.8,2.8,0.8c1.6,0,2.6-0.9,2.6-2.1c0-1.1-0.7-1.8-2.3-2.4
						c-2-0.7-3.2-1.8-3.2-3.5c0-1.9,1.6-3.3,4-3.3c1.3,0,2.2,0.3,2.7,0.6l-0.4,1.3c-0.4-0.2-1.2-0.6-2.3-0.6c-1.7,0-2.3,1-2.3,1.8
						c0,1.1,0.7,1.7,2.4,2.4c2.1,0.8,3.1,1.8,3.1,3.6c0,1.9-1.4,3.5-4.3,3.5c-1.2,0-2.5-0.3-3.1-0.8L230.3,154.5z"/>
					<path class="st4" d="M244.1,152.3c0,2.2,1.4,3.1,3,3.1c1.1,0,1.8-0.2,2.4-0.5l0.3,1.1c-0.6,0.3-1.5,0.5-2.9,0.5
						c-2.7,0-4.3-1.8-4.3-4.5s1.6-4.8,4.1-4.8c2.9,0,3.6,2.5,3.6,4.2c0,0.3,0,0.6-0.1,0.7H244.1z M248.8,151.2c0-1-0.4-2.6-2.2-2.6
						c-1.6,0-2.3,1.5-2.5,2.6H248.8z"/>
					<path class="st4" d="M263.5,150.5c0-1.1,0-2-0.1-2.9h1.4l0.1,1.5h0c0.7-1.1,1.7-1.7,3.1-1.7c2.1,0,3.7,1.8,3.7,4.5
						c0,3.2-1.9,4.7-4,4.7c-1.2,0-2.2-0.5-2.7-1.4h0v4.8h-1.6V150.5z M265.1,152.8c0,0.2,0,0.5,0.1,0.7c0.3,1.1,1.3,1.9,2.4,1.9
						c1.7,0,2.7-1.4,2.7-3.4c0-1.8-0.9-3.3-2.6-3.3c-1.1,0-2.1,0.8-2.4,2c-0.1,0.2-0.1,0.4-0.1,0.7V152.8z"/>
					<path class="st4" d="M282.5,156.4l-0.1-1.1h-0.1c-0.5,0.7-1.4,1.3-2.7,1.3c-1.8,0-2.7-1.3-2.7-2.5c0-2.1,1.9-3.3,5.3-3.3v-0.2
						c0-0.7-0.2-2-2-2c-0.8,0-1.7,0.3-2.3,0.7l-0.4-1.1c0.7-0.5,1.8-0.8,2.9-0.8c2.7,0,3.4,1.8,3.4,3.6v3.3c0,0.8,0,1.5,0.1,2.1
						H282.5z M282.2,151.9c-1.8,0-3.7,0.3-3.7,2c0,1,0.7,1.5,1.5,1.5c1.1,0,1.9-0.7,2.1-1.5c0.1-0.2,0.1-0.3,0.1-0.5V151.9z"/>
					<path class="st4" d="M290,150.4c0-1,0-1.9-0.1-2.8h1.4l0.1,1.7h0.1c0.4-1.2,1.4-1.9,2.4-1.9c0.2,0,0.3,0,0.5,0.1v1.5
						c-0.2,0-0.3-0.1-0.5-0.1c-1.1,0-1.9,0.9-2.2,2.1c0,0.2-0.1,0.5-0.1,0.7v4.7H290V150.4z"/>
					<path class="st4" d="M300.3,152.3c0,2.2,1.4,3.1,3,3.1c1.1,0,1.8-0.2,2.4-0.5l0.3,1.1c-0.6,0.3-1.5,0.5-2.9,0.5
						c-2.7,0-4.3-1.8-4.3-4.5s1.6-4.8,4.1-4.8c2.9,0,3.6,2.5,3.6,4.2c0,0.3,0,0.6-0.1,0.7H300.3z M305,151.2c0-1-0.4-2.6-2.2-2.6
						c-1.6,0-2.3,1.5-2.5,2.6H305z"/>
					<path class="st4" d="M326,156.1c-0.4,0.2-1.4,0.5-2.5,0.5c-2.7,0-4.4-1.8-4.4-4.5c0-2.7,1.9-4.7,4.7-4.7c0.9,0,1.8,0.2,2.2,0.5
						l-0.4,1.2c-0.4-0.2-1-0.4-1.9-0.4c-2,0-3.1,1.5-3.1,3.3c0,2,1.3,3.3,3.1,3.3c0.9,0,1.5-0.2,2-0.4L326,156.1z"/>
					<path class="st4" d="M336.5,156.4l-0.1-1.1h-0.1c-0.5,0.7-1.4,1.3-2.7,1.3c-1.8,0-2.7-1.3-2.7-2.5c0-2.1,1.9-3.3,5.3-3.3v-0.2
						c0-0.7-0.2-2-2-2c-0.8,0-1.7,0.3-2.3,0.7l-0.4-1.1c0.7-0.5,1.8-0.8,2.9-0.8c2.7,0,3.4,1.8,3.4,3.6v3.3c0,0.8,0,1.5,0.1,2.1
						H336.5z M336.2,151.9c-1.8,0-3.7,0.3-3.7,2c0,1,0.7,1.5,1.5,1.5c1.1,0,1.9-0.7,2.1-1.5c0.1-0.2,0.1-0.3,0.1-0.5V151.9z"/>
					<path class="st4" d="M351.5,150c0-0.9,0-1.7-0.1-2.4h1.4l0.1,1.5h0c0.4-0.8,1.5-1.7,2.9-1.7c1.2,0,3.1,0.7,3.1,3.8v5.3h-1.6
						v-5.1c0-1.4-0.5-2.6-2-2.6c-1.1,0-1.9,0.7-2.2,1.6c-0.1,0.2-0.1,0.5-0.1,0.7v5.3h-1.6V150z"/>
					<path class="st4" d="M372.7,154c0,0.9,0,1.7,0.1,2.4h-1.4l-0.1-1.4h0c-0.4,0.7-1.4,1.6-2.9,1.6c-1.4,0-3-0.8-3-3.9v-5.2h1.6
						v4.9c0,1.7,0.5,2.8,2,2.8c1.1,0,1.8-0.7,2.1-1.5c0.1-0.2,0.1-0.5,0.1-0.8v-5.4h1.6V154z"/>
					<path class="st4" d="M387.4,152.3c0,2.2,1.4,3.1,3,3.1c1.1,0,1.8-0.2,2.4-0.5l0.3,1.1c-0.6,0.3-1.5,0.5-2.9,0.5
						c-2.7,0-4.3-1.8-4.3-4.5s1.6-4.8,4.1-4.8c2.9,0,3.7,2.5,3.7,4.2c0,0.3,0,0.6-0.1,0.7H387.4z M392.1,151.2c0-1-0.4-2.6-2.2-2.6
						c-1.6,0-2.3,1.5-2.5,2.6H392.1z"/>
					<path class="st4" d="M406.8,150c0-0.9,0-1.7-0.1-2.4h1.4l0.1,1.5h0c0.4-0.8,1.5-1.7,2.9-1.7c1.2,0,3.1,0.7,3.1,3.8v5.3h-1.6
						v-5.1c0-1.4-0.5-2.6-2-2.6c-1.1,0-1.9,0.7-2.2,1.6c-0.1,0.2-0.1,0.5-0.1,0.7v5.3h-1.6V150z"/>
					<path class="st4" d="M422.4,145.1c0,0.5-0.4,1-1,1c-0.6,0-1-0.4-1-1c0-0.6,0.4-1,1-1C422,144.1,422.4,144.6,422.4,145.1z
						 M420.6,156.4v-8.8h1.6v8.8H420.6z"/>
					<path class="st4" d="M428.5,150c0-0.9,0-1.7-0.1-2.4h1.4l0.1,1.4h0.1c0.5-0.8,1.3-1.6,2.8-1.6c1.2,0,2.1,0.7,2.5,1.8h0
						c0.3-0.5,0.6-0.9,1-1.1c0.5-0.4,1.1-0.6,2-0.6c1.2,0,2.9,0.8,2.9,3.8v5.2h-1.6v-5c0-1.7-0.6-2.7-1.9-2.7
						c-0.9,0-1.6,0.7-1.9,1.5c-0.1,0.2-0.1,0.5-0.1,0.8v5.5h-1.6v-5.3c0-1.4-0.6-2.4-1.8-2.4c-1,0-1.7,0.8-2,1.6
						c-0.1,0.2-0.1,0.5-0.1,0.8v5.3h-1.6V150z"/>
					<path class="st4" d="M449.2,145.1c0,0.5-0.4,1-1,1c-0.6,0-1-0.4-1-1c0-0.6,0.4-1,1-1C448.8,144.1,449.2,144.6,449.2,145.1z
						 M447.4,156.4v-8.8h1.6v8.8H447.4z"/>
					<path class="st4" d="M461.6,156.1c-0.4,0.2-1.3,0.5-2.5,0.5c-2.7,0-4.4-1.8-4.4-4.5c0-2.7,1.9-4.7,4.7-4.7
						c0.9,0,1.8,0.2,2.2,0.5l-0.4,1.2c-0.4-0.2-1-0.4-1.9-0.4c-2,0-3.1,1.5-3.1,3.3c0,2,1.3,3.3,3.1,3.3c0.9,0,1.5-0.2,2-0.4
						L461.6,156.1z"/>
					<path class="st4" d="M479.5,156.4l-0.1-1.1h-0.1c-0.5,0.7-1.4,1.3-2.7,1.3c-1.8,0-2.7-1.3-2.7-2.5c0-2.1,1.9-3.3,5.3-3.3v-0.2
						c0-0.7-0.2-2-2-2c-0.8,0-1.7,0.3-2.3,0.7l-0.4-1.1c0.7-0.5,1.8-0.8,2.9-0.8c2.7,0,3.4,1.8,3.4,3.6v3.3c0,0.8,0,1.5,0.1,2.1
						H479.5z M479.3,151.9c-1.8,0-3.7,0.3-3.7,2c0,1,0.7,1.5,1.5,1.5c1.1,0,1.9-0.7,2.1-1.5c0.1-0.2,0.1-0.3,0.1-0.5V151.9z"/>
					<path class="st4" d="M488.9,145.1c0,0.5-0.4,1-1,1c-0.6,0-1-0.4-1-1c0-0.6,0.4-1,1-1C488.5,144.1,488.9,144.6,488.9,145.1z
						 M487.1,156.4v-8.8h1.6v8.8H487.1z"/>
					<path class="st4" d="M501.3,156.1c-0.4,0.2-1.4,0.5-2.5,0.5c-2.7,0-4.4-1.8-4.4-4.5c0-2.7,1.9-4.7,4.7-4.7
						c0.9,0,1.8,0.2,2.2,0.5l-0.4,1.2c-0.4-0.2-1-0.4-1.9-0.4c-2,0-3.1,1.5-3.1,3.3c0,2,1.3,3.3,3.1,3.3c0.9,0,1.5-0.2,2-0.4
						L501.3,156.1z"/>
					<path class="st4" d="M508.6,145.1c0,0.5-0.4,1-1,1c-0.6,0-1-0.4-1-1c0-0.6,0.4-1,1-1C508.2,144.1,508.6,144.6,508.6,145.1z
						 M506.8,156.4v-8.8h1.6v8.8H506.8z"/>
					<path class="st4" d="M514.4,155.5c0-0.7,0.5-1.1,1.1-1.1s1.1,0.5,1.1,1.1c0,0.7-0.4,1.1-1.1,1.1
						C514.8,156.6,514.4,156.1,514.4,155.5z"/>
				</g>
				<g>
					<path class="st4" d="M189,415.5v14.2h-1.8v-14.2H189z"/>
					<path class="st4" d="M196.5,422.2c0-1,0-1.9-0.1-2.8h1.6l0.1,1.7h0c0.5-1,1.7-1.9,3.4-1.9c1.4,0,3.6,0.8,3.6,4.3v6.1h-1.8v-5.9
						c0-1.6-0.6-3-2.4-3c-1.2,0-2.2,0.9-2.5,1.9c-0.1,0.2-0.1,0.5-0.1,0.9v6.1h-1.8V422.2z"/>
					<path class="st4" d="M214.5,416.6v2.9h2.6v1.4h-2.6v5.5c0,1.3,0.4,2,1.4,2c0.5,0,0.8-0.1,1.1-0.1l0.1,1.4
						c-0.4,0.1-0.9,0.3-1.6,0.3c-0.9,0-1.6-0.3-2-0.8c-0.5-0.5-0.7-1.4-0.7-2.6v-5.5h-1.6v-1.4h1.6V417L214.5,416.6z"/>
					<path class="st4" d="M232.5,424.5c0,3.8-2.6,5.4-5.1,5.4c-2.8,0-4.9-2-4.9-5.2c0-3.4,2.2-5.4,5-5.4
						C230.5,419.2,232.5,421.4,232.5,424.5z M224.4,424.6c0,2.2,1.3,3.9,3.1,3.9c1.8,0,3.1-1.7,3.1-3.9c0-1.7-0.9-3.9-3-3.9
						S224.4,422.6,224.4,424.6z"/>
					<path class="st4" d="M244.6,429.6l-0.1-1.3h-0.1c-0.6,0.8-1.7,1.5-3.1,1.5c-2.1,0-3.1-1.4-3.1-2.9c0-2.5,2.2-3.8,6.1-3.8V423
						c0-0.8-0.2-2.4-2.3-2.4c-0.9,0-1.9,0.3-2.6,0.8l-0.4-1.2c0.8-0.5,2.1-0.9,3.3-0.9c3.1,0,3.9,2.1,3.9,4.2v3.8
						c0,0.9,0,1.7,0.2,2.4H244.6z M244.4,424.5c-2,0-4.3,0.3-4.3,2.3c0,1.2,0.8,1.8,1.7,1.8c1.3,0,2.2-0.8,2.5-1.7
						c0.1-0.2,0.1-0.4,0.1-0.6V424.5z"/>
					<path class="st4" d="M253.3,422.6c0-1.2,0-2.2-0.1-3.2h1.6l0.1,2h0.1c0.5-1.4,1.6-2.2,2.8-2.2c0.2,0,0.4,0,0.5,0.1v1.7
						c-0.2,0-0.4-0.1-0.6-0.1c-1.3,0-2.2,1-2.5,2.4c0,0.3-0.1,0.5-0.1,0.9v5.4h-1.8V422.6z"/>
					<path class="st4" d="M271.4,429.3c-0.5,0.3-1.6,0.6-2.9,0.6c-3.1,0-5.1-2.1-5.1-5.2c0-3.1,2.1-5.4,5.5-5.4
						c1.1,0,2.1,0.3,2.6,0.5l-0.4,1.4c-0.4-0.3-1.1-0.5-2.1-0.5c-2.3,0-3.6,1.7-3.6,3.8c0,2.4,1.5,3.8,3.5,3.8
						c1.1,0,1.7-0.3,2.3-0.5L271.4,429.3z"/>
					<path class="st4" d="M278.7,424.9c0,2.5,1.6,3.5,3.5,3.5c1.3,0,2.1-0.2,2.8-0.5l0.3,1.3c-0.7,0.3-1.8,0.6-3.4,0.6
						c-3.1,0-5-2.1-5-5.1s1.8-5.5,4.8-5.5c3.3,0,4.2,2.9,4.2,4.8c0,0.4,0,0.7-0.1,0.9H278.7z M284.1,423.6c0-1.2-0.5-3-2.6-3
						c-1.9,0-2.7,1.7-2.8,3H284.1z"/>
					<path class="st4" d="M297.3,423.3v1.4h-5.2v-1.4H297.3z"/>
					<path class="st4" d="M305.9,416.6v2.9h2.6v1.4h-2.6v5.5c0,1.3,0.4,2,1.4,2c0.5,0,0.8-0.1,1.1-0.1l0.1,1.4
						c-0.4,0.1-0.9,0.3-1.6,0.3c-0.9,0-1.6-0.3-2-0.8c-0.5-0.5-0.7-1.4-0.7-2.6v-5.5h-1.6v-1.4h1.6V417L305.9,416.6z"/>
					<path class="st4" d="M315.7,424.9c0,2.5,1.6,3.5,3.5,3.5c1.3,0,2.1-0.2,2.8-0.5l0.3,1.3c-0.7,0.3-1.8,0.6-3.4,0.6
						c-3.1,0-5-2.1-5-5.1s1.8-5.5,4.8-5.5c3.3,0,4.2,2.9,4.2,4.8c0,0.4,0,0.7-0.1,0.9H315.7z M321.1,423.6c0-1.2-0.5-3-2.6-3
						c-1.9,0-2.7,1.7-2.8,3H321.1z"/>
					<path class="st4" d="M338,422.8c0-1.3,0-2.4-0.1-3.3h1.7l0.1,1.7h0c0.8-1.2,2-2,3.6-2c2.5,0,4.3,2.1,4.3,5.2
						c0,3.7-2.2,5.5-4.6,5.5c-1.3,0-2.5-0.6-3.1-1.6h0v5.5H338V422.8z M339.9,425.5c0,0.3,0,0.5,0.1,0.8c0.3,1.3,1.4,2.2,2.8,2.2
						c2,0,3.1-1.6,3.1-3.9c0-2-1.1-3.8-3-3.8c-1.3,0-2.4,0.9-2.8,2.3c-0.1,0.2-0.1,0.5-0.1,0.8V425.5z"/>
					<path class="st4" d="M355.2,424.9c0,2.5,1.6,3.5,3.5,3.5c1.3,0,2.1-0.2,2.8-0.5l0.3,1.3c-0.7,0.3-1.8,0.6-3.4,0.6
						c-3.1,0-5-2.1-5-5.1s1.8-5.5,4.8-5.5c3.3,0,4.2,2.9,4.2,4.8c0,0.4,0,0.7-0.1,0.9H355.2z M360.6,423.6c0-1.2-0.5-3-2.6-3
						c-1.9,0-2.7,1.7-2.8,3H360.6z"/>
					<path class="st4" d="M377.6,422.8c0-1.3,0-2.4-0.1-3.3h1.7l0.1,1.7h0c0.8-1.2,2-2,3.6-2c2.5,0,4.3,2.1,4.3,5.2
						c0,3.7-2.2,5.5-4.6,5.5c-1.3,0-2.5-0.6-3.1-1.6h0v5.5h-1.8V422.8z M379.4,425.5c0,0.3,0,0.5,0.1,0.8c0.3,1.3,1.4,2.2,2.8,2.2
						c2,0,3.1-1.6,3.1-3.9c0-2-1.1-3.8-3-3.8c-1.3,0-2.4,0.9-2.8,2.3c-0.1,0.2-0.1,0.5-0.1,0.8V425.5z"/>
					<path class="st4" d="M399.3,429.6l-0.1-1.3h-0.1c-0.6,0.8-1.7,1.5-3.1,1.5c-2.1,0-3.1-1.4-3.1-2.9c0-2.5,2.2-3.8,6.1-3.8V423
						c0-0.8-0.2-2.4-2.3-2.4c-0.9,0-1.9,0.3-2.6,0.8l-0.4-1.2c0.8-0.5,2.1-0.9,3.3-0.9c3.1,0,3.9,2.1,3.9,4.2v3.8
						c0,0.9,0,1.7,0.2,2.4H399.3z M399.1,424.5c-2,0-4.3,0.3-4.3,2.3c0,1.2,0.8,1.8,1.7,1.8c1.3,0,2.2-0.8,2.5-1.7
						c0.1-0.2,0.1-0.4,0.1-0.6V424.5z"/>
					<path class="st4" d="M416.8,419.5c0,0.7-0.1,1.6-0.1,2.8v5.9c0,2.3-0.5,3.8-1.4,4.6c-1,0.9-2.4,1.2-3.7,1.2
						c-1.2,0-2.6-0.3-3.4-0.8l0.5-1.4c0.7,0.4,1.7,0.8,3,0.8c1.9,0,3.3-1,3.3-3.5v-1.1h0c-0.6,0.9-1.7,1.7-3.2,1.7
						c-2.5,0-4.3-2.1-4.3-5c0-3.4,2.2-5.4,4.6-5.4c1.8,0,2.7,0.9,3.2,1.8h0l0.1-1.5H416.8z M414.9,423.5c0-0.3,0-0.6-0.1-0.8
						c-0.3-1.1-1.2-2-2.6-2c-1.8,0-3,1.5-3,3.8c0,2,1,3.7,3,3.7c1.1,0,2.2-0.7,2.6-1.9c0.1-0.3,0.1-0.7,0.1-1V423.5z"/>
					<path class="st4" d="M425.9,416.6c0,0.6-0.4,1.1-1.2,1.1c-0.7,0-1.1-0.5-1.1-1.1c0-0.7,0.5-1.2,1.2-1.2
						C425.5,415.5,425.9,416,425.9,416.6z M423.8,429.6v-10.2h1.8v10.2H423.8z"/>
					<path class="st4" d="M433,422.2c0-1,0-1.9-0.1-2.8h1.6l0.1,1.7h0c0.5-1,1.7-1.9,3.4-1.9c1.4,0,3.6,0.8,3.6,4.3v6.1h-1.8v-5.9
						c0-1.6-0.6-3-2.4-3c-1.2,0-2.2,0.9-2.5,1.9c-0.1,0.2-0.1,0.5-0.1,0.9v6.1H433V422.2z"/>
					<path class="st4" d="M454.4,429.6l-0.1-1.3h-0.1c-0.6,0.8-1.7,1.5-3.1,1.5c-2.1,0-3.1-1.4-3.1-2.9c0-2.5,2.2-3.8,6.1-3.8V423
						c0-0.8-0.2-2.4-2.3-2.4c-0.9,0-1.9,0.3-2.6,0.8l-0.4-1.2c0.8-0.5,2.1-0.9,3.3-0.9c3.1,0,3.9,2.1,3.9,4.2v3.8
						c0,0.9,0,1.7,0.2,2.4H454.4z M454.2,424.5c-2,0-4.3,0.3-4.3,2.3c0,1.2,0.8,1.8,1.7,1.8c1.3,0,2.2-0.8,2.5-1.7
						c0.1-0.2,0.1-0.4,0.1-0.6V424.5z"/>
					<path class="st4" d="M471.8,422.8c0-1.3,0-2.4-0.1-3.3h1.7l0.1,1.7h0c0.8-1.2,2-2,3.6-2c2.5,0,4.3,2.1,4.3,5.2
						c0,3.7-2.2,5.5-4.6,5.5c-1.3,0-2.5-0.6-3.1-1.6h0v5.5h-1.8V422.8z M473.6,425.5c0,0.3,0,0.5,0.1,0.8c0.3,1.3,1.4,2.2,2.8,2.2
						c2,0,3.1-1.6,3.1-3.9c0-2-1.1-3.8-3-3.8c-1.3,0-2.4,0.9-2.8,2.3c-0.1,0.2-0.1,0.5-0.1,0.8V425.5z"/>
					<path class="st4" d="M487.9,422.6c0-1.2,0-2.2-0.1-3.2h1.6l0.1,2h0.1c0.5-1.4,1.6-2.2,2.8-2.2c0.2,0,0.4,0,0.5,0.1v1.7
						c-0.2,0-0.4-0.1-0.6-0.1c-1.3,0-2.2,1-2.5,2.4c0,0.3-0.1,0.5-0.1,0.9v5.4h-1.8V422.6z"/>
					<path class="st4" d="M501.1,416.6c0,0.6-0.4,1.1-1.2,1.1c-0.7,0-1.1-0.5-1.1-1.1c0-0.7,0.5-1.2,1.2-1.2
						C500.7,415.5,501.1,416,501.1,416.6z M499.1,429.6v-10.2h1.8v10.2H499.1z"/>
					<path class="st4" d="M508.2,422.2c0-1,0-1.9-0.1-2.8h1.6l0.1,1.7h0c0.5-1,1.7-1.9,3.4-1.9c1.4,0,3.6,0.8,3.6,4.3v6.1H515v-5.9
						c0-1.6-0.6-3-2.4-3c-1.2,0-2.2,0.9-2.5,1.9c-0.1,0.2-0.1,0.5-0.1,0.9v6.1h-1.8V422.2z"/>
					<path class="st4" d="M531.3,429.3c-0.5,0.3-1.6,0.6-2.9,0.6c-3.1,0-5.1-2.1-5.1-5.2c0-3.1,2.1-5.4,5.5-5.4
						c1.1,0,2.1,0.3,2.6,0.5l-0.4,1.4c-0.4-0.3-1.1-0.5-2.1-0.5c-2.3,0-3.6,1.7-3.6,3.8c0,2.4,1.5,3.8,3.5,3.8c1,0,1.7-0.3,2.3-0.5
						L531.3,429.3z"/>
					<path class="st4" d="M539.7,416.6c0,0.6-0.4,1.1-1.2,1.1c-0.7,0-1.1-0.5-1.1-1.1c0-0.7,0.5-1.2,1.2-1.2
						C539.3,415.5,539.7,416,539.7,416.6z M537.7,429.6v-10.2h1.8v10.2H537.7z"/>
					<path class="st4" d="M546.8,422.8c0-1.3,0-2.4-0.1-3.3h1.7l0.1,1.7h0c0.8-1.2,2-2,3.6-2c2.5,0,4.3,2.1,4.3,5.2
						c0,3.7-2.2,5.5-4.6,5.5c-1.3,0-2.5-0.6-3.1-1.6h0v5.5h-1.8V422.8z M548.6,425.5c0,0.3,0,0.5,0.1,0.8c0.3,1.3,1.4,2.2,2.8,2.2
						c2,0,3.1-1.6,3.1-3.9c0-2-1.1-3.8-3-3.8c-1.3,0-2.4,0.9-2.8,2.3c-0.1,0.2-0.1,0.5-0.1,0.8V425.5z"/>
					<path class="st4" d="M568.5,429.6l-0.1-1.3h-0.1c-0.6,0.8-1.7,1.5-3.1,1.5c-2.1,0-3.1-1.4-3.1-2.9c0-2.5,2.2-3.8,6.1-3.8V423
						c0-0.8-0.2-2.4-2.3-2.4c-0.9,0-1.9,0.3-2.6,0.8l-0.4-1.2c0.8-0.5,2.1-0.9,3.3-0.9c3.1,0,3.9,2.1,3.9,4.2v3.8
						c0,0.9,0,1.7,0.2,2.4H568.5z M568.3,424.5c-2,0-4.3,0.3-4.3,2.3c0,1.2,0.8,1.8,1.7,1.8c1.3,0,2.2-0.8,2.5-1.7
						c0.1-0.2,0.1-0.4,0.1-0.6V424.5z"/>
					<path class="st4" d="M577.2,414.7h1.8v14.9h-1.8V414.7z"/>
					<path class="st4" d="M592,429.6l-0.1-1.3h-0.1c-0.6,0.8-1.7,1.5-3.1,1.5c-2.1,0-3.1-1.4-3.1-2.9c0-2.5,2.2-3.8,6.1-3.8V423
						c0-0.8-0.2-2.4-2.3-2.4c-0.9,0-1.9,0.3-2.6,0.8l-0.4-1.2c0.8-0.5,2.1-0.9,3.3-0.9c3.1,0,3.9,2.1,3.9,4.2v3.8
						c0,0.9,0,1.7,0.2,2.4H592z M591.8,424.5c-2,0-4.3,0.3-4.3,2.3c0,1.2,0.8,1.8,1.7,1.8c1.3,0,2.2-0.8,2.5-1.7
						c0.1-0.2,0.1-0.4,0.1-0.6V424.5z"/>
					<path class="st4" d="M600.3,428.5c0-0.8,0.5-1.3,1.3-1.3s1.2,0.5,1.2,1.3c0,0.8-0.5,1.3-1.3,1.3
						C600.8,429.9,600.3,429.3,600.3,428.5z"/>
				</g>
			</g>
			<g>
				<polygon class="st5" points="548.3,301.3 581.2,372.3 584.9,372.3 556.5,296.7 				"/>
				<polygon class="st5" points="514.4,302.8 481.5,372.3 477.8,372.3 506.2,301.3 				"/>
				
					<linearGradient id="SVGID_1_" gradientUnits="userSpaceOnUse" x1="436.2589" y1="347.8755" x2="465.1466" y2="347.8755" gradientTransform="matrix(0.8061 0.5918 -0.5918 0.8061 256.0799 -190.8067)">
					<stop  offset="0" style="stop-color:#343A44"/>
					<stop  offset="0.3009" style="stop-color:#232D3E"/>
					<stop  offset="0.6391" style="stop-color:#182439"/>
					<stop  offset="1" style="stop-color:#142138"/>
				</linearGradient>
				<path class="st6" d="M430.9,357.1l-16.7,14.6l-19.7-13.9c0,0,6.7-2.2,18.2,0.8l11.8-9.9L430.9,357.1z"/>
				<path class="st7" d="M527.5,276.5c0,0-36.9,18.9-50,24.6c-13,5.7-57.4,50.1-57.4,50.1s5.7,11.6,8.5,9.5
					c25.1-17.9,48.1-33.9,63-39.5c29.4-11.1,37.6-13.5,45.1-22.2C536.7,299,532.3,288.5,527.5,276.5z"/>
				<g>
					<linearGradient id="SVGID_2_" gradientUnits="userSpaceOnUse" x1="441.1434" y1="359.2961" x2="470.0314" y2="359.2961">
						<stop  offset="0" style="stop-color:#343A44"/>
						<stop  offset="0.3009" style="stop-color:#232D3E"/>
						<stop  offset="0.6391" style="stop-color:#182439"/>
						<stop  offset="1" style="stop-color:#142138"/>
					</linearGradient>
					<path class="st8" d="M470,349.7l-4.8,21.7l-24.1,0.5c0,0,4.1-5.8,15.1-10.1l3.6-14.9L470,349.7z"/>
					<path class="st4" d="M528.4,271.7c0,0-34.3,3.7-46.9,10.4c-12.5,6.7-22.5,68.6-22.5,68.6s9.7,5.3,10.9,2
						c9.7-26.4,20.5-47.2,20.5-47.2c12.3-2.3,40.9,11.7,61.6-8.7C552.1,296.9,534.2,283.3,528.4,271.7z"/>
				</g>
				<g>
					<path class="st9" d="M587.6,230c0,0-2.5,4.1-4,9.2l-14.1-1.3c0,0,7.3-11,6.7-17.7L587.6,230z"/>
					<g>
						<path class="st9" d="M584.6,207.1c-0.8-0.2-3.8-1-4.4-0.8c-0.8,0.3,0.1,1.5-0.5,2.1c-1,1.1-2.9,1.1-4.1,1.8
							c-1.5,0.8-2.7,1.9-3.3,3.1c-1.1,2,3,6.5,3.7,9.9c1.4,7.1,10.3,8.1,17.6,6c2.6-0.8,5-3.1,6.4-5.4c1.7-2.7,0.7-7.1-0.7-9.8
							c-0.8-1.6-2.5-3-3.9-4c-1.3-0.9-1.7-4.7-3.2-4.9C592,205.2,586.4,207.6,584.6,207.1z"/>
					</g>
					
						<linearGradient id="SVGID_3_" gradientUnits="userSpaceOnUse" x1="428.5518" y1="166.0372" x2="459.8663" y2="166.0372" gradientTransform="matrix(-0.6574 -0.7535 -0.7535 0.6574 1011.1113 441.8606)">
						<stop  offset="0" style="stop-color:#343A44"/>
						<stop  offset="0.3009" style="stop-color:#232D3E"/>
						<stop  offset="0.6391" style="stop-color:#182439"/>
						<stop  offset="1" style="stop-color:#142138"/>
					</linearGradient>
					<path class="st10" d="M604.9,226.1c0,0-0.2-1.2,1.8-3.1c6.8-6.4-0.5-18.9-7.9-21c-3.8-1.1-6.2,0.1-7.5-3.7
						c0.1,0.3-1.5,1-1.7,1.1c-0.9,0.7-1.3,1.3-1.3,2.5c-0.1,5.5,4.8,10.5,8.4,14c1.7,1.5-2.4,0.5-4.1,0.8c-1.1,0.2-3.9,3.1-4.5,3.6
						c1.5,1.9,2.9,0.2,5,1.1c1.9,0.9,0.7,3.3-1.1,3.6c-2.8,0.4-3.9-1.4-3.9-1.4c-1.3,0.7-1.5,4.8-2.5,5.9c1.4,0.8,9.5,2.2,11.4,2.2
						C601.1,231.6,603.6,229.4,604.9,226.1z"/>
				</g>
				<path class="st1" d="M587.2,232.2c3,33-35.1,64.7-35.1,64.7s-24.8,0.9-23.6-25.2c0,0,1.9-4.7,17.3-18.7
					c10.3-9.3,17.5-23.2,24.7-22.9C590.2,230.9,587.2,232.2,587.2,232.2z"/>
				<linearGradient id="SVGID_4_" gradientUnits="userSpaceOnUse" x1="494.9105" y1="269.184" x2="590.6857" y2="269.184">
					<stop  offset="0" style="stop-color:#343A44"/>
					<stop  offset="0.3009" style="stop-color:#232D3E"/>
					<stop  offset="0.6391" style="stop-color:#182439"/>
					<stop  offset="1" style="stop-color:#142138"/>
				</linearGradient>
				<path class="st11" d="M494.9,298.7c0,0,22.9,8.5,53.4-3c30.5-11.6,38.9-65.6,38.9-65.6l3.5,1.8c0,0-3.4,59.7-43.6,72.6
					c-30.7,9.9-52.2-1.9-52.2-1.9V298.7z"/>
				<g>
					<path class="st12" d="M583.5,265.2c0,0,3.7,12.7,3.9,19c0.2,6.3-2.5,27.8-2.5,27.8l5.8,0.7c0,0,5.2-25.6,5.3-33.9
						c0.1-8.3-4.7-21.9-4.7-21.9L583.5,265.2z"/>
					<path class="st1" d="M583.1,265.7c4.2,18.5,2.5,43.2,2.5,43.2l6.3,0.4c6.9-14.5,6.3-46.6,2.6-60.1c-2.2-7.9-3.4-15.9-8.8-17.2
						c-3.4-0.8-10.3,1.7-11.2,5C572.6,244.3,581,256.6,583.1,265.7z"/>
					<path class="st12" d="M582.2,315.1c-1.4,2.7-2,4.6-1.2,5.3c0.6,0.5,1.5-2.1,2.6-3c0.3,1.1,0.4,3.1-0.3,4.8
						c-0.8,1.9-0.7,3.5,0.7,3.7c1.5,0.1,3.8,0,4.3-1.2c0.5-1.2,1.7-6.2,2.4-7.9c0.6-1.7-0.2-3.6,0-4.6c0.2-1-4.3-2.6-4.3-2.6
						c-0.2,0.4-1.6,2.3-1.6,2.3s-1.2,1.4-1.6,1.7C582.9,313.8,582.2,315.1,582.2,315.1z"/>
				</g>
			</g>
			<g>
				<line class="st13" x1="547.8" y1="55.7" x2="547.8" y2="99.7"/>
				<path class="st14" d="M555.6,116.6c-0.3,4.2-4,7.4-8.3,7.1c-4.2-0.3-7.4-4-7.1-8.3c0.3-4.2,4-7.4,8.3-7.1
					C552.7,108.7,555.9,112.4,555.6,116.6z"/>
				<polygon class="st15" points="584.2,119.3 511.3,119.3 543.2,96.1 552.3,96.1 				"/>
			</g>
			<g>
				<line class="st13" x1="204.7" y1="55.7" x2="204.7" y2="99.7"/>
				<path class="st14" d="M212.5,116.6c-0.3,4.2-4,7.4-8.3,7.1c-4.2-0.3-7.4-4-7.1-8.3c0.3-4.2,4-7.4,8.3-7.1
					C209.7,108.7,212.8,112.4,212.5,116.6z"/>
				<polygon class="st15" points="241.2,119.3 168.3,119.3 200.2,96.1 209.3,96.1 				"/>
			</g>
			<line class="st16" x1="125.8" y1="372" x2="624.2" y2="372"/>
			<g>
				<g>
					<g>
						<path class="st17" d="M307,218.9c0,0,1.5-3.8,4.3-7.1c2.8-3.4,7-8.9,7-8.9s-2,4-4.8,8.5C310.7,215.8,307,218.9,307,218.9z"/>
						<path class="st17" d="M309.9,212.4c0,0,3.1-2.4,4.9-7.6c1.9-5.1,3.5-9.1,3.5-9.1s-4,5.7-5.7,9.7
							C310.9,209.4,309.9,212.4,309.9,212.4z"/>
						<path class="st17" d="M307.2,218.2c0,0,1.6-5.9,1.9-10.6c0.3-4.7,0.3-7.6,0.3-7.6s-2,8.5-2.7,12.1
							C306.1,215.7,307.2,218.2,307.2,218.2z"/>
						<path class="st17" d="M305.8,222.1c0,0,0.5-6.1-1.2-11.5c-1.7-5.4-1.8-8.9-1.8-8.9s-0.8,5.7,0.2,10.6
							C304,217.2,305.8,222.1,305.8,222.1z"/>
						<path class="st17" d="M306.3,220.8c0,0,4.3-3.7,6.5-4.5c2.2-0.9,5.2-3.4,5.2-3.4s-3.7,4.8-5.8,5.7
							C310.1,219.5,306.3,220.8,306.3,220.8z"/>
						<path class="st17" d="M304.8,225.9c0,0,0.4-3.3-1.5-8c-1.9-4.7-2.4-7-2.4-7s-0.1,6.4,1.2,8.8
							C303.4,222,304.8,225.9,304.8,225.9z"/>
						<path class="st17" d="M305.2,223.5c0,0,2.5-1.7,4.9-2s3-0.7,3-0.7s-1.2,2.2-4.1,2.6C306,223.8,305.2,223.5,305.2,223.5z"/>
						<path class="st17" d="M303.6,229c0.5-2.1,1.2-5.3,1.9-7.4c1.6-4.7,5.3-10.9,5.3-10.9c-2.3,5-3.9,7.9-5.1,12.2
							c-0.5,1.7-1.2,4.1-1.7,5.7C304,229.1,303.7,229.5,303.6,229z"/>
					</g>
					<g>
						<path class="st18" d="M304.7,220.6c0,0-0.2-4.3-1.9-8.7c-1.6-4.3-3.9-11.4-3.9-11.4s0.7,4.7,1.9,10.2
							C302,216.2,304.7,220.6,304.7,220.6z"/>
						<path class="st18" d="M304.1,213c0,0-2.3-3.5-2.4-9.3c-0.1-5.8-0.4-10.3-0.4-10.3s2,7.2,2.4,11.7
							C304,209.7,304.1,213,304.1,213z"/>
						<path class="st18" d="M304.8,219.8c0,0,0.4-6.5,1.7-11.3c1.3-4.8,2.4-7.8,2.4-7.8s-0.9,9.3-1.5,13.1
							C306.7,217.7,304.8,219.8,304.8,219.8z"/>
						<path class="st18" d="M304.8,224.2c0,0,1.6-6.3,5.2-11.1c3.6-4.9,4.9-8.3,4.9-8.3s-1.1,6-3.8,10.6
							C308.3,219.9,304.8,224.2,304.8,224.2z"/>
						<path class="st18" d="M304.8,222.7c0,0-3.1-5.2-4.9-6.8c-1.9-1.6-4.1-5.2-4.1-5.2s2.1,6.1,3.9,7.8
							C301.4,220.1,304.8,222.7,304.8,222.7z"/>
						<path class="st18" d="M304.5,228.4c0,0,0.7-3.5,4.3-7.5c3.6-4,4.8-6.2,4.8-6.2s-2.1,6.4-4.2,8.4
							C307.3,225,304.5,228.4,304.5,228.4z"/>
						<path class="st18" d="M304.9,225.8c0,0-1.9-2.5-4.2-3.7c-2.3-1.2-2.8-1.7-2.8-1.7s0.4,2.6,3.3,4
							C304,225.8,304.9,225.8,304.9,225.8z"/>
						<path class="st17" d="M304.6,232c0.2-2.3,0.6-5.7,0.6-8.2c0.1-5.3-1.6-12.7-1.6-12.7c0.5,5.9,1.2,9.3,0.9,14.1
							c-0.1,1.9-0.2,4.6-0.3,6.3C304.2,231.9,304.4,232.3,304.6,232z"/>
					</g>
					<g>
						<path class="st17" d="M301.4,221.5c0,0-1.5-3.8-4.3-7.1c-2.8-3.4-7-8.9-7-8.9s2,4,4.8,8.5
							C297.7,218.4,301.4,221.5,301.4,221.5z"/>
						<path class="st17" d="M298.6,215c0,0-3.1-2.4-4.9-7.6c-1.9-5.1-3.5-9.1-3.5-9.1s4,5.7,5.7,9.7C297.5,212,298.6,215,298.6,215z
							"/>
						<path class="st17" d="M301.2,220.8c0,0-1.6-5.9-1.9-10.6c-0.3-4.7-0.3-7.6-0.3-7.6s2,8.5,2.7,12.1
							C302.3,218.3,301.2,220.8,301.2,220.8z"/>
						<path class="st17" d="M302.6,224.7c0,0-0.5-6.1,1.2-11.5c1.7-5.4,1.8-8.9,1.8-8.9s0.8,5.7-0.2,10.6
							C304.5,219.8,302.6,224.7,302.6,224.7z"/>
						<path class="st17" d="M302.1,223.3c0,0-4.3-3.7-6.5-4.5c-2.2-0.9-5.2-3.4-5.2-3.4s3.7,4.8,5.8,5.7
							C298.3,222.1,302.1,223.3,302.1,223.3z"/>
						<path class="st17" d="M303.6,228.5c0,0-0.4-3.3,1.5-8c1.9-4.7,2.4-7,2.4-7s0.1,6.4-1.2,8.8
							C305.1,224.6,303.6,228.5,303.6,228.5z"/>
						<path class="st17" d="M303.2,226.1c0,0-2.5-1.7-4.9-2c-2.4-0.3-3-0.7-3-0.7s1.2,2.2,4.1,2.6
							C302.4,226.4,303.2,226.1,303.2,226.1z"/>
						<path class="st17" d="M304.8,231.6c-0.5-2.1-1.2-5.3-1.9-7.4c-1.6-4.7-5.3-10.9-5.3-10.9c2.3,5,3.9,7.9,5.1,12.2
							c0.5,1.7,1.2,4.1,1.7,5.7C304.4,231.7,304.7,232,304.8,231.6z"/>
					</g>
					<polygon class="st15" points="310.3,246.2 298.6,246.2 295,225.6 314.3,225.6 					"/>
				</g>
				<g>
					<g>
						<polygon class="st5" points="443.6,251.8 462.8,372.1 466.5,372.1 451.3,251.8 						"/>
						<polygon class="st5" points="310.9,251.9 285.9,372.3 280.9,372.3 300.5,251.9 						"/>
					</g>
					<rect x="271.5" y="244.8" class="st5" width="207" height="9.3"/>
					<rect x="261.6" y="244.8" class="st19" width="226.9" height="6.2"/>
				</g>
				<g>
					<g>
						<polygon class="st20" points="425,241.5 416.9,241.5 408.9,190.2 415,190.2 						"/>
						<polygon class="st15" points="422.7,241.5 391.3,241.5 383.2,190.2 414.6,190.2 						"/>
						<rect x="390.8" y="240.4" class="st15" width="34.2" height="3.8"/>
						<rect x="425" y="240.4" class="st20" width="43.1" height="3.8"/>
						<path class="st20" d="M405.4,218.3c0.9,3.9,0.3,8.2-1.4,9.5c-1.7,1.3-3.8-0.8-4.7-4.8c-0.9-3.9-0.3-8.2,1.4-9.5
							C402.4,212.3,404.5,214.4,405.4,218.3z"/>
					</g>
				</g>
				<g>
					<path class="st20" d="M356.5,244h-4.5c-1.8,0-3.4-1.3-3.7-3.2l-1.8-11.5H362l-1.8,11.5C359.9,242.7,358.4,244,356.5,244z"/>
					<g>
						<path class="st20" d="M360.7,241.6c-0.2,0-0.3,0-0.5,0l-0.2,0l-0.2-0.1c-0.1-0.1-2.7-2.1-2.7-5c0-3,2-5.4,4.4-5.4
							c1.5,0,2.8,0.6,3.6,1.5c0.6,0.7,1.2,2,0.8,4l0,0C365.3,239.8,363.4,241.6,360.7,241.6z M360.5,240.2c2.8,0.1,3.7-2.1,4-3.9
							l0,0c0.2-1.2,0-2.2-0.5-2.9c-0.5-0.7-1.5-1-2.5-1c-1.7,0-3,1.8-3,4C358.5,238.2,360,239.7,360.5,240.2z"/>
					</g>
				</g>
				<polygon class="st15" points="345.1,245 364.6,245 367.7,241.6 342,241.6 				"/>
			</g>
			<g>
				<rect x="148.2" y="170" class="st21" width="93.4" height="202"/>
				<rect x="159" y="178.9" class="st15" width="71.9" height="21.2"/>
				<path class="st0" d="M203.5,192h-17.2c-0.4,0-0.8-0.4-0.8-0.8v-3.5c0-0.4,0.4-0.8,0.8-0.8h17.2c0.4,0,0.8,0.4,0.8,0.8v3.5
					C204.3,191.7,204,192,203.5,192z"/>
				<rect x="159" y="205.8" class="st15" width="71.9" height="21.2"/>
				<path class="st0" d="M203.5,219h-17.2c-0.4,0-0.8-0.4-0.8-0.8v-3.5c0-0.4,0.4-0.8,0.8-0.8h17.2c0.4,0,0.8,0.4,0.8,0.8v3.5
					C204.3,218.6,204,219,203.5,219z"/>
				<rect x="159" y="232.8" class="st15" width="71.9" height="21.2"/>
				<path class="st0" d="M203.5,245.9h-17.2c-0.4,0-0.8-0.4-0.8-0.8v-3.5c0-0.4,0.4-0.8,0.8-0.8h17.2c0.4,0,0.8,0.4,0.8,0.8v3.5
					C204.3,245.6,204,245.9,203.5,245.9z"/>
				<rect x="159" y="260" class="st15" width="71.9" height="103.8"/>
				<path class="st0" d="M203.5,273.2h-17.2c-0.4,0-0.8-0.4-0.8-0.8v-3.5c0-0.4,0.4-0.8,0.8-0.8h17.2c0.4,0,0.8,0.4,0.8,0.8v3.5
					C204.3,272.9,204,273.2,203.5,273.2z"/>
			</g>
		</g>
	</g>
</g>
<g id="DESIGNED_BY_FREEPIK">
</g>
</svg>
