<?xml version="1.0" encoding="utf-8"?>
<!-- Generator: Adobe Illustrator 22.1.0, SVG Export Plug-In . SVG Version: 6.00 Build 0)  -->
<svg version="1.1" id="Layer_1" xmlns="http://www.w3.org/2000/svg" xmlns:xlink="http://www.w3.org/1999/xlink" x="0px" y="0px"
	 viewBox="0 0 150 150" style="enable-background:new 0 0 150 150;" xml:space="preserve">
<style type="text/css">
	.st0{fill:#FFFFFF;}
</style>
<g>
	<title>Miscellaneous 17 final</title>
	<path class="st0" d="M23.9,114.7v24.9c0,2.5,2,4.5,4.5,4.5h98.5c2.5,0,4.5-2,4.5-4.5v-24.9c0-2.5-2-4.5-4.5-4.5h-14.6
		c16.2-19.8,13.4-49-6.4-65.2s-49-13.4-65.2,6.4c-6.8,8.3-10.5,18.7-10.5,29.4c0,10.7,3.7,21.1,10.6,29.4H28.4
		C25.9,110.2,23.9,112.2,23.9,114.7C23.9,114.7,23.9,114.7,23.9,114.7z M34.6,80.8C34.6,57.7,53.4,39,76.5,39
		c23.1,0,41.9,18.7,41.9,41.8c0,10.3-3.8,20.3-10.7,28c-4.1-3.2-8.8-5.3-13.9-6.2c-4.9-0.9-5.6-7-5.6-7.3v-0.5
		c3.7-4.3,6.4-9.4,7.8-14.9c0.6-2.1,0.9-4.3,0.9-6.4c0-1-0.1-1.9-0.2-2.9c1.6-3.5,1.9-7.5,0.9-11.2c-0.5-1.8-2.3-2.9-4.1-2.6
		c-2.5,0.3-7.7-1.4-10.5-2.5C71.4,49.4,63.2,55,60,59.1c-4.9,2.2-5.7,8.3-5.4,13.5c0,0.3,0,0.6,0,0.9c0.1,8,3,15.7,8.2,21.8
		c0.3,0.3,0.6,0.6,0.9,1c-0.4,1.8-1.6,5.7-5.4,6.4c-4.8,0.9-9.4,2.9-13.3,5.8C38.3,100.7,34.6,90.9,34.6,80.8z M66,82
		c0.3,0,0.5,0,0.8-0.1c1-0.3,1.7-0.5,4.2-7.3c5,3.4,11.2,4.5,17,3.1l0.2-0.1c1.4-0.5,2.7-1.2,3.9-2.1c-0.1,1-0.3,2-0.6,3
		c-1.8,6.4-5.2,12.1-9.3,15.5c-4.7,3.9-11.8,3-16.1-1.9c-2.5-3-4.4-6.4-5.6-10.1L66,82z M59.8,77.6c-1-5.1-1.5-13.2,2.4-14.6
		c0.5-0.2,0.8-0.5,1.1-0.9c2.6-3.4,6.6-5.3,10.8-5.3c2.4,0,4.8,0.6,7.1,1.6l0,0c0.8,0.3,7.7,3,12.1,2.9c0.7,3.5,0.5,9.1-6.6,12.1
		c-5.4,1.2-11.1-0.4-15.1-4.2c-0.9-0.9-2.3-0.9-3.2,0c-0.2,0.2-0.4,0.5-0.5,0.9c-1,2.7-2.2,5.9-2.9,7.4L59.8,77.6z M67.5,99.3
		c1.1,0.6,2.3,1.1,3.6,1.4c3.2,0.8,6.6,0.8,9.8,0c1.2-0.3,2.4-0.8,3.6-1.4c1.1,3,3.4,6.9,8.5,7.8c3.1,0.6,6.1,1.7,8.8,3.2H50.1
		c2.8-1.5,5.8-2.6,8.9-3.2C64.1,106.1,66.4,102.2,67.5,99.3z M126.8,114.7v24.9H28.4v-24.9H126.8z"/>
	<polygon class="st0" points="72.4,134.5 77.1,132.1 81.7,134.5 80.8,129.3 84.6,125.7 79.4,124.9 77.1,120.2 74.7,124.9 
		69.5,125.7 73.3,129.3 	"/>
	<polygon class="st0" points="53.4,134.5 58,132.1 62.7,134.5 61.8,129.3 65.6,125.7 60.4,124.9 58,120.2 55.7,124.9 50.5,125.7 
		54.3,129.3 	"/>
	<polygon class="st0" points="34.3,134.5 39,132.1 43.7,134.5 42.8,129.3 46.5,125.7 41.3,124.9 39,120.2 36.7,124.9 31.5,125.7 
		35.2,129.3 	"/>
	<polygon class="st0" points="111.6,134.5 116.2,132.1 120.9,134.5 120,129.3 123.8,125.7 118.6,124.9 116.2,120.2 113.9,124.9 
		108.7,125.7 112.5,129.3 	"/>
	<polygon class="st0" points="92.5,134.5 97.2,132.1 101.9,134.5 101,129.3 104.7,125.7 99.5,124.9 97.2,120.2 94.9,124.9 
		89.7,125.7 93.4,129.3 	"/>
	<path class="st0" d="M79.9,25.5V3.1c0-1.2-1-2.2-2.2-2.2c-1.2,0-2.2,1-2.2,2.2v22.4c0,1.2,1,2.2,2.2,2.2
		C78.9,27.7,79.9,26.7,79.9,25.5z"/>
	<path class="st0" d="M48.3,39.1c1.2,0,2.2-1,2.2-2.2c0-0.6-0.2-1.2-0.7-1.6L34.5,19.9c-0.9-0.9-2.3-0.9-3.2,0
		c-0.9,0.9-0.9,2.3,0,3.2l15.4,15.4C47.2,38.9,47.8,39.1,48.3,39.1z"/>
	<path class="st0" d="M108.5,38.5L123.9,23c0.7-1,0.6-2.4-0.4-3.1c-0.8-0.6-1.9-0.6-2.7,0l-15.4,15.4c-0.9,0.9-0.9,2.3,0,3.2
		C106.2,39.4,107.6,39.4,108.5,38.5L108.5,38.5z"/>
</g>
</svg>
