<?xml version="1.0" encoding="utf-8"?>
<!-- Generator: Adobe Illustrator 22.1.0, SVG Export Plug-In . SVG Version: 6.00 Build 0)  -->
<svg version="1.1" id="Layer_1" xmlns="http://www.w3.org/2000/svg" xmlns:xlink="http://www.w3.org/1999/xlink" x="0px" y="0px"
	 viewBox="0 0 100 100" style="enable-background:new 0 0 100 100;" xml:space="preserve">
<path d="M24.5,33.4c-2.2,2.1-2.3,5.6-0.2,7.9c1.1,1.1,2.6,1.8,4.2,1.7c1.4,0,2.7-0.6,3.7-1.5l13.6-12.9l8.5,3.7L45,45.9L13.3,85.9
	c-1.9,2.4-1.5,5.9,0.9,7.8c1,0.8,2.2,1.2,3.4,1.2c0.2,0,0.4,0,0.6,0c1.5-0.2,2.9-0.9,3.8-2.1l26.8-33.7l17.9,7.8l-17.1,7.8
	c-2.8,1.3-4,4.6-2.8,7.4c0.9,2,3,3.3,5.2,3.3c0.8,0,1.5-0.2,2.2-0.5L82.4,72c2-0.9,3.3-2.9,3.3-5s-1.2-4.2-3.2-5.1l-17.6-8.3
	L72.8,42l12.4,5.6c0.7,0.3,1.4,0.5,2.2,0.5c0.7,0,1.5-0.1,2.2-0.4c1.4-0.5,2.5-1.7,3.1-3l7-16.7c0.6-1.4,0.6-2.9,0-4.3
	c-0.6-1.4-1.6-2.5-3-3c-2.8-1.2-6.1,0.2-7.3,3l-4.8,11.4l-7-3.2c-0.8-0.4-16.3-8.8-16.5-8.8l-14.2-6.2c-2.1-0.9-4.4-0.5-6.1,1.1
	L24.5,33.4z M46.3,18.3l14.1,6.2c0.4,0.2,16.2,8.7,16.4,8.8c0,0,0,0,0.1,0l7.8,3.5c0.2,0.1,0.4,0.1,0.6,0c0.2-0.1,0.3-0.2,0.4-0.4
	l5.1-12.1c0.9-2.1,3.2-3,5.3-2.2c1,0.4,1.8,1.2,2.2,2.2c0.4,1,0.4,2.1,0,3.1l-7,16.7c-0.4,1-1.2,1.8-2.3,2.2c-0.5,0.2-1,0.3-1.6,0.3
	c-0.5,0-1.1-0.1-1.6-0.4l-13-5.9c-0.3-0.2-0.7,0-1,0.3l-8.8,12.9c-0.1,0.2-0.2,0.4-0.1,0.6c0.1,0.2,0.2,0.4,0.4,0.5l18.4,8.7
	c1.4,0.7,2.3,2.1,2.3,3.7c0,1.6-0.9,3-2.4,3.6L53.6,83.4c-0.5,0.2-1,0.4-1.6,0.4c-1.6,0.1-3.1-0.9-3.8-2.4c-0.9-2,0-4.4,2-5.3
	l18.7-8.5c0.3-0.1,0.5-0.4,0.4-0.7c0-0.3-0.2-0.6-0.5-0.7l-20-8.7c-0.3-0.1-0.7,0-0.9,0.2L20.8,91.9c-0.7,0.9-1.7,1.4-2.8,1.5
	c-1.1,0.1-2.1-0.2-2.9-0.9c-1.7-1.4-2-3.9-0.7-5.7l31.7-40.1l9.8-14.4c0.1-0.2,0.2-0.4,0.1-0.6c-0.1-0.2-0.2-0.4-0.4-0.5l-9.8-4.3
	c-0.1,0-0.2-0.1-0.3-0.1c-0.2,0-0.4,0.1-0.5,0.2L31.1,40.3c-0.7,0.7-1.7,1.1-2.7,1.1c-1.2,0-2.2-0.4-3-1.3c-1.5-1.6-1.5-4.2,0.1-5.7
	L41.8,19C43,17.9,44.8,17.6,46.3,18.3z"/>
<path d="M77.9,25.3c5.6,0,10.1-4.5,10.1-10.1S83.4,5.1,77.9,5.1S67.7,9.6,67.7,15.2S72.3,25.3,77.9,25.3z M77.9,6.6
	c4.7,0,8.6,3.9,8.6,8.6s-3.9,8.6-8.6,8.6c-4.7,0-8.6-3.9-8.6-8.6S73.1,6.6,77.9,6.6z"/>
<path d="M22.5,48.3H8c-0.4,0-0.8,0.3-0.8,0.8c0,0.4,0.3,0.8,0.8,0.8h14.5c0.4,0,0.8-0.3,0.8-0.8C23.2,48.7,22.9,48.3,22.5,48.3z"/>
<path d="M0.8,40.1h14.5c0.4,0,0.8-0.3,0.8-0.8s-0.3-0.8-0.8-0.8H0.8c-0.4,0-0.8,0.3-0.8,0.8S0.3,40.1,0.8,40.1z"/>
<path d="M14.1,58.2c0,0.4,0.3,0.8,0.8,0.8h14.5c0.4,0,0.8-0.3,0.8-0.8s-0.3-0.8-0.8-0.8H14.9C14.4,57.4,14.1,57.7,14.1,58.2z"/>
<path d="M28.3,8.6h14.5c0.4,0,0.8-0.3,0.8-0.8s-0.3-0.8-0.8-0.8H28.3c-0.4,0-0.8,0.3-0.8,0.8S27.9,8.6,28.3,8.6z"/>
<path d="M12,24h14.5c0.4,0,0.8-0.3,0.8-0.8c0-0.4-0.3-0.8-0.8-0.8H12c-0.4,0-0.8,0.3-0.8,0.8C11.2,23.7,11.5,24,12,24z"/>
</svg>
