<svg height="512" viewBox="0 0 64 64" width="512" xmlns="http://www.w3.org/2000/svg"><path d="m9 39h10v22h-10z" fill="#006df0"/><path d="m3 41h6v18h-6z" fill="#57a4ff"/><path d="m55.37 25a13.361 13.361 0 0 1 -.79 1.92l3.98 3.98-5.66 5.66-3.98-3.98a13.361 13.361 0 0 1 -1.92.79v5.63h-8v-5.63a13.361 13.361 0 0 1 -1.92-.79l-3.98 3.98-5.66-5.66 3.98-3.98a13.361 13.361 0 0 1 -.79-1.92h-5.63v-8h5.63a13.361 13.361 0 0 1 .79-1.92l-3.98-3.98 5.66-5.66 3.98 3.98a13.361 13.361 0 0 1 1.92-.79v-5.63h8v5.63a13.361 13.361 0 0 1 1.92.79l3.98-3.98 5.66 5.66-3.98 3.98a13.361 13.361 0 0 1 .79 1.92h5.63v8z" fill="#ffa733"/><circle cx="43" cy="21" fill="#df2a47" r="7"/><circle cx="43" cy="21" fill="#ff3051" r="5"/><circle cx="14" cy="56" fill="#f1f2f2" r="2"/><path d="m60.55 40.4a3.014 3.014 0 0 0 -4.1-1.1l-10.2 5.89a2.984 2.984 0 0 0 -1.758-1.308l-13.622-3.65a3.994 3.994 0 0 0 -1.75-.071l-10.12 1.839v15l16.584 1.843a4 4 0 0 0 2.612-.616l21.254-13.727a3.006 3.006 0 0 0 1.1-4.1z" fill="#ffbcab"/><path d="m42.936 48.678-9.66-2.6-.276.938 9.936 2.662a2.985 2.985 0 0 0 3.723-3.419 2.845 2.845 0 0 1 -.049.3 3 3 0 0 1 -3.674 2.119z" fill="#ff9478"/><path d="m7 41h2v18h-2z" fill="#2488ff"/><g fill="#ee8700"><path d="m42 6h2v2h-2z"/><path d="m32.101 10.101h2v2h-2z" transform="matrix(.707 -.707 .707 .707 1.846 26.657)"/><path d="m28 20h2v2h-2z"/><path d="m32.101 29.9h2v2h-2z" transform="matrix(.707 -.707 .707 .707 -12.154 32.456)"/><path d="m42 34h2v2h-2z"/><path d="m51.9 29.9h2v2h-2z" transform="matrix(.707 -.707 .707 .707 -6.355 46.456)"/><path d="m56 20h2v2h-2z"/><path d="m51.9 10.101h2v2h-2z" transform="matrix(.707 -.707 .707 .707 7.645 40.657)"/></g><path d="m33 47.016.873.233-.836-.239z" fill="#ffbcab"/></svg>