<?xml version="1.0" encoding="utf-8"?>
<!-- Generator: Adobe Illustrator 22.1.0, SVG Export Plug-In . SVG Version: 6.00 Build 0)  -->
<svg version="1.1" id="Layer_1" xmlns="http://www.w3.org/2000/svg" xmlns:xlink="http://www.w3.org/1999/xlink" x="0px" y="0px"
	 viewBox="0 0 100 100" style="enable-background:new 0 0 100 100;" xml:space="preserve">
<title>Guarantee, insurance, safe, shield, protected</title>
<g>
	<path d="M94.6,3.9c-0.6-0.3-1.3-0.3-1.8,0l-0.9,0.4c-13.1,7.1-29.2,5.5-40.7-3.9c-0.7-0.5-1.6-0.5-2.3,0
		c-11.5,9.4-27.6,11-40.7,3.9L7.3,3.8C6.7,3.5,6,3.5,5.5,3.8C4.9,4.2,4.5,4.8,4.5,5.4v40.7c0,19.2,10.8,36.7,28,45.3l16.6,8.3
		c0.5,0.3,1.1,0.3,1.6,0l16.6-8.3c17.2-8.6,28-26.1,28-45.3V5.4C95.5,4.8,95.1,4.2,94.6,3.9z M91.8,46.2c0,17.8-10.1,34.1-26,42.1
		L50,96.2l-15.8-7.9c-15.9-8-26-24.2-26-42.1V8.4C21.8,15,38,13.3,50,4.1C62,13.3,78.2,15,91.8,8.4V46.2z"/>
	<path d="M22.2,38.7c-0.7-0.7-1.9-0.7-2.6,0c-0.7,0.7-0.7,1.9,0,2.6l21.8,21.8c0.3,0.3,0.8,0.5,1.3,0.5c0.4,0,0.9-0.2,1.2-0.4
		l36.4-30.9c0.8-0.7,0.9-1.8,0.2-2.6c-0.7-0.8-1.8-0.9-2.6-0.2L42.8,59.3L22.2,38.7z"/>
</g>
</svg>
