<svg height="512" viewBox="0 0 58 59" width="512" xmlns="http://www.w3.org/2000/svg"><g id="Page-1" fill="none" fill-rule="evenodd"><g id="040---Coffee-Shop-Sign" fill-rule="nonzero"><path id="Shape" d="m26 9v8.2c-1.7755652.62581-3.4576753 1.4904146-5 2.57v-10.77z" fill="#805333"/><path id="Shape" d="m45 9v10.77c-1.5423247-1.0795854-3.2244348-1.94419-5-2.57v-8.2z" fill="#805333"/><path id="Shape" d="m54 37c.0017505 9.968523-7.0048817 18.5646178-16.7689828 20.5730459-9.7641012 2.0084281-19.594692-3.1243319-23.527567-12.2842418-3.93287498-9.1599098-.8841367-19.822505 7.2965498-25.5188041 7.2091871-5.0305081 16.7908129-5.0305081 24 0 5.6437116 3.9201757 9.0066718 10.3583762 9 17.23z" fill="#e57e25"/><path id="Shape" d="m51.29 26.69c-7.0212349-3.9489097-15.6834248-3.5292073-22.29 1.08-8.8808646 6.1818578-11.6084649 18.1010381-6.3 27.53-6.2959789-3.545056-10.327322-10.0778483-10.6726411-17.2950172s3.0438884-14.1050115 8.9726411-18.2349828c7.2091871-5.0305081 16.7908129-5.0305081 24 0 2.5886116 1.8063135 4.738232 4.1712376 6.29 6.92z" fill="#f29c1f"/><path id="Shape" d="m40.009 46.326c-.4806641-.000355-.8930772-.3426327-.982-.815-.3-1.6 1.48-1.983 2.911-2.294 2.376-.515 4.214-1.063 4.477-3.011.171-1.285-.335-1.708-.729-1.915-1.214-.634-3.718-.122-4.962 1.013-.4093334.3599402-1.0315258.3257626-1.3989716-.0768468s-.3447762-1.0253274.0509716-1.4001532c1.676-1.532 5.062-2.447 7.235-1.308 1.4269849.7564848 2.1624942 2.3816766 1.789 3.953-.471 3.494-3.954 4.249-6.035 4.7-.4642423.0881088-.9224809.2053404-1.372.351-.0811917.4005637-.3979714.7114038-.8.785-.0606334.0117554-.122238.0177819-.184.018z" fill="#ecf0f1"/><path id="Shape" d="m33 59c-9.6097853-.002908-18.1057173-6.2427826-20.983623-15.4115142-2.87790578-9.1687317.5282302-19.1444589 8.412623-24.6384858 1.615997-1.1313134 3.3785222-2.0373031 5.239-2.693 4.7469872-1.6685055 9.9210128-1.6685055 14.668 0 1.859654.6561593 3.6214575 1.5621239 5.237 2.693 7.8846952 5.4942381 11.2907558 15.4704867 8.4123228 24.6394394-2.8784331 9.1689527-11.3751685 15.4085258-20.9853228 15.4105606zm0-42c-4.0868871-.0025834-8.0758798 1.2506313-11.427 3.59-7.1715939 4.9932863-10.2710147 14.0645134-7.6543044 22.4022285 2.6167104 8.3377152 10.3436164 14.0112055 19.0823044 14.0112055s16.465594-5.6734903 19.0823044-14.0112055c2.6167103-8.3377151-.4827105-17.4089422-7.6543044-22.4022285-3.3524275-2.338238-7.3416873-3.5913172-11.429-3.59z" fill="#d25627"/><rect id="Rectangle-path" fill="#cf976a" height="58" rx="2" width="7"/><path id="Shape" d="m58 6v1c-.0032948 1.10320187-.8967981 1.9967052-2 2h-49v-5h49c1.1032019.0032948 1.9967052.89679813 2 2z" fill="#a56a43"/><path id="Shape" d="m44 35.64c0 4.89-1.51 14.36-13 14.36-11.92 0-13.1-10.2-12.99-14.89.14 2.71 5.9 4.89 12.99 4.89s12.85-2.18 12.99-4.89c0 .17.01.35.01.53z" fill="#bdc3c7"/><path id="Shape" d="m44 35c.0016435.0369499-.0017203.0739522-.01.11-.14 2.71-5.9 4.89-12.99 4.89s-12.85-2.18-12.99-4.89c-.0082797-.0360478-.0116435-.0730501-.01-.11 0-2.76 5.82-5 13-5s13 2.24 13 5z" fill="#ecf0f1"/><path id="Shape" d="m42 34.5c.0012992.0259251-.0013991.0518957-.008.077-.119 1.897-4.992 3.423-10.992 3.423s-10.873-1.526-10.992-3.423c-.0066009-.0251043-.0092992-.0510749-.008-.077 0-1.932 4.925-3.5 11-3.5s11 1.568 11 3.5z" fill="#bdc3c7"/><ellipse id="Oval" cx="31" cy="35.5" fill="#a56a43" rx="10.54" ry="2.5"/><g fill="#f3d55b"><path id="Shape" d="m25 35c-.5522847 0-1-.4477153-1-1 .0332298-.9837628.5393442-1.89097 1.359-2.436.485-.4.641-.562.641-.9s-.156-.5-.641-.9c-.8451505-.52067-1.359875-1.4423386-1.359875-2.435s.5147245-1.91433 1.359875-2.435c.511-.425.64-.575.64-.9 0-.5522847.4477153-1 1-1s1 .4477153 1 1c-.0329386.9835551-.5396467 1.8904136-1.36 2.434-.511.425-.64.575-.64.9 0 .337.156.5.641.9.8446011.5215371 1.3587816 1.443351 1.3587816 2.436s-.5141805 1.9144629-1.3587816 2.436c-.485.4-.641.562-.641.9.0000003.5518945-.4471058.9994481-.999 1z"/><path id="Shape" d="m30 35c-.5522847 0-1-.4477153-1-1 .0332298-.9837628.5393442-1.89097 1.359-2.436.485-.4.641-.562.641-.9s-.156-.5-.641-.9c-.8451505-.52067-1.359875-1.4423386-1.359875-2.435s.5147245-1.91433 1.359875-2.435c.511-.425.64-.575.64-.9 0-.5522847.4477153-1 1-1s1 .4477153 1 1c-.0329386.9835551-.5396467 1.8904136-1.36 2.434-.511.425-.64.575-.64.9 0 .337.156.5.641.9.8446011.5215371 1.3587816 1.443351 1.3587816 2.436s-.5141805 1.9144629-1.3587816 2.436c-.485.4-.641.562-.641.9.0000003.5518945-.4471058.9994481-.999 1z"/><path id="Shape" d="m35 35c-.5522847 0-1-.4477153-1-1 .0332298-.9837628.5393442-1.89097 1.359-2.436.485-.4.641-.562.641-.9s-.156-.5-.641-.9c-.8451505-.52067-1.359875-1.4423386-1.359875-2.435s.5147245-1.91433 1.359875-2.435c.511-.425.64-.575.64-.9 0-.5522847.4477153-1 1-1s1 .4477153 1 1c-.0329386.9835551-.5396467 1.8904136-1.36 2.434-.511.425-.64.575-.64.9 0 .337.156.5.641.9.8446011.5215371 1.3587816 1.443351 1.3587816 2.436s-.5141805 1.9144629-1.3587816 2.436c-.485.4-.641.562-.641.9.0000003.5518945-.4471058.9994481-.999 1z"/></g></g></g></svg>