<?xml version="1.0" encoding="utf-8"?>
<!-- Generator: Adobe Illustrator 22.1.0, SVG Export Plug-In . SVG Version: 6.00 Build 0)  -->
<svg version="1.1" id="Layer_1" xmlns="http://www.w3.org/2000/svg" xmlns:xlink="http://www.w3.org/1999/xlink" x="0px" y="0px"
	 viewBox="0 0 146.2 96.8" style="enable-background:new 0 0 146.2 96.8;" xml:space="preserve">
<style type="text/css">
	.st0{fill:#FFCE33;}
	.st1{fill:#1B2050;}
	.st2{fill:#51FF35;}
	.st3{enable-background:new    ;}
	.st4{fill:#E91E63;}
	.st5{font-family:'Roboto-Black';}
	.st6{font-size:19.5101px;}
</style>
<path class="st0" d="M23.8,14.3h43.4l8.2-13H21.1h-4.5C7.4,1.3,0,8.8,0,17.9l0,0v36l0,0c0,9.5,7.7,17.2,17.2,17.2H20h103.8l-7.9-13
	H52.2H23.8l0,0c-4.8,0-8.7-3.9-8.7-8.7l0,0V23v-0.1c0-4.7,3.8-8.6,8.5-8.6L23.8,14.3z"/>
<path class="st1" d="M51.8,54.7h18.1l22.2-36.5l0,0c1-1.3,3-1.3,3.8,0.2l0.1,0.2l32.1,52.7h18.1l-40.6-66l0,0
	c-5.7-6.9-16.3-7-22.1-0.2l0,0L51.8,54.7z"/>
<path class="st2" d="M135.2,28.1"/>
<g class="st3">
	<path class="st0" d="M13.8,91.2c0,1-0.3,1.8-0.8,2.6c-0.5,0.7-1.1,1.3-2,1.7c-0.9,0.4-1.8,0.6-2.9,0.6c-1.8,0-3.3-0.6-4.3-1.8
		s-1.6-2.9-1.6-5v-0.7c0-1.4,0.2-2.5,0.7-3.6c0.5-1,1.2-1.8,2-2.4c0.9-0.6,1.9-0.8,3.1-0.8c1.7,0,3,0.4,4.1,1.3
		c1,0.9,1.6,2.1,1.7,3.7h-3.3c0-0.8-0.2-1.5-0.6-1.8c-0.4-0.4-1-0.6-1.8-0.6c-0.8,0-1.4,0.3-1.8,0.9c-0.4,0.6-0.6,1.6-0.6,3v1
		c0,1.5,0.2,2.5,0.6,3.2s1,1,1.9,1c0.8,0,1.4-0.2,1.8-0.5c0.4-0.4,0.6-0.9,0.6-1.7H13.8z"/>
	<path class="st0" d="M24,90.1h-5.3v3.3H25v2.6h-9.6V82.1H25v2.6h-6.2v2.9H24V90.1z"/>
	<path class="st0" d="M31.5,91h-1.8v4.9h-3.3V82.1h5.5c1.6,0,2.9,0.4,3.9,1.1s1.4,1.8,1.4,3.1c0,1-0.2,1.8-0.6,2.4s-1,1.1-1.8,1.5
		l2.9,5.6v0.1h-3.6L31.5,91z M29.7,88.5h2.1c0.6,0,1.1-0.2,1.4-0.5c0.3-0.3,0.5-0.8,0.5-1.4s-0.2-1.1-0.5-1.4s-0.8-0.5-1.4-0.5h-2.1
		V88.5z"/>
	<path class="st0" d="M49.5,84.7h-4.2v11.3H42V84.7h-4.1v-2.6h11.6V84.7z"/>
</g>
<text transform="matrix(1 0 0 1 50.2514 95.9457)" class="st4 st5 st6"> </text>
<g class="st3">
	<path class="st1" d="M64.1,93.4h-4.6l-0.8,2.6h-3.6l5.1-13.9h3.1l5.1,13.9h-3.6L64.1,93.4z M60.3,90.8h3L61.8,86L60.3,90.8z"/>
	<path class="st1" d="M80.5,91.2c0,1-0.3,1.8-0.8,2.6c-0.5,0.7-1.1,1.3-2,1.7s-1.8,0.6-2.9,0.6c-1.8,0-3.3-0.6-4.3-1.8
		s-1.6-2.9-1.6-5v-0.7c0-1.4,0.2-2.5,0.7-3.6c0.5-1,1.2-1.8,2-2.4c0.9-0.6,1.9-0.8,3.1-0.8c1.7,0,3,0.4,4.1,1.3
		c1,0.9,1.6,2.1,1.7,3.7h-3.3c0-0.8-0.2-1.5-0.6-1.8c-0.4-0.4-1-0.6-1.8-0.6c-0.8,0-1.4,0.3-1.8,0.9c-0.4,0.6-0.6,1.6-0.6,3v1
		c0,1.5,0.2,2.5,0.6,3.2c0.4,0.6,1,1,1.9,1c0.8,0,1.4-0.2,1.8-0.5c0.4-0.4,0.6-0.9,0.6-1.7H80.5z"/>
	<path class="st1" d="M93.3,91.2c0,1-0.3,1.8-0.8,2.6s-1.1,1.3-2,1.7c-0.9,0.4-1.8,0.6-2.9,0.6c-1.8,0-3.3-0.6-4.3-1.8
		s-1.6-2.9-1.6-5v-0.7c0-1.4,0.2-2.5,0.7-3.6c0.5-1,1.2-1.8,2-2.4c0.9-0.6,1.9-0.8,3.1-0.8c1.7,0,3,0.4,4.1,1.3
		c1,0.9,1.6,2.1,1.7,3.7H90c0-0.8-0.2-1.5-0.6-1.8s-1-0.6-1.8-0.6c-0.8,0-1.4,0.3-1.8,0.9c-0.4,0.6-0.6,1.6-0.6,3v1
		c0,1.5,0.2,2.5,0.6,3.2c0.4,0.6,1,1,1.9,1c0.8,0,1.4-0.2,1.8-0.5c0.4-0.4,0.6-0.9,0.6-1.7H93.3z"/>
	<path class="st1" d="M106.6,89.3c0,1.4-0.3,2.5-0.8,3.6c-0.5,1-1.2,1.8-2.1,2.4c-0.9,0.6-2,0.8-3.2,0.8c-1.2,0-2.2-0.3-3.1-0.8
		c-0.9-0.5-1.6-1.3-2.1-2.3c-0.5-1-0.8-2.2-0.8-3.5v-0.8c0-1.4,0.2-2.6,0.7-3.6c0.5-1,1.2-1.8,2.1-2.4s2-0.8,3.2-0.8
		c1.2,0,2.2,0.3,3.1,0.8s1.6,1.4,2.1,2.4s0.8,2.2,0.8,3.5V89.3z M103.2,88.7c0-1.4-0.2-2.4-0.7-3.1c-0.5-0.7-1.1-1.1-2-1.1
		c-1.7,0-2.6,1.3-2.7,3.8l0,1c0,1.4,0.2,2.4,0.7,3.1c0.5,0.7,1.1,1.1,2,1.1c0.8,0,1.5-0.4,2-1.1c0.5-0.7,0.7-1.8,0.7-3.1V88.7z"/>
	<path class="st1" d="M119.2,82.1v9.1c0,1-0.2,1.9-0.7,2.7c-0.4,0.8-1.1,1.3-1.9,1.7c-0.8,0.4-1.8,0.6-2.9,0.6c-1.7,0-3-0.4-4-1.3
		c-1-0.9-1.5-2.1-1.5-3.6v-9.1h3.4v9.2c0,1.5,0.7,2.3,2.1,2.3c0.7,0,1.2-0.2,1.6-0.6s0.5-1,0.5-1.9v-9.1H119.2z"/>
	<path class="st1" d="M132.9,95.9h-3.3l-4.9-8.6v8.6h-3.3V82.1h3.3l4.9,8.6v-8.6h3.3V95.9z"/>
	<path class="st1" d="M145.6,84.7h-4.2v11.3h-3.3V84.7H134v-2.6h11.6V84.7z"/>
</g>
</svg>
