<?xml version="1.0" encoding="utf-8"?>
<!-- Generator: Adobe Illustrator 22.1.0, SVG Export Plug-In . SVG Version: 6.00 Build 0)  -->
<svg version="1.1" id="Layer_1" xmlns="http://www.w3.org/2000/svg" xmlns:xlink="http://www.w3.org/1999/xlink" x="0px" y="0px"
	 viewBox="0 0 146.2 96.8" style="enable-background:new 0 0 146.2 96.8;" xml:space="preserve">
<style type="text/css">
	.st0{fill:#FFCE33;}
	.st1{fill:#FFFFFF;}
	.st2{fill:#51FF35;}
	.st3{font-family:'Roboto-Black';}
	.st4{font-size:19.5101px;}
	.st5{fill:#E91E63;}
</style>
<path class="st0" d="M23.8,14.3h43.4l8.2-13H21.1h-4.5C7.4,1.3,0,8.8,0,17.9v0v36v0c0,9.5,7.7,17.2,17.2,17.2H20h103.8l-7.9-13H52.2
	H23.8h0c-4.8,0-8.7-3.9-8.7-8.7v0V23l0-0.1c0-4.7,3.8-8.6,8.5-8.6L23.8,14.3z"/>
<path class="st1" d="M51.8,54.7h18.1l22.2-36.5v0c1-1.3,3-1.3,3.8,0.2l0.1,0.2l32.1,52.7h18.1l-40.6-66l0,0
	c-5.7-6.9-16.3-7-22.1-0.2l0,0L51.8,54.7z"/>
<path class="st2" d="M135.2,28.1"/>
<text transform="matrix(1 0 0 1 1.5514 95.9457)"><tspan x="0" y="0" class="st0 st3 st4">CERT</tspan><tspan x="48.7" y="0" class="st5 st3 st4"> </tspan><tspan x="53.6" y="0" class="st1 st3 st4">ACCOUNT</tspan></text>
</svg>
