<?xml version="1.0" encoding="utf-8"?>
<!-- Generator: Adobe Illustrator 22.1.0, SVG Export Plug-In . SVG Version: 6.00 Build 0)  -->
<svg version="1.1" id="Layer_1" xmlns="http://www.w3.org/2000/svg" xmlns:xlink="http://www.w3.org/1999/xlink" x="0px" y="0px"
	 viewBox="0 0 100 67" style="enable-background:new 0 0 100 67;" xml:space="preserve">
<style type="text/css">
	.st0{fill:#56323B;}
	.st1{fill:#FFEED2;}
	.st2{fill:#FFF3E1;}
	.st3{fill:#70D8EF;}
	.st4{opacity:0.6;fill:#C94343;}
	.st5{fill:#FFF1DC;}
	.st6{fill:#F4E2C9;}
	.st7{fill:#C1A584;}
	.st8{fill:#DDC2A8;}
	.st9{fill:#4CB1CC;}
	.st10{fill:#619CAA;}
	.st11{fill:#4C8993;}
	.st12{fill:#80CBD8;}
	.st13{fill:#E5D2B7;}
	.st14{fill:#C1A787;}
	.st15{fill:#BA5438;}
	.st16{fill:#A0402A;}
	.st17{fill:#7A2618;}
	.st18{fill:#C95D7C;}
	.st19{fill:#B54168;}
	.st20{fill:#FFCE55;}
	.st21{fill:#FFB345;}
	.st22{fill:#FFF1C5;}
	.st23{fill:#E8D6A3;}
	.st24{fill:#FF7694;}
	.st25{fill:#EA4974;}
	.st26{fill:#FFB882;}
	.st27{fill:#FF9566;}
	.st28{fill:#DB5B3E;}
	.st29{fill:#66423B;}
	.st30{fill:#7C4343;}
	.st31{fill:#EA7B59;}
	.st32{fill:#EF8F6F;}
	.st33{fill:#491D2E;}
	.st34{fill:#FFEBEB;}
	.st35{fill:#FFA33E;}
	.st36{fill:#7A545B;}
	.st37{fill:#634047;}
	.st38{fill:#F7DEB0;}
	.st39{fill:#E8C792;}
	.st40{fill:#5C95B7;}
	.st41{fill:#417EA3;}
	.st42{fill:#D8B37C;}
	.st43{fill:#FFBF4D;}
	.st44{fill:#8E3F4C;}
	.st45{fill:#6B2A37;}
	.st46{fill:#EDD3AE;}
	.st47{fill:#F4DBBD;}
	.st48{fill:#DDBC94;}
	.st49{fill:#847477;}
	.st50{fill:#FFE3BB;}
	.st51{fill:#5E343D;}
	.st52{fill:#4C2831;}
	.st53{fill:#FF9739;}
	.st54{fill:#7FB8DB;}
	.st55{fill:#5B302C;}
	.st56{opacity:0.9;}
	.st57{fill:#C94343;}
	.st58{opacity:0.9;fill:#C94343;}
	.st59{fill:#2894AD;}
	.st60{opacity:0.47;}
	.st61{fill:#9CF1FF;}
</style>
<g>
	<g>
		<g>
			<polygon class="st0" points="34.6,57.4 38.2,57.4 38.5,62 36.1,62 			"/>
			<polygon class="st0" points="13.4,57.4 9.7,57.4 9.6,62 12,62 			"/>
			<rect x="9.5" y="58.9" class="st0" width="28.8" height="2.3"/>
			<polygon class="st1" points="10.9,57.4 7.8,57.4 7.7,62 9.7,62 			"/>
			<polygon class="st1" points="37,57.4 39.9,57.4 40.1,62 38.2,62 			"/>
			<polygon class="st1" points="39.6,26.8 8.3,26.8 7.8,59.7 39.9,59.7 			"/>
			<polygon class="st2" points="36.7,26.8 25.4,26.8 10.9,59.7 29.6,59.7 			"/>
			<path class="st3" d="M33.7,52.9c-0.1-3.6-0.2-7.1-0.4-10.7c0-0.3-0.1-0.7-0.3-0.8l-18.3,1.3c0.9,5.5,0.7,11.2,0.8,16.9
				c0,0.1,0.1,0.2,0.2,0.2l0,0c0.1,0,0.2-0.1,0.2-0.2c-0.1-1.4-0.2-2.9-0.2-4.3c0-0.7,0-1.5,0.4-2.2c0.3,0.2,0.3,0.7,0.3,1.1
				c0.1,1.7,0,5.2,0.2,5.2c0.5,0,0.2-1.9,0.5-3.1c0-0.1,0-0.2,0.1-0.3c0.1-0.2,0.3-0.1,0.5,0c0.1,0.2,0.2,0.4,0.2,0.6
				c0.2,1,0.2,2,0.3,2.9c0,0.2,0.2,0.3,0.4,0.3h0.6c0.2,0,0.3-0.1,0.4-0.3c0.1-0.8,0.1-1.7,0.2-2.5c0.9,0.3,1.7,0.6,2.6,1
				c0.4,0.1,0.8,0.3,1.1,0.6c0.3,0.3,0.4,0.7,0.5,1.1c0,0.1,0.1,0.2,0.3,0.2h1.1c0.1,0,0.2-0.1,0.3-0.2c0.1-0.4,0.2-0.8,0.3-1.2
				c0.1-0.3,0.3-0.6,0.5-0.5c0.1,0.5,0.2,1.1,0.2,1.6c0,0.1,0.1,0.2,0.2,0.2h0.4c0.1,0,0.2-0.1,0.2-0.2c0.1-1.1,0.2-2.2,0.3-3.3
				c0-0.4,0.1-0.7,0.3-1c0.2-0.3,0.6-0.3,0.7,0c0.1,0.1,0.1,0.3,0.1,0.4c0.1,1.3,0,2.5,0,3.8c0,0.2,0.1,0.3,0.3,0.3h0.1
				c0.1,0,0.2-0.1,0.2-0.2c0-0.9,0.2-4.2,1-5.6c0.1-0.2,0.4-0.5,0.6-0.5c0.6,0.1,0.4,1.4,0.9,1.9c0-1.3,0-2.6,0-3.9
				c0-0.3,0.1-0.7,0.3-0.7c0.1,0,0.2,0.1,0.2,0.1c0.6,0.7,0.5,1.9,0.4,3c-0.2,1.7,0,3.9,0.2,5.8c0,0.1,0.1,0.2,0.2,0.2l0,0
				c0.1,0,0.2-0.1,0.2-0.2C33.9,58,33.7,54.7,33.7,52.9z"/>
			<ellipse transform="matrix(0.9814 -0.1922 0.1922 0.9814 -8.111 5.419)" class="st4" cx="23.9" cy="44.5" rx="10" ry="10.6"/>
			
				<ellipse transform="matrix(0.7302 -0.6832 0.6832 0.7302 -23.4024 28.0968)" class="st5" cx="23.9" cy="43.7" rx="9.5" ry="9.7"/>
			<path class="st6" d="M33.2,41.8c-1.6,2.6-4.6,4.3-7.9,4.3c-4.7,0-8.6-3.3-9.6-7.7c-1,1.5-1.5,3.3-1.4,5.3
				c0.1,5.3,4.6,9.6,9.9,9.6c5.3,0,9.5-4.3,9.4-9.6C33.5,43,33.4,42.4,33.2,41.8z"/>
			<ellipse transform="matrix(0.7302 -0.6832 0.6832 0.7302 -23.4022 28.096)" class="st7" cx="23.9" cy="43.7" rx="6.8" ry="6.9"/>
			<path class="st8" d="M23.8,44.9c-2.3,0-4.5,0.5-6.3,1.2c1.1,2.6,3.6,4.4,6.5,4.4c2.9,0,5.3-1.8,6.2-4.3
				C28.4,45.4,26.2,44.9,23.8,44.9z"/>
			<path class="st3" d="M27.6,45.8c-0.1-0.5-0.2-1-0.5-1.4c-0.2-0.4-0.6-0.8-1-1c-0.4-0.1-0.7-0.1-1.1-0.1c-0.8,0.1-1.5,0.2-2.2,0.4
				c-0.7,0.2-1.5,0.4-2.2,0.6c-0.2,0-0.3,0.1-0.5,0.2c-0.2,0.2-0.3,0.5-0.2,0.8c1,3.8,0,5,0.2,7.1c0,0.4,0.5,0.6,0.5,0.1
				c0-1.9,0.1-2.7,0.2-2.7c0.4-0.3,2.5,0.5,2.7,0.8c0.5,1.2,0.2,2.3,0.2,2.5c0,0.4,0.7,0.7,0.7,0c0-0.6-0.5-2-0.3-2.8
				c0-0.2,0.8-0.2,1,0.1c0.3,0.6,0.4,1.5,0.4,2.7c0,0.6,0.5,0.5,0.4-0.2c-0.5-2.7-0.3-3.8,0.3-4.8c0.2,0.1,0.2,0.3,0.3,0.5
				c0,0.2,0.2,0.4,0.4,0.4c0.2,1.8-0.2,2.6,0,3.8c0,0.1,0.1,0.1,0.2,0.1c0,0,0.1,0,0.1,0c0.1,0,0.2-0.1,0.2-0.3
				c0.2-1.2-0.4-1.6-0.1-3.7c0.1-0.4-0.2-0.8-0.2-1.3c0-0.4,0.1-0.9,0.4-1.2c0.1-0.1,0.2-0.2,0.3-0.3C27.7,46.1,27.7,45.9,27.6,45.8
				z"/>
			<path class="st9" d="M20.3,49.9c0.1,0,0.3,0.1,0.4,0.1c0-0.1,0-0.2,0.1-0.2c0.4-0.3,2.3,0.4,2.6,0.8c0.2,0,0.4,0,0.6,0
				c0-0.1,0-0.2,0-0.4c0-0.2,0.8-0.2,1,0.1c0,0.1,0.1,0.1,0.1,0.2c0.2,0,0.3,0,0.5-0.1c0-1.1,0.2-1.8,0.6-2.4
				c0.2,0.1,0.2,0.3,0.3,0.5c0,0.2,0.2,0.4,0.4,0.4c0.1,0.5,0.1,0.9,0.1,1.2c0.1,0,0.2,0,0.2-0.1c0-0.3,0-0.7,0.1-1.2
				c0.1-0.4-0.2-0.8-0.2-1.3c0-0.4,0.1-0.9,0.4-1.2c0.1-0.1,0.2-0.2,0.3-0.3c0.1-0.1,0-0.3,0-0.5c-0.1-0.5-0.2-1-0.5-1.4
				c-0.2-0.4-0.6-0.8-1-1c-0.4-0.1-0.7-0.1-1.1-0.1c-0.8,0.1-1.5,0.2-2.2,0.4c-0.7,0.2-1.5,0.4-2.2,0.6c-0.2,0-0.3,0.1-0.5,0.2
				c-0.2,0.2-0.3,0.5-0.2,0.8C20.4,47.6,20.4,48.8,20.3,49.9z"/>
			<ellipse transform="matrix(0.9812 -0.1932 0.1932 0.9812 -7.9892 5.4357)" class="st0" cx="23.9" cy="43.7" rx="5.9" ry="6.4"/>
			<ellipse transform="matrix(0.9812 -0.1932 0.1932 0.9812 -7.9877 5.4345)" class="st10" cx="23.9" cy="43.7" rx="5.5" ry="5.9"/>
			<path class="st11" d="M19.7,40.7c0.9,1.2,2.4,2,3.9,2c1.7,0,3.2-0.9,4-2.3c-0.9-1.2-2.4-2-3.9-2C22,38.5,20.6,39.4,19.7,40.7z"/>
			<path class="st12" d="M28.8,46c-1.2-0.3-2.6-0.5-4-0.5c-2,0-3.9,0.4-5.4,1c0.9,1.8,2.7,3,4.7,3C26.2,49.4,28.1,48,28.8,46z"/>
			<polygon class="st13" points="8.2,32.3 39.6,32.3 39.6,31.8 8.2,31.8 			"/>
			<path class="st3" d="M33.6,60.3c-0.2,0.8-0.3,1.2,0.1,1.2C34,61.5,33.6,60.3,33.6,60.3z"/>
			<path class="st3" d="M30.5,58.6c-0.2,1.2-0.3,1.6,0.1,1.7C31,60.3,30.5,58.6,30.5,58.6z"/>
			<path class="st3" d="M25,60.5c-0.2,1-0.3,1.3,0.1,1.4C25.4,61.9,25,60.5,25,60.5z"/>
			<path class="st3" d="M21.7,59.1c-0.2,1-0.3,1.3,0.1,1.4C22.1,60.5,21.7,59.1,21.7,59.1z"/>
			<path class="st3" d="M19.1,60.3c-0.2,0.7-0.3,1,0.1,1C19.5,61.3,19.1,60.3,19.1,60.3z"/>
			<polygon class="st13" points="15.5,26.8 15.5,31.9 16,31.9 16,26.8 			"/>
			<polygon class="st13" points="20.6,26.8 20.6,31.9 21.1,31.9 21.1,26.8 			"/>
			<g>
				<path class="st14" d="M22.9,29.7c0,0.9,0.6,1.6,1.4,1.6c0.8,0,1.4-0.7,1.4-1.6c0-0.9-0.6-1.6-1.4-1.6
					C23.5,28.1,22.9,28.8,22.9,29.7z"/>
				<ellipse transform="matrix(0.7032 -0.711 0.711 0.7032 -13.597 25.953)" class="st6" cx="24.3" cy="29.3" rx="1.1" ry="1.1"/>
				<path class="st5" d="M24.3,28.2c-0.4,0-0.7,0.2-0.8,0.5c0.2,0.3,0.5,0.5,0.8,0.5c0.4,0,0.7-0.2,0.8-0.5
					C24.9,28.4,24.6,28.2,24.3,28.2z"/>
			</g>
			<g>
				<ellipse class="st14" cx="28.3" cy="29.7" rx="1.4" ry="1.6"/>
				
					<ellipse transform="matrix(0.7071 -0.7071 0.7071 0.7071 -12.4113 28.5595)" class="st6" cx="28.3" cy="29.3" rx="1.1" ry="1.1"/>
				<path class="st5" d="M28.3,28.2c-0.4,0-0.7,0.2-0.8,0.5c0.2,0.3,0.5,0.5,0.8,0.5c0.3,0,0.7-0.2,0.8-0.5
					C28.9,28.4,28.6,28.2,28.3,28.2z"/>
			</g>
			<g>
				<path class="st14" d="M35.5,29.7c0,0.9,0.6,1.6,1.4,1.6c0.8,0,1.4-0.7,1.4-1.6c0-0.9-0.6-1.6-1.4-1.6
					C36.1,28.1,35.5,28.8,35.5,29.7z"/>
				
					<ellipse transform="matrix(0.7071 -0.7071 0.7071 0.7071 -9.8834 34.6624)" class="st6" cx="36.9" cy="29.3" rx="1.1" ry="1.1"/>
				<path class="st5" d="M36.9,28.2c-0.3,0-0.7,0.2-0.8,0.5c0.2,0.3,0.5,0.5,0.8,0.5c0.4,0,0.7-0.2,0.8-0.5
					C37.6,28.4,37.2,28.2,36.9,28.2z"/>
			</g>
			<rect x="30.7" y="28.2" class="st14" width="4.1" height="2.1"/>
			<rect x="30.8" y="28.3" class="st0" width="3.8" height="1.8"/>
			<rect x="31" y="28.6" class="st12" width="3.4" height="1.3"/>
			<path class="st14" d="M14.6,28.4H9.4v0.2c0,0.5,0.4,1,1,1h3.2c0.5,0,1-0.4,1-1V28.4z"/>
			<path class="st1" d="M14,28H9.9v0.2c0,0.5,0.4,1,1,1H13c0.5,0,1-0.4,1-1V28z"/>
			<g>
				<path class="st14" d="M38.3,58.6h-2.5c-0.4,0-0.8-0.3-0.8-0.8v-2.2c0-0.4,0.3-0.8,0.8-0.8h2.5c0.4,0,0.8,0.3,0.8,0.8v2.2
					C39,58.3,38.7,58.6,38.3,58.6z M35.8,55.1c-0.3,0-0.5,0.2-0.5,0.5v2.2c0,0.3,0.2,0.5,0.5,0.5h2.5c0.3,0,0.5-0.2,0.5-0.5v-2.2
					c0-0.3-0.2-0.5-0.5-0.5H35.8z"/>
			</g>
			<rect x="17" y="29.9" class="st14" width="0.8" height="0.7"/>
			<rect x="17" y="27.9" class="st14" width="0.8" height="0.7"/>
			<rect x="18.8" y="29.9" class="st14" width="0.8" height="0.7"/>
			<rect x="18.8" y="27.9" class="st14" width="0.8" height="0.7"/>
		</g>
		<g>
			<g>
				<path class="st15" d="M28.8,17.5c-4.7,0.4-6.3-1.6-6.1-3.7c0.2-2.1,1.2-2.6,1.2-2.6s-2.6,0.4-1.9-2.2s3-3.3,3-3.3
					s-1.5-0.8-0.1-2.5c1.3-1.6,5.1-2.1,6-1.6s1.1,1.1,1.1,1.1s2.6-1.3,3.7,1.6c1.1,2.9-1.1,6.4-1.1,6.4S37.6,16.8,28.8,17.5z"/>
				<path class="st16" d="M35.5,8.2c-4.1-4.1-3.2,1.1-6.4-0.4c-3.3-1.5-4.3-3.4-4.1-4.9C25,3,24.9,3.1,24.8,3.1
					C23.5,4.8,25,5.6,25,5.6s-2.3,0.7-3,3.3s1.9,2.2,1.9,2.2s-1,0.5-1.2,2.6c-0.2,2.1,1.4,4.1,6.1,3.7c8.8-0.7,5.7-6.9,5.7-6.9
					S35.1,9.6,35.5,8.2z"/>
				<path class="st17" d="M30.1,8.3c-2.4,0-4.4,6.2-3.7,9.2c0.7,0.1,1.5,0.1,2.4,0c3.1-0.2,4.8-1.2,5.5-2.3c0-0.2,0-0.4,0-0.6
					C34.3,11.5,32.4,8.3,30.1,8.3z"/>
				<path class="st18" d="M29.5,52c-1.1-11.2-2.4-18.8-2.1-19.8c0.3-1,3.2-5.9,2.3-9.7l4.1-1.8c0,0-0.9,1.6,0.7,5
					c1.6,3.4,5.7,16.3,6,25.1l-1.4,0.6l-6-12.4l-1.9,11.7L29.5,52z"/>
				<polygon class="st19" points="29.4,47.5 31.5,48.7 31.3,50.8 29.8,49.9 				"/>
				<polygon class="st19" points="37.6,47.5 40.2,47.3 40.5,49.3 38.6,50.3 				"/>
				<path class="st19" d="M28.9,29.4c4.4,0.6,6.5-1.1,6.5-1.1l-0.4-1.2l-5.6,0.2L28.9,29.4z"/>
				<path class="st19" d="M28.6,32.3c0.2-0.7,2.7-6.6,2.7-6.6l-1.2-3.4l-0.5,0.2c0.9,3.8-2.3,8.5-2.6,9.5c-0.3,1,1.3,8.8,2.4,20
					l0.7-0.5C29.7,46.9,28.4,32.9,28.6,32.3z"/>
				<path class="st19" d="M33.5,35.5L33,39.3l5.8,12.3l0.5-0.2C38,47.7,35,39.5,33.5,35.5z"/>
				<polygon class="st19" points="31.4,34.6 33.5,36.1 35.5,33.6 33.3,34.9 				"/>
				<polygon class="st20" points="27.9,48.2 30.4,61.6 30.7,61.6 32.6,49.3 				"/>
				<polygon class="st21" points="29.2,48.5 27.9,48.2 30.4,61.6 30.6,61.6 				"/>
				<polygon class="st20" points="41.2,47.5 42.9,61.6 42.6,61.6 37.2,50.2 				"/>
				<polygon class="st21" points="38.7,49.2 37.2,50.2 42.6,61.6 42.8,61.6 				"/>
				<path class="st20" d="M45.2,62.3h-2.9c0,0,0-0.9,0.4-1.1C43.1,60.9,45.2,62.3,45.2,62.3z"/>
				<path class="st20" d="M29.1,62.3h2.2c0,0-0.3-0.8-0.7-1.1C30.2,60.9,29.1,62.3,29.1,62.3z"/>
				<path class="st22" d="M33.7,21.7l-4.5,0.3c0.6,3.4-0.4,6-0.4,6s3.6,1.2,6.7,0C35.5,27.8,33.5,22.8,33.7,21.7z"/>
				<path class="st23" d="M29.9,28.2c0.2-2.2,1.3-4.1,2.7-3.9c1.2,0.2,2.2,1.8,2.6,3.6c0.1,0,0.1-0.1,0.2-0.1c0,0-2-5.1-1.8-6.2
					l-4.5,0.3c0.6,3.4-0.4,6-0.4,6S29.3,28,29.9,28.2z"/>
				<path class="st22" d="M38.5,20.1c-2.1,0-6.6-1.8-9-3.8c-0.7-0.6,2.7-2,3.4-1.3c0.7,0.6,4.8,2.7,6.4,3.1
					C40.1,18.3,40.1,20.1,38.5,20.1z"/>
				<path class="st23" d="M39.3,18.7c-4.3-0.4-4.9-2.4-7.1-4.1c-0.8,0.3-3,1.4-2.7,1.7c2.4,2,6.9,3.8,9,3.8c1.1,0,1.5-0.9,1.3-1.5
					C39.7,18.7,39.5,18.7,39.3,18.7z"/>
				<path class="st22" d="M27.7,14.5c-2.5,1.9-5.4,6.9-5.6,8c-0.2,1.1,0.7,1.8,1.2,1.3c0.5-0.5,3.8-4.5,4.6-5
					C28.7,18.3,28.4,13.9,27.7,14.5z"/>
				<path class="st23" d="M27.8,15c-0.9,0.6-4.4,7-4.9,7.5c-0.2,0.2-0.5,0.2-0.8,0.1c0,1,0.7,1.6,1.2,1.1c0.5-0.5,3.8-4.5,4.6-5
					c0.4-0.3,0.5-1.6,0.4-2.7C28.3,16.6,28,14.9,27.8,15z"/>
				<path class="st24" d="M21.3,20.8c-0.8,0.9-1.1,2.7-0.1,3.4c1,0.7,2.2,0.2,2.5-0.6c0.3-0.8,0-2-0.8-2.5
					C22.2,20.7,21.3,20.8,21.3,20.8z"/>
				<path class="st25" d="M22.2,23.2c-0.7-0.5-0.8-1.6-0.5-2.5c-0.3,0-0.4,0-0.4,0c-0.8,0.9-1.1,2.7-0.1,3.4c1,0.7,2.2,0.2,2.5-0.6
					c0,0,0-0.1,0-0.1C23.3,23.6,22.7,23.6,22.2,23.2z"/>
				<path class="st26" d="M17.4,13.7c1.2,3.8,2.2,6.4,2.9,8.6c0.2,0.6,0.8,1.9,1.9,1.5c1.1-0.4,0.3-2.8-0.5-3.8
					c-1.7-2.4-4.2-6.3-4.2-6.3L17.4,13.7z"/>
				<path class="st27" d="M21.4,22c-1-2.1-2.1-4.3-3.7-7.9l-0.2-0.3c1.2,3.8,2.2,6.4,2.9,8.6c0.2,0.6,0.8,1.9,1.9,1.5
					c0.2-0.1,0.3-0.2,0.4-0.3C22,23.2,21.6,22.4,21.4,22z"/>
				<path class="st22" d="M27.3,15c-0.1,2.4,0.6,7.1,1.2,7.5s7-0.1,7.1-0.6s-2-6.2-2.9-7c-0.5-0.5-2.2-1.1-3.2-1.1
					C28.5,13.9,27.3,14.5,27.3,15z"/>
				<path class="st23" d="M33,15.2c0.9,1.7,2.2,5.7,2.1,6.1c-0.1,0.5-5.7,1-6.3,0.6c-0.4-0.3-1.1-2.6-1.5-5c0.2,2.4,0.7,5.4,1.2,5.7
					c0.6,0.4,7.1-0.1,7.2-0.6C35.8,21.2,33.9,16.6,33,15.2z"/>
				<path class="st24" d="M30.9,16.7l1.2-2.3c-0.7-0.4-1.8-0.6-2.5-0.6c-0.5,0-1,0.2-1.5,0.4L30.9,16.7z"/>
				<path class="st26" d="M28.6,9.4c0.1,3.1,0,4.6,0,4.6l2.1,1.6l0.9-1.3L31,9.9L28.6,9.4z"/>
				<path class="st24" d="M37.7,17c-0.6,1-0.4,2.9,0.7,3.4c1.2,0.4,2.2-0.3,2.3-1.2c0.1-0.8-0.5-1.9-1.3-2.2
					C38.6,16.6,37.7,17,37.7,17z"/>
				<path class="st25" d="M38.6,18.7c-0.6-0.2-0.9-0.8-1-1.5c-0.5,1.1-0.3,2.8,0.8,3.2c1.2,0.4,2.2-0.3,2.3-1.2c0-0.3,0-0.6-0.1-0.9
					C40.2,18.7,39.4,19,38.6,18.7z"/>
				<path class="st26" d="M40.7,9.8c-0.6,4.7-2.4,7.6-2.4,7.6s-0.2,1.6,0.7,2c0.9,0.4,1.8-1.6,1.9-2.6C41.1,15.1,41,10,41,10
					L40.7,9.8z"/>
				<path class="st27" d="M40,16.4c0.3-1.4,0.7-5,0.8-6.5l-0.1-0.1c-0.6,4.7-2.4,7.6-2.4,7.6s-0.2,1.1,0.3,1.7
					C39.2,18.6,39.8,17.2,40,16.4z"/>
				<path class="st4" d="M32.7,14.8c-0.2-0.2-0.6-0.4-1.1-0.6l0,0l-0.5-3.5c-0.8-0.5-1.7-0.7-2.5-0.7c0.1,2.4,0,3.7,0,3.9
					c-0.1,0-0.1,0-0.2,0.1c0,0,0,0,0,0c-0.1,0-0.2,0.1-0.3,0.1c0,0,0,0,0,0c-0.3,0.1-0.5,0.3-0.7,0.4c-0.3,0.2-0.6,0.5-0.9,0.8
					c0.1,0.2,0.2,0.4,0.4,0.7c1.5,2.3,4.1,3.4,5.8,2.5c1-0.5,1.5-1.5,1.5-2.8c-0.7-0.4-1.2-0.7-1.4-0.9
					C32.9,14.9,32.8,14.9,32.7,14.8z"/>
				<path class="st4" d="M33.9,11.9c-0.1-0.3-0.1-0.7-0.1-1c0-0.6,0.1-1.2,0.3-1.6L33,8.2l-0.2,0l0,0l0,0l0,0l0,0L32,9.9L33.9,11.9z
					"/>
				<path class="st26" d="M31.7,13.7c-2.3-1.1-3.2-1.9-3.5-4.3c-0.3-2.4,0.5-4.9,2.8-4.6c2.3,0.2,2.3,2.4,2.4,3.9
					C33.5,12.1,31.7,13.7,31.7,13.7z"/>
				<path class="st15" d="M31.5,3.7c0,0-1.6-1.6-4,0.9C25.1,7,28.8,11,28.8,11C28.3,5.5,32,4.3,31.5,3.7z"/>
				<path class="st26" d="M28.9,11.2c-1.6-0.3-2.5-1.8-1.7-2.5c0.8-0.7,1.4,0.7,1.6,1.3S28.9,11.2,28.9,11.2z"/>
				<path class="st28" d="M28.5,10.6c-0.9-0.2-1.4-1-1-1.4c0.4-0.4,0.8,0.4,0.9,0.7C28.5,10.2,28.5,10.6,28.5,10.6z"/>
				<path class="st26" d="M28.6,10.8c-0.6-0.1-1-0.7-0.7-1c0.3-0.3,0.5,0.3,0.6,0.5C28.6,10.5,28.6,10.8,28.6,10.8z"/>
				<g>
					<path class="st26" d="M18.1,15c-0.5-0.5-1.4-0.8-1.6-1.2c-0.1-0.3,0.4-1.1,0.6-1.1c0.2,0,1.2,1.9,1.2,1.9L18.1,15z"/>
					<path class="st26" d="M18,14.1c-0.1-0.6,0-1.6,0-1.7c0-0.2-0.2-0.1-0.3,0.3c-0.1,0.5,0,0.6-0.2,0.7C17.2,13.5,18,14.4,18,14.1z
						"/>
					<path class="st26" d="M17.2,13.4C17,13,16.6,12.1,16.7,12c0.1-0.1,0.8,1.2,0.8,1.2L17.2,13.4z"/>
					<path class="st26" d="M16.8,13.6c-0.2-0.3-0.8-1-0.7-1.1c0.1-0.1,1,0.9,1,0.9L16.8,13.6z"/>
					<path class="st26" d="M16.6,14c-0.4-0.3-1-0.8-0.9-0.9c0.1-0.1,1.2,0.7,1.2,0.7L16.6,14z"/>
				</g>
				<g>
					<path class="st26" d="M41,11.5c0.2-0.7,1-1.5,1-1.9c0-0.3-1-0.7-1.2-0.6c-0.2,0.2-0.1,2.2-0.1,2.2L41,11.5z"/>
					<path class="st26" d="M40.7,10.7c-0.2-0.6-0.8-1.3-0.9-1.5c-0.1-0.2,0.2-0.2,0.5,0.1c0.4,0.3,0.4,0.5,0.6,0.5
						C41.2,9.7,40.8,11,40.7,10.7z"/>
					<path class="st26" d="M41.1,9.5c0-0.4,0-1.5-0.2-1.5c-0.2,0-0.2,1.5-0.2,1.5L41.1,9.5z"/>
					<path class="st26" d="M41.6,9.5c0.1-0.4,0.4-1.4,0.2-1.4c-0.2,0-0.6,1.4-0.6,1.4L41.6,9.5z"/>
					<path class="st26" d="M42,9.7c0.3-0.5,0.6-1.3,0.4-1.3c-0.2,0-0.9,1.4-0.9,1.4L42,9.7z"/>
				</g>
			</g>
			<g>
				<path class="st29" d="M33,9.1c0-0.3-0.2-0.6-0.4-0.6c-0.2,0-0.4,0.3-0.4,0.6c0,0.3,0.2,0.6,0.4,0.6C32.9,9.7,33,9.4,33,9.1z"/>
				<path class="st29" d="M30.8,9.1c0-0.4-0.2-0.7-0.4-0.7c-0.2,0-0.4,0.3-0.4,0.7c0,0.4,0.2,0.7,0.4,0.7
					C30.6,9.8,30.8,9.5,30.8,9.1z"/>
				<path class="st29" d="M29.5,9c0,0,0.8-0.5,1.4-0.4c0,0-0.2-0.3-0.7-0.2C29.8,8.4,29.5,9,29.5,9z"/>
				<path class="st29" d="M33.3,8.8c0,0-0.7-0.4-1.3-0.2c0,0,0.1-0.3,0.6-0.3C33.1,8.3,33.3,8.8,33.3,8.8z"/>
				<g>
					<path class="st30" d="M30.6,6.9L30.6,6.9c-0.2,0.6-0.7,1-1.1,1.1l-0.1-0.3C29.7,7.8,30.4,7.4,30.6,6.9z"/>
				</g>
				<g>
					<path class="st30" d="M32.1,6.8c0.3,0.6,1,0.9,1.1,0.9L33.2,8C33,8,32.3,7.6,32.1,6.8L32.1,6.8z"/>
				</g>
				<path class="st31" d="M32.1,10.2C32.1,10.2,32.1,10.2,32.1,10.2c-0.1,0.3-0.3,0.4-0.6,0.3c-0.1,0-0.2-0.1-0.3-0.3
					c0,0.2,0.1,0.4,0.3,0.5c0.2,0.1,0.5,0,0.6-0.3C32.1,10.4,32.1,10.3,32.1,10.2z"/>
				<path class="st32" d="M31.7,12.5c0-0.1-0.1,0-0.3,0c-0.2,0-0.3-0.1-0.3,0c0,0.1,0.1,0.2,0.3,0.2C31.6,12.7,31.7,12.6,31.7,12.5z
					"/>
				<path class="st33" d="M31.8,11.8c0.1-0.3,0-0.5-0.2-0.6c-0.2-0.1-0.4,0.1-0.5,0.4c-0.1,0.3,0,0.5,0.2,0.6
					C31.5,12.2,31.8,12.1,31.8,11.8z"/>
				<path class="st34" d="M31.6,11.3c-0.1,0-0.3,0.1-0.3,0.3c0,0,0,0,0,0.1c0.1,0,0.1,0,0.2,0c0.1,0,0.2,0,0.3,0
					C31.7,11.4,31.7,11.3,31.6,11.3z"/>
			</g>
		</g>
		<g>
			<path class="st35" d="M49.9,35c-1.4-0.7-1.8-0.8-1.7-1.5c0.1-0.7,0.6-3.1,1.1-3.2c0.5-0.1,1.5,0.2,1.5,0.2L49.9,35z"/>
			
				<rect x="77.4" y="56.5" transform="matrix(-1 -1.224647e-16 1.224647e-16 -1 164.0863 115.6272)" class="st36" width="9.2" height="2.7"/>
			<polygon class="st37" points="77.4,56.5 81.7,56.5 84.4,59.2 77.4,59.2 			"/>
			
				<rect x="77.4" y="58.1" transform="matrix(-1 -1.224647e-16 1.224647e-16 -1 164.0863 117.2928)" class="st37" width="9.2" height="1"/>
			<path class="st27" d="M55,28.3c-0.8,3.1-1.2,4-1.2,4l0.6,4.5c0,0,4-1,4-4.2C58.4,29.3,55,28.3,55,28.3z"/>
			<path class="st4" d="M55.6,33.3c0-1.2-0.5-2.1-1.1-2.8c0.2-0.6,0.4-1.3,0.6-2.2c0,0,3.4,1.1,3.4,4.3c0,3.2-4,4.2-4,4.2L54.4,36
				C55,35.3,55.6,34.5,55.6,33.3z"/>
			<path class="st38" d="M56.5,22.9c-1.8,2.9-2.3,7.2-2.3,7.2l4.5,4.7c0,0,2-7.8,0.7-10.1C58.1,22.3,56.5,22.9,56.5,22.9z"/>
			<path class="st39" d="M58.7,34.8l-3.5-3.7c0.1-0.8,0.5-4.8,2.1-7.6c0,0,0.5-0.2,1.2,0.1c0.3,0.3,0.5,0.6,0.8,1.1
				C60.7,27,58.7,34.8,58.7,34.8z"/>
			<path class="st40" d="M69.2,20.7c4.5,4.6-0.5,29.3-0.5,29.3l2,12h-0.3l-6.1-11.8l-1.9-6.7l-1.2,0.1L56,48.9L54.2,62H54l-2.1-14.3
				c0,0,6-10.1,6-10.7c0-0.6-2.3-11.4-1.8-13.7c0.6-2.2,6.4-4.3,8.2-4.4C66,18.8,68.2,19.7,69.2,20.7z"/>
			<path class="st41" d="M68.7,50l2,12h-0.1c-0.9-3-3.7-12.6-3.7-12.6s-1.1-13.9-1.6-17.5c-1.1-8.8,3.1-11.9,3.8-11.1
				C73.7,25.2,68.7,50,68.7,50z"/>
			<polygon class="st41" points="54.6,48 59.7,43.1 58.3,42 61.6,42.9 65.4,42.1 62.5,43.9 62.1,43.7 61.1,43.8 56,48.9 54.2,62 
				54,62 53.9,61.6 			"/>
			<path class="st39" d="M65.6,25.3c-0.6,1.6,0,8,1,8.8c0.9,0.8,3,1.5,3.4,0.2c0.3-1.4,0.9-4.8,0.5-6.8
				C70.2,25.6,65.6,25.3,65.6,25.3z"/>
			<path class="st42" d="M70.3,32.3c0,0-5.1-2.4-4.8-5.6l5.3,2.3L70.3,32.3z"/>
			<path class="st38" d="M51.4,62.4h3.2c0,0,0.2-1.2-0.3-1.4C53.7,60.8,51.4,62.4,51.4,62.4z"/>
			<path class="st27" d="M69.8,21.9c3.2,1.1,6.1,4.2,7.8,7l-4.7,3.2c-1.2-2.4-6.2-4.8-6.2-4.8S66.6,20.8,69.8,21.9z"/>
			<path class="st43" d="M77.7,27.3c0,0,2.1,5.5,1.9,10.8l-5.3-1c-0.3-0.9-3.1-5.9-3.1-5.9L77.7,27.3z"/>
			<path class="st35" d="M78.1,34.9c-0.2-2.6-0.9-4.9-1.9-6.7l1.5-0.9c0,0,2.1,5.5,1.9,10.8l-5.3-1c-0.1-0.3-0.5-1.2-1.1-2.2
				L78.1,34.9z"/>
			<path class="st44" d="M60.8,39.6L60.8,39.6c0.4-0.6,2.1,0.5,2.4,0.8l8.8,6.7c0.3,0.3,0.4,0.8,0.1,1.1l0,0
				c-0.3,0.4-0.8,0.4-1.1,0.2l-8.8-6.7C61.9,41.4,60.4,40.2,60.8,39.6z"/>
			<path class="st45" d="M60.8,39.6c0.4,0.5,1,1.1,1.3,1.3l8.8,6.7c0.3,0.3,0.8,0.2,1.1-0.2c0-0.1,0.1-0.1,0.1-0.2
				c0.3,0.3,0.3,0.7,0,1c-0.3,0.4-0.8,0.4-1.1,0.2l-8.8-6.7C61.9,41.4,60.4,40.2,60.8,39.6C60.8,39.6,60.8,39.6,60.8,39.6z"/>
			<path class="st1" d="M71.9,47.7c0,0.3-0.2,0.5-0.5,0.5S71,47.9,71,47.7c0-0.3,0.2-0.5,0.5-0.5S71.9,47.4,71.9,47.7z"/>
			<polygon class="st46" points="72,49.1 71,49.1 71.3,47.5 71.6,47.5 			"/>
			<path class="st1" d="M63.3,62.3h19.4c0,0,1.3-6.7-6.8-6.7c-1.8,0-0.5-2.6,5-2.6S85.7,36,85.7,36l-12.9,0v11.8h0.8v1h-15
				c-0.6,0-1.1,0.5-1.1,1.1l0,0c0,0.6,0.5,1.1,1.1,1.1h0.1c0,0,0.8,9.4,8.5,9.4C67.2,60.4,63.3,61.1,63.3,62.3z"/>
			<path class="st46" d="M73,48.8L73,48.8l0.6,0v-1H73v-0.3h-0.2V46c0.9,1.4,5.7,2.6,8-0.1c1.2-1.5,2-7.2,1.8-9.9h3.1
				c0,0,0.8,17.1-4.7,17.1s-6.8,2.6-5,2.6c8.1,0,6.8,6.7,6.8,6.7H63.3c0-1.2,3.9-2,3.9-2c-7.7,0-8.5-9.4-8.5-9.4h-0.1
				c-0.6,0-1-0.4-1.1-1h14.3C72.5,50,73,49.5,73,48.8z"/>
			<path class="st47" d="M63,51.7c6.6,1.4,10.7,4.2,9.8,6.4c-0.6,1.3-3,2.2-6.3,2.4c0.4-0.1,0.7-0.2,0.7-0.2c-7.2,0-8.4-8.4-8.5-9.3
				C60.1,51.2,61.6,51.4,63,51.7z"/>
			<path class="st48" d="M83.5,51.4c-0.6,1-1.5,1.7-2.5,1.7c-2.1,0-3.6,0.4-4.5,0.9c0.4-3.2-3.4-5.1-3.4-5.1h0.6v-1
				C73.6,47.7,76.7,52.1,83.5,51.4z"/>
			<g>
				<path class="st38" d="M75.4,24.9c-0.1,0.2-4.4,6-4.4,6s-4.8-2.5-5.4-3.5c-0.5-1,0.8-6.5,2.2-6.8C70.1,20.2,75.4,24.9,75.4,24.9z
					"/>
				<path class="st39" d="M68.1,20.6c2.4,0,7.3,4.2,7.3,4.2c0,0-0.3,0.3-0.6,0.8C73.6,24.4,70.7,21.2,68.1,20.6z"/>
				<path class="st39" d="M71.5,30.1c-0.4,0.4-0.5,0.8-0.5,0.8s-4.8-2.2-5.4-3.5c0-0.1-0.1-0.1-0.1-0.2
					C66.2,27.9,70.8,29.8,71.5,30.1z"/>
			</g>
			<path class="st43" d="M55.1,37.5c2.1-1.1,0.4-5.6-0.8-6.4c-1.2-0.7-2.9-1.3-4,0.3C49.2,33,49.8,40.1,55.1,37.5z"/>
			<path class="st35" d="M49.8,31.2c2.7-2.5,2.2,4.6,5.4,3c0.3-0.1,0.5-0.3,0.6-0.6c0.5,1.5,0.5,3.2-0.7,3.8
				C50.2,39.9,49,33.4,49.8,31.2z"/>
			<path class="st38" d="M57.4,29.8c0,0-1.2-3.9-1.1-6.9c1.1-2.1,6.4-3.9,8-4c0.8,0,1.8,0.2,2.6,0.5C64,22.3,64.2,29,64.2,29
				L57.4,29.8z"/>
			<path class="st39" d="M56.3,22.8c0.2-0.4,0.6-0.8,1-1.1c-0.3,0.3-0.5,0.5-0.7,0.8c-0.1,3.1,1,7,1,7l6.6-0.8c0,0.2,0,0.2,0,0.2
				l-6.9,0.9C57.3,29.9,56.2,25.9,56.3,22.8z"/>
			<g>
				
					<rect x="49.7" y="28" transform="matrix(-0.9576 -0.288 0.288 -0.9576 89.0085 77.9525)" class="st49" width="1.2" height="8.9"/>
				<path class="st49" d="M51.3,25.8l-0.5,1.8l1.7,0.5l0.5-1.8c0.4,0.5,0.5,1.1,0.3,1.7c-0.3,1-1.3,1.6-2.2,1.3
					c-0.9-0.3-1.4-1.3-1.1-2.3C50.3,26.4,50.7,26,51.3,25.8z"/>
				<path class="st49" d="M49.2,38.6l0.4-1.2L48.1,37l-0.4,1.2c-0.3-0.4-0.4-0.9-0.2-1.4c0.2-0.8,1-1.3,1.7-1.1
					c0.7,0.2,1.1,1,0.9,1.9C50,38.1,49.6,38.4,49.2,38.6z"/>
			</g>
			<path class="st26" d="M64.4,19.8l-4-5.2l-5.1,4.2l2.4,4.6C57.7,23.3,62.1,25.5,64.4,19.8z"/>
			
				<rect x="72.7" y="36.1" transform="matrix(-1 -1.224647e-16 1.224647e-16 -1 158.227 73.3195)" class="st46" width="12.8" height="1.2"/>
			<polygon class="st48" points="58.7,51 72.5,51 58.8,51.5 			"/>
			<path class="st50" d="M72.7,35.4h13.1c0.3,0,0.5,0.2,0.5,0.5v0.2c0,0.3-0.2,0.5-0.5,0.5l-13.1,0c-0.3,0-0.5-0.2-0.5-0.5v-0.2
				C72.2,35.6,72.4,35.4,72.7,35.4z"/>
			<path class="st1" d="M72.2,36c0-0.3,0.3-0.5,0.6-0.5h12.9c0,0,0.1,0,0.1,0c0,0.3-0.3,0.5-0.6,0.5L72.2,36
				C72.3,36,72.2,36,72.2,36z"/>
			<path class="st26" d="M75.3,25.8c0.4,0.4,0.9,1,1.3,1.6l-3,1.8l-0.4-0.4L75.3,25.8z"/>
			<path class="st4" d="M58.7,27.4c-2-0.6-2.4-4.5-2.4-4.5c0,0,0,0,0,0c0.1-0.2,0.2-0.4,0.4-0.6c0,0,0,0,0,0c0-0.1,0.1-0.1,0.1-0.2
				c0,0,0,0,0,0c0,0,0.1-0.1,0.1-0.1l-0.5-0.9c0.2-1,0.6-2.1,1.1-3.1c0.3-0.7,0.7-1.4,1.1-2l1.7-1.4l3.4,4.4c0,0,0,0,0,0
				c0,0,0.1,0,0.1,0c0,0,0.1,0,0.1,0c0,0,0,0,0.1,0c0.1,0,0.1,0,0.2,0c0.1,0,0.2,0,0.3,0c0,0,0.1,0,0.1,0c0.1,0,0.1,0,0.2,0
				c0.1,0,0.1,0,0.2,0c0,0,0.1,0,0.1,0c0.1,0,0.2,0,0.2,0c0,0,0.1,0,0.1,0c0.1,0,0.2,0,0.3,0.1c0,0,0,0,0,0c0.1,0,0.2,0,0.3,0.1
				c0,0,0,0,0,0c0.1,0,0.2,0.1,0.3,0.1c0,0,0,0,0,0c0.1,0,0.2,0.1,0.3,0.1c0,0,0,0,0,0c0.2,0.1,0.3,0.1,0.5,0.2
				c-0.2,0.8-0.5,1.7-0.9,2.6C64.3,26.6,61.3,28.1,58.7,27.4z"/>
			<path class="st51" d="M60.4,13.3c3.6,4.6,2.3,7.5,1.5,10.5c-0.1,0.5-4.5,2.1-5.1,1.9c-0.7-0.2-1.6-4.8-2.2-5.6c-0.6-0.9-2-4-2-4
				L60.4,13.3z"/>
			<path class="st52" d="M60.4,19.5c0-2.3-0.7-4.3-1.8-5.6l1.8-0.7c3.6,4.6,2.5,7.4,1.8,10.4c-0.1,0.4-2.5,1.4-4.1,1.8
				C59.4,24.4,60.4,22.1,60.4,19.5z"/>
			<path class="st51" d="M51,14c0.3-0.5,1.1-0.9,1.1-0.9l-0.5-0.2c0.4-0.5,1.6-0.9,1.6-0.9l-0.4-0.4c0.5-0.3,2-0.3,2-0.3l-0.1-0.4
				c0.9-0.3,1.9,0,1.9,0l-0.3-0.6c0,0,1.5,0,2.9,0.8c1.5,0.7,1.4,2.1,1.4,2.1s1.7,1.6,0.7,3.8L55,20.4c0,0-1.6-4.2-2.2-4.2
				c-0.5,0-0.5,1-0.5,1c-0.7-0.4-1-2-1-2l-0.3,0.4c-0.3-0.9,0.5-1.7,0.5-1.7L51,14z"/>
			<path class="st52" d="M58.8,16.3c0-2.7-2.2-4.8-5-4.8c-0.4,0-0.7,0-1.1,0.1l0,0c0.5-0.3,2-0.3,2-0.3l-0.1-0.4
				c0.9-0.3,1.9,0,1.9,0l-0.3-0.6c0,0,1.5,0,2.9,0.8c1.5,0.7,1.4,2.1,1.4,2.1s1.7,1.6,0.7,3.8l-3,1.7C58.6,18,58.8,17.2,58.8,16.3z"
				/>
			<path class="st26" d="M61.5,17.4c0.9-0.8,1-2.3,0.6-2.7c-0.5-0.4-1.3-0.6-1.2,0.8C61,16.8,61.5,17.4,61.5,17.4z"/>
			<path class="st26" d="M58.1,14.1c0.4,0,0.7,0.2,0.9,0.4c1,1.4,1.9,3,1.5,3.6c-0.4,0.7-4.8,2.6-5.3,2.3c-0.3-0.2-1.2-1.9-1.8-3.1
				c-0.4-0.9-0.1-1.9,0.8-2.3C55.4,14.5,56.6,14.1,58.1,14.1z"/>
			<path class="st28" d="M61.5,16.8c0.6-0.5,0.7-1.5,0.4-1.7c-0.3-0.3-0.9-0.4-0.8,0.5C61.2,16.4,61.5,16.8,61.5,16.8z"/>
			<path class="st26" d="M61.5,16.9c0.4-0.4,0.5-1.1,0.3-1.2c-0.2-0.2-0.6-0.3-0.5,0.4S61.5,16.9,61.5,16.9z"/>
			<polygon class="st41" points="66.8,37.2 57.8,36.9 57.8,37.2 57.5,37.8 67.2,39 			"/>
			<polygon class="st39" points="60.6,37.2 61.8,37.2 61.9,38 60.6,37.7 			"/>
			<path class="st41" d="M63.6,30.7c-0.1-0.5,0.1-1,0.4-1c0.3,0,0.6,0.4,0.7,0.9c0.1,0.5-0.1,1-0.4,1C64,31.7,63.7,31.3,63.6,30.7z"
				/>
			<path class="st39" d="M63.8,30.6c0-0.3,0.1-0.6,0.3-0.6c0.2,0,0.4,0.3,0.4,0.6c0,0.3-0.1,0.6-0.3,0.6
				C64,31.2,63.8,30.9,63.8,30.6z"/>
			<path class="st41" d="M57.3,31.3c-0.1-0.5,0.1-1,0.4-1c0.3,0,0.6,0.4,0.7,0.9c0.1,0.5-0.1,1-0.4,1C57.6,32.2,57.3,31.8,57.3,31.3
				z"/>
			<path class="st39" d="M57.4,31.1c0-0.3,0.1-0.6,0.3-0.6c0.2,0,0.4,0.3,0.4,0.6c0,0.3-0.1,0.6-0.3,0.6
				C57.6,31.7,57.5,31.4,57.4,31.1z"/>
			<path class="st47" d="M78.3,62.3h-15c0-1.2,3.6-1.9,3.9-2c0.9-0.1,1.9-0.2,2.9-0.2C74.1,60.2,77.4,61.1,78.3,62.3z"/>
			<polygon class="st53" points="85.7,56.1 86.7,55.7 86.7,59.9 85.7,59.5 			"/>
			<path class="st54" d="M81.3,34.2c1.4-1.9,2.2-2.4,1.4-2.8S81.3,34.2,81.3,34.2z"/>
			<path class="st54" d="M82.5,29.9c1-1.4,1.6-1.7,1-2C82.9,27.5,82.5,29.9,82.5,29.9z"/>
			<path class="st54" d="M80.1,31.6c0.1-1.7,0.4-2.3-0.3-2.2C79.1,29.4,80.1,31.6,80.1,31.6z"/>
			<path class="st54" d="M83.5,34.4c1.4-0.8,2.1-0.9,1.7-1.4C84.7,32.4,83.5,34.4,83.5,34.4z"/>
			<g>
				<path class="st55" d="M55,18.2l0.7-0.3c0.2,0.3,0.3,0.8,0,1C55.4,19,55.1,18.5,55,18.2z"/>
				<path class="st51" d="M55.7,16.6c0.1,0.1,0.5,1,0.5,1.1c0,0.1-1.6,0.9-1.7,0.8c-0.1,0-0.5-1-0.5-1.1
					C53.9,17.2,55.6,16.5,55.7,16.6z"/>
				<path class="st31" d="M56.1,17.2c0.2,1.3,0.6,3.5,0.8,3.8c0.1,0.3,0.9-0.9,1-1.1c0-0.2-1.6-2.7-1.6-2.7L56.1,17.2z"/>
				<path class="st26" d="M56.2,17c0.2,1.2,0.6,3.3,0.7,3.5c0.1,0.2,0.9-0.7,0.9-1c0-0.2-1.5-2.6-1.5-2.6L56.2,17z"/>
				<path class="st55" d="M57.3,17.4L58,17c0.2,0.3,0.3,0.8,0,1C57.6,18.2,57.3,17.6,57.3,17.4z"/>
				<path class="st51" d="M58.3,15.5c0.1,0.1,0.5,1,0.5,1.1c0,0.1-2.1,0.9-2.2,0.9c-0.1,0-0.5-1-0.5-1.1
					C56.1,16.3,58.2,15.4,58.3,15.5z"/>
				<g class="st56">
					<path class="st57" d="M59.1,19.8l0.2,0.1c0,0.7-0.7,1.2-2.1,1.8l0-0.1C58.5,21.1,59.1,20.4,59.1,19.8z"/>
				</g>
				<path class="st58" d="M58.1,21.6c0,0,0.2,0.1,0.4,0c0.2-0.1,0.3-0.3,0.2-0.3c0,0-0.2,0.1-0.3,0.2C58.2,21.6,58,21.6,58.1,21.6z"
					/>
			</g>
			<path class="st43" d="M50.6,32.8c0-1.8,0.3-2,0.6-2.1c0.3-0.1,0.7-0.2,0.8,0.4c0.1,0.5-0.1,2.3-0.4,2.5
				C51.3,33.8,50.6,33.4,50.6,32.8z"/>
			<path class="st43" d="M49.8,30.1c1.2,0.1,1.3,0.3,1.3,0.7s0,0.7-0.4,0.8s-1.5-0.2-1.6-0.5C49,30.8,49.4,30.1,49.8,30.1z"/>
			<path class="st43" d="M49.3,31.5c1.2,0.1,1.3,0.3,1.3,0.7c0,0.3,0,0.7-0.4,0.8s-1.5-0.2-1.6-0.5C48.6,32.2,49,31.5,49.3,31.5z"/>
			<path class="st43" d="M48.9,32.9c1.2,0.1,1.3,0.3,1.3,0.7c0,0.3,0,0.7-0.4,0.8s-1.5-0.2-1.6-0.5C48.1,33.6,48.5,32.9,48.9,32.9z"
				/>
		</g>
		<g>
			<path class="st59" d="M86.7,55c-6.7,2.1-13.3-0.7-15.8-0.3C56,56.9,57,55.1,49.3,54.4C44,54,37.5,56.8,32.1,56.7
				c-5.3-0.1-9.8-2.7-14.2-2.9C9.2,53.4,2.5,55,2.5,55l0,7.4l84.2,0V55z"/>
			<g class="st60">
				<path class="st59" d="M77.7,55.5c-2.9,2.3-7.2,4.6-12.4,6.8h21.4V55C83.5,55.9,80.4,55.9,77.7,55.5z"/>
				<path class="st59" d="M23.3,54.9c-1.8-0.5-3.6-1-5.4-1.1C9.2,53.4,2.5,55,2.5,55v7.4h9.8C14.3,59.9,18.2,57.3,23.3,54.9z"/>
			</g>
			<path class="st61" d="M15.7,54.5c4.7,0.2,10,2.1,15.7,2.2c5.7,0.1,12.1-2.1,17.7-1.6c8.2,0.7,6.2,1.9,22-0.4
				c2.4-0.3,9.2,2.5,15.6,1.4v-1.4c-6.7,2.1-13.3-0.7-15.8-0.3C56,56.8,57,54.9,49.3,54.3c-5.3-0.5-11.8,2.4-17.2,2.3
				c-5.3-0.1-9.8-2.7-14.2-2.9c-8.7-0.4-15.4,1.2-15.4,1.2v0.4C5.5,54.8,10.2,54.3,15.7,54.5z"/>
		</g>
	</g>
	<polygon class="st43" points="-0.3,62.4 48,66.5 100,62.4 	"/>
</g>
</svg>
