<?xml version="1.0" encoding="utf-8"?>
<!-- Generator: Adobe Illustrator 22.1.0, SVG Export Plug-In . SVG Version: 6.00 Build 0)  -->
<svg version="1.1" id="layer" xmlns="http://www.w3.org/2000/svg" xmlns:xlink="http://www.w3.org/1999/xlink" x="0px" y="0px"
	 viewBox="0 0 652 157.1" style="enable-background:new 0 0 652 157.1;" xml:space="preserve">
<style type="text/css">
	.st0{fill:#ED1D24;}
	.st1{fill:#00A1E4;}
</style>
<g>
	<path class="st0" d="M79,81.3v25c0,5.7-4.3,10.8-11.1,10.8H57.4c-6.7,0-11-5.3-11-10.8V27c0.3-6.6,5.2-13.9,14-14h38.9
		c16.8,0.1,27.9,12.6,30,26c1.3,6.9-0.8,14.4-4.2,20c-4.3,5.8-9.5,11.3-14.1,17.3c-5.3,8.1-3.2,17,1.4,22.3l32.6,35.9
		c4.4,5.7-3.4,12.4-8.4,6.8l-31.9-35.2c-9.6-11-10.1-26.1-1.8-37.2c4.8-5.9,10.5-10.7,14.4-18c1.5-3.3,1.6-5.5,1.6-8.3
		c-0.3-9.1-7.9-18.7-19.8-18.7H61.3c-2,0-3.9,1.4-3.9,3.9l-0.2,78.4H68v-25l3.5-4.4v-3.4h3.8v3.4L79,81.3z"/>
	<path class="st0" d="M73.4,38.9c5.2,6.7,13.5,15.1,13.5,20.9s-5,10.6-11.5,11.2v-8.4h-3.8V71c-5.5-0.4-11.5-5.5-11.3-11.2
		C60.4,54.2,68.5,45.3,73.4,38.9"/>
	<path class="st1" d="M611.2,50.8h0.3c1,0,1.8,0,2.3,0.3c0.5,0.1,0.9,0.5,1.1,0.9c0.4,0.5,0.5,1,0.5,1.6c0,0.8-0.3,1.4-0.8,1.9
		c-0.4,0.4-1,0.8-1.9,0.9c0.4,0.3,0.8,0.5,1,0.8c0.4,0.4,0.8,0.9,1.1,1.6l1.3,2h-2.4l-1.4-2.1c-0.5-0.9-0.9-1.3-1.1-1.5v-2.1
		c0.6,0,1.1,0,1.3-0.1c0.3,0,0.5-0.3,0.6-0.4c0.1-0.3,0.1-0.5,0.1-0.8c0-0.4,0-0.6-0.3-0.9c-0.1-0.1-0.4-0.3-0.8-0.4h-1v-1.7H611.2z
		 M611.2,65.3L611.2,65.3c5.4,0,9.7-4.3,9.7-9.6c0-5.3-4.3-9.6-9.6-9.6h-0.1v1.5h0.1c4.5,0,8.1,3.7,8.1,8.1s-3.5,8.1-8.1,8.1h-0.1
		V65.3z M607.2,60.7v-10h4v1.6h-0.4h-1.6v2.5h1.5h0.5v2.1c-0.1-0.3-0.4-0.4-0.6-0.4c-0.1-0.1-0.5-0.1-1-0.1h-0.4v4.2L607.2,60.7
		L607.2,60.7z M611.2,46.1c-5.2,0.1-9.3,4.4-9.3,9.6c0,5.3,4.2,9.5,9.3,9.6v-1.5c-4.3-0.1-7.8-3.7-7.8-8.1c0-4.3,3.5-7.9,7.8-8.1
		V46.1z"/>
	<path class="st1" d="M113.7,145.8h27.2c6.7,0,10.2-7.7,5.9-12.7l-16.6-18l-16.5-18.2V76.1c4.4-5.2,9-10.3,13.2-15.8
		c3.2-5.5,5-12,4.8-18.4c-0.5-9.3-5-18.5-12.2-23.9c-1.8-1.5-3.8-2.6-5.8-3.7V2.5c4.4,1.5,8.7,3.8,12.6,6.8
		c10.3,8.2,16.4,20.4,16.4,33.7c0,9.3-2.3,17-8.1,25.2c-3.8,5.2-8.7,9.5-12.5,14.4c-1.8,2.5-2,5,0.3,8.1l32.9,35.3
		c2.4,3,3.8,6.4,4.2,10v4.2c-0.9,8.8-7.9,16.6-18.5,16.6h-27.2L113.7,145.8L113.7,145.8z M103.5,145.8h10.2v10.8h-10.2V145.8z
		 M113.7,96.9L113.7,96.9c-4.9-5.8-4.8-14.5-0.6-20.2c0.3-0.3,0.4-0.5,0.6-0.6V96.9z M113.7,14.3c-3.3-1.6-6.7-2.6-10.2-3V0.2
		c3.5,0.4,6.9,1.1,10.2,2.3V14.3z M103.5,115.8c0.6,0.4,1.3,0.9,1.8,1.3c2.1,2,3.8,4.9,3.8,7.7v5.2h-5.5v-14.2H103.5z M103.5,144
		v-12.2h0.1c1.9,2.4,3.9,5.3,4.2,7.8C107.9,142,105.9,144,103.5,144 M50.7,0c-11,3.8-18.9,15-18.9,27.1v101.1v0.8
		c0,4.3,2,8.7,5.2,11.9c3.3,3.3,7.8,5,12.5,5h54.1v10.8H49.4h-0.9c-7.3,0-14.4-3-19.4-8.1c-5.2-5-8.2-12.1-8.2-19.7v-0.8V26.9
		C20.9,14.6,31.6,0,50.7,0 M103.5,11.3V0.2c-1.4-0.1-2.8-0.1-4.2-0.1H60.5c-15.3,0-26.8,12.2-26.8,27v97.8v2.8v0.5
		c-0.3,6.3,3.4,11.6,8.6,14.1c2.1,1,4.2,1.5,7.2,1.6h0.4h28.9c6.9,0,11-5.2,11.2-10.8v-7.6h8.2v4.4h5.4v-14.1
		c-1.6-0.9-3.7-1.5-6.4-1.5h-0.8v-1.5h2.5c1.5,0,2.6-1.1,2.6-2.6c0-1.4-1.1-2.5-2.6-2.5h-9.7c-1.5,0-2.6,1.1-2.6,2.5
		c0,1.5,1.1,2.6,2.6,2.6h2.5v1.5c-3.2,0-6.4,0.5-8.9,2.6c-2.4,2.1-3.8,4.8-3.8,7.9v8.2H49.4c-2.8-0.1-4.9-2.1-4.9-4.9V77.7V27
		c0-9.1,7.2-16.1,16-16.1H99C100.5,10.9,102,11,103.5,11.3 M103.5,131.8c-1.8,2.4-4.2,5.5-4.2,7.9c0,2.3,1.8,4.3,4.2,4.3V131.8z"/>
	<path class="st1" d="M566.9,80.9v-46h22.3v45.5c0.1,4.2,0.5,5.9,4.7,5.9h26.8v16h-26.8l-7.4,0.1C576.8,102.4,567,98.5,566.9,80.9
		 M534.1,102.7V84.2c5.5,0,10-4.4,10-9.8c0-5.5-4.4-10-10-10V45.2c16,0,29,13,29,29v29h-18.5v-2.9
		C541,101.8,537.5,102.6,534.1,102.7 M534.1,45.2v19.2c-5.4,0-10,4.4-10,10c0,5.4,4.5,9.8,10,9.8v18.5
		c-15.6,0.9-28.9-10.8-28.9-28.5C505.2,58.2,518.2,45.2,534.1,45.2 M246.8,103.2V83.9c5.5,0,10-4.5,10-10c0-5.4-4.4-10-10-10V44.6
		c16.1,0,29.2,13.1,29.2,29.2C276.1,90.1,262.9,103.2,246.8,103.2 M468.8,35.4H490v11.1h12.2v15.4H490v18.9c0,4.8,2.3,7.1,6.8,7.1
		h5.4v14.6h-12.4c-4.4,0-7.9-0.5-10.6-1.6c-9-3.5-10.5-10.8-10.5-19.5V62.1H460V46.6h8.7V35.4H468.8z M401,60.5L401,60.5
		c-1.9,0-3.3,1.5-3.3,3.3s1.3,3.2,3,3.3h0.6h13.4h23.1c0.5-0.1,0.9-0.1,1.4-0.1c9.8,0,17.9,7.9,17.9,17.8c0,9.7-8.1,17.8-17.9,17.8
		H439h-59.5V88.1h42h13h0.1h0.1c1.8-0.1,3.2-1.5,3.2-3.3s-1.4-3.2-3.2-3.3h-0.1H398c-0.4,0-0.6,0.1-1,0.1c-10,0-18-8.1-18-17.8
		c0-9.7,7.9-17.7,17.6-17.8h59.5v14.5H401z M315,102.4V69.2c0-4.7-3.4-6.1-6.1-6.1c-2.6,0-8.4,1.5-8.8,9.1v30v0.1h-6.4v-0.1h-14.6
		V46h21.1v8.1c9.2-9.6,26.1-14.2,36,1.1c13.9-16.6,38.9-11.3,38.9,13v34.2h-22.3V70.3c0-6.4-4.4-7.3-7.1-7.3c-3.5,0-8.3,3.4-8.3,9.8
		v29.6H315z M246.8,44.7V64c-5.4,0-9.8,4.5-9.8,10c0,5.4,4.4,10,9.8,10v19.2c-11.5,0-21.4-6.7-26.2-16.3v-26
		C225.4,51.4,235.3,44.7,246.8,44.7 M220.6,55.4l3-6.9c-1-0.6-2-1.1-3-1.5V55.4z M220.6,47v8.4l-3.5,8.1c-12.7-5-16.9,3.9-16.9,16.1
		l-0.3,22.8h-22.2v-56h21.7v9.3C204.7,46.5,212.8,43.8,220.6,47 M220.6,61c-1.9,3.9-3,8.3-3,13s1.1,9.1,3,13V61z"/>
	<path class="st1" d="M608.8,146.6v-5.8c1.5-0.1,2.5-0.3,2.9-0.4c0.6-0.3,1-0.6,1.4-1.1c0.3-0.6,0.5-1.3,0.5-2.1
		c0-0.9-0.3-1.6-0.6-2.1c-0.4-0.6-1-1-1.8-1.1c-0.4,0-1.1-0.1-2.4-0.1v-4.7h0.4c2.5,0,4.4,0.3,5.5,0.8s2,1.4,2.6,2.6
		c0.8,1.3,1.1,2.8,1.1,4.4c0,2-0.6,3.8-1.6,5c-1,1.4-2.5,2.3-4.7,2.5c1,0.8,1.9,1.5,2.5,2.4c0.8,0.8,1.6,2.3,2.8,4.4l2.9,5.4h-5.7
		l-3.5-6.1C610.1,148.6,609.2,147.2,608.8,146.6 M608.8,129v4.7h-1.1H604v7.1h3.5h1.3v5.8c-0.5-0.5-1-0.9-1.5-1.1
		c-0.5-0.1-1.3-0.3-2.4-0.3H604v11.5h-4.8v-27.6h9.6V129z M584.3,157.1v-4.8c1.9,0,3.4-0.8,4.7-2.4c1.1-1.6,1.8-4,1.8-7.2
		s-0.6-5.5-1.8-7.1c-1.1-1.5-2.8-2.4-4.7-2.4v-4.7c3.4,0,6.2,1.3,8.2,3.8c2.1,2.5,3.2,5.9,3.2,10.5c0,4.4-1,7.9-3.2,10.5
		C590.4,155.9,587.7,157.1,584.3,157.1 M584.3,128.7v4.7c-2,0-3.5,0.9-4.8,2.4c-1.1,1.6-1.8,3.9-1.8,7.2c0,3,0.6,5.4,1.9,7.1
		c1.1,1.6,2.8,2.4,4.7,2.4v4.8c-3.5,0-6.3-1.3-8.3-3.8s-3.2-5.9-3.2-10.3c0-2.8,0.4-5.2,1.1-7.1c0.5-1.4,1.3-2.6,2.1-3.8
		c1-1.1,2-1.9,3-2.5c1.5-0.6,3.2-1,5-1h0.3V128.7z M501.1,150.3v-4.7h3.3l-3.3-10.1v-6.6h2.6l9.3,27.6h-5.2l-2-6.3h-4.7V150.3z
		 M520.8,156.6v-22.9h-6.9V129h18.5v4.7h-6.9v22.9H520.8z M520.7,158.1h4.5v3.8c0,1.5-0.1,2.6-0.4,3.5c-0.1,0.9-0.6,1.8-1.1,2.4
		c-0.6,0.8-1.5,1.3-2.4,1.6l-0.9-2.1c0.9-0.4,1.5-0.8,1.9-1.4c0.3-0.4,0.4-0.8,0.5-1.1c0-0.4,0.1-0.9,0.1-1.4h-2.3v-5.3H520.7z
		 M535.5,129h4.7v27.6h-4.7V129z M544.5,129h4.7v27.6h-4.7V129z M553.9,156.6v-27.4h4.8v22.7h11.7v4.7L553.9,156.6L553.9,156.6z
		 M501.1,129v6.6v-0.1l-3.2,10.2h3.2v4.7h-4.5l-2,6.3h-5l9.2-27.6h2.3V129z M457.4,150.3v-4.7h3.2l-3.2-10.1v-6.6h2.5l9.5,27.6h-5.2
		l-2.1-6.3h-4.7V150.3z M471.9,156.6v-27.4h4.8v22.7h11.7v4.7L471.9,156.6L471.9,156.6z M457.4,129v6.6v-0.1l-3.2,10.2h3.2v4.7h-4.7
		l-1.9,6.3h-4.2v-2.6l8.2-25h2.6V129z M446.7,133.7h0.9V129h-0.9V133.7z M446.7,129v4.7h-6.1v22.9h-4.8v-22.9H429V129H446.7z
		 M446.7,154l-0.9,2.6h0.9V154z M287.9,146.6v-5.8c1.5-0.1,2.5-0.3,3-0.4c0.5-0.3,1-0.6,1.3-1.1c0.4-0.6,0.5-1.3,0.5-2.1
		c0-0.9-0.1-1.6-0.6-2.1c-0.4-0.6-1-1-1.8-1.1c-0.4,0-1.1-0.1-2.4-0.1v-4.7h0.5c2.5,0,4.3,0.3,5.4,0.8s2,1.4,2.8,2.6
		c0.6,1.3,1,2.8,1,4.4c0,2-0.5,3.8-1.5,5c-1,1.4-2.6,2.3-4.7,2.5c1,0.8,1.8,1.5,2.5,2.4c0.6,0.8,1.5,2.3,2.6,4.4l2.9,5.4h-5.7
		l-3.4-6.1C289.2,148.6,288.4,147.2,287.9,146.6 M300.9,147.7l4.5-0.5c0.4,1.8,0.9,3.2,1.8,3.9c0.9,0.9,2,1.4,3.4,1.4
		c1.5,0,2.6-0.4,3.4-1.1c0.9-0.8,1.3-1.8,1.3-2.8c0-0.6-0.3-1.1-0.5-1.6c-0.4-0.4-0.9-0.8-1.8-1.1c-0.5-0.3-1.8-0.6-3.8-1.3
		c-2.5-0.8-4.3-1.6-5.3-2.6c-1.5-1.5-2.1-3.4-2.1-5.5c0-1.4,0.3-2.8,1-3.9c0.6-1.3,1.6-2.1,2.9-2.9c1.3-0.6,2.8-0.9,4.7-0.9
		c2.9,0,5,0.8,6.6,2.3c0.8,0.8,1.4,1.6,1.8,2.6s0.6,2.1,0.6,3.4l-4.8,0.3c-0.1-1.4-0.6-2.5-1.3-3c-0.6-0.6-1.6-1-3-1s-2.4,0.4-3.2,1
		c-0.5,0.4-0.8,1-0.8,1.8c0,0.6,0.1,1.1,0.6,1.6c0.6,0.5,2,1.1,4.4,1.8c2.3,0.8,4,1.4,5,2c1.1,0.8,2,1.6,2.6,2.8
		c0.6,1.3,0.9,2.6,0.9,4.4c0,1.6-0.4,3-1.1,4.4c-0.6,1.4-1.8,2.4-3.2,3.2c-0.6,0.4-1.4,0.6-2.3,0.8c-0.8,0.1-1.8,0.3-2.8,0.3
		c-3,0-5.3-0.9-6.8-2.4C302.2,153.1,301.1,150.7,300.9,147.7 M324,129h4.7v15c0,2.4,0.1,3.9,0.1,4.5c0.3,1.1,0.8,2,1.5,2.8
		c0.8,0.6,1.8,1,3.2,1c1.3,0,2.3-0.4,3-1c0.6-0.6,1-1.4,1.3-2.4c0.1-1,0.1-2.5,0.1-4.7v-15.3h4.8v14.5c0,3.3-0.1,5.7-0.4,7.1
		s-0.8,2.5-1.4,3.4c-0.8,1-1.6,1.8-2.8,2.3c-1.1,0.5-2.6,0.9-4.5,0.9c-2.3,0-3.9-0.4-5-1c-1.3-0.5-2.1-1.3-2.8-2.3
		c-0.6-1-1.1-2-1.4-3.2c-0.3-1.5-0.4-3.9-0.4-6.9L324,129L324,129z M347.8,156.6v-27.4h4.7v22.7h11.7v4.7L347.8,156.6L347.8,156.6z
		 M375.9,129h4.7v27.6h-4.7V129z M385.1,156.6V129h4.7l9.6,18.4V129h4.4v27.6H399l-9.5-18v18H385.1z M407.5,147.7l4.7-0.5
		c0.3,1.8,0.9,3.2,1.6,3.9c0.9,0.9,2,1.4,3.4,1.4c1.5,0,2.6-0.4,3.5-1.1c0.8-0.8,1.1-1.8,1.1-2.8c0-0.6-0.1-1.1-0.5-1.6
		c-0.3-0.4-0.9-0.8-1.6-1.1c-0.5-0.3-1.8-0.6-3.8-1.3c-2.5-0.8-4.4-1.6-5.4-2.6c-1.4-1.5-2.1-3.4-2.1-5.5c0-1.4,0.4-2.8,1-3.9
		c0.6-1.3,1.6-2.1,2.9-2.9c1.3-0.6,2.9-0.9,4.7-0.9c2.9,0,5.2,0.8,6.7,2.3c0.8,0.8,1.3,1.6,1.6,2.6c0.5,1,0.6,2.1,0.6,3.4l-4.7,0.3
		c-0.3-1.4-0.6-2.5-1.4-3c-0.6-0.6-1.6-1-2.9-1c-1.4,0-2.5,0.4-3.3,1c-0.5,0.4-0.8,1-0.8,1.8c0,0.6,0.3,1.1,0.8,1.6s2,1.1,4.3,1.8
		c2.3,0.8,4,1.4,5.2,2c1,0.8,1.9,1.6,2.5,2.8c0.6,1.3,1,2.6,1,4.4c0,1.6-0.4,3-1.1,4.4c-0.8,1.4-1.8,2.4-3.2,3.2
		c-0.8,0.4-1.5,0.6-2.4,0.8c-0.8,0.1-1.8,0.3-2.8,0.3c-2.9,0-5.2-0.9-6.8-2.4C408.8,153.1,407.9,150.7,407.5,147.7 M178.2,129h4.8
		v15c0,2.4,0,3.9,0.1,4.5c0.1,1.1,0.6,2,1.4,2.8c0.8,0.6,1.9,1,3.2,1c1.4,0,2.4-0.4,3-1c0.8-0.6,1.1-1.4,1.3-2.4
		c0.1-1,0.3-2.5,0.3-4.7v-15.3h4.7v14.5c0,3.3-0.1,5.7-0.4,7.1c-0.3,1.4-0.6,2.5-1.4,3.4c-0.6,1-1.6,1.8-2.8,2.3
		c-1.1,0.5-2.6,0.9-4.5,0.9c-2.1,0-3.9-0.4-5-1c-1.1-0.5-2-1.3-2.8-2.3c-0.6-1-1.1-2-1.3-3.2c-0.4-1.5-0.5-3.9-0.5-6.9V129H178.2z
		 M287.9,129v4.7h-1h-3.8v7.1h3.5h1.3v5.8c-0.4-0.5-0.9-0.9-1.4-1.1c-0.5-0.1-1.3-0.3-2.4-0.3h-1v11.5h-4.7v-27.6h9.5V129z
		 M201.9,156.6V129h4.7l9.6,18.4V129h4.4v27.6h-4.8l-9.5-18v18H201.9z M225.5,129h4.7v27.6h-4.7V129z M240.6,156.6l-8.3-27.6h5.2
		l5.9,20.4l5.7-20.4h5l-8.4,27.6H240.6z M256.5,156.6V129h17.4v4.7h-12.6v6.2H273v4.7h-11.7v7.4h13.1v4.7h-17.9V156.6z"/>
</g>
</svg>
