<?xml version="1.0" encoding="utf-8"?>
<!-- Generator: Adobe Illustrator 22.1.0, SVG Export Plug-In . SVG Version: 6.00 Build 0)  -->
<svg version="1.1" xmlns="http://www.w3.org/2000/svg" xmlns:xlink="http://www.w3.org/1999/xlink" x="0px" y="0px"
	 viewBox="0 0 150 150" style="enable-background:new 0 0 150 150;" xml:space="preserve">
<g id="Layer_2">
</g>
<g id="Layer_1">
	<g>
		<path d="M131.7,68.9c-2.5-0.5-5.5,0.8-6.6,4.4c-0.8,2.5-2.4,6.3-4.6,11.3c0.9,2.5,1.4,6.6-1.3,12c-0.5,1.1-1.3,2.2-2.2,3.5
			c-2,2.8-4.9,6-7.9,9.3l-0.6,0.6c-1.1,1.1-2.7,1.4-3.9,0.6c-0.8-0.5-1.3-1.3-1.4-2.2c-0.2-0.9,0.2-1.7,0.8-2.5l0.8-0.8
			c3.9-4.3,7.6-8.4,9.1-11.3c2.7-5.4,0.9-8.8-1.6-10.2c-1.9-1.1-4.7-1.3-6.3,1.1c-2.5,3.8-6,7.7-9.5,11.7c-2.5,2.8-4.7,5.4-6.5,7.7
			c-1.6,1.9-2.7,3.6-3.6,5.2c-2.5,4.3-5.5,14-6.1,23.9c-0.3,4.9-0.5,10.6-0.5,14.3c0,0.6,0.2,1.3,0.6,1.7c0.5,0.5,1.1,0.8,1.7,0.8
			h20.5c0.6,0,1.3-0.3,1.7-0.6c0.5-0.5,0.6-1.1,0.6-1.7v-5.8c0-1.6,0.8-3.2,2.2-4.1c6.9-4.9,13.9-10.9,17.8-15.4
			c8-9.5,11-37.5,11.5-46.5C136.8,71.5,134.3,69.3,131.7,68.9z"/>
		<path d="M63.4,108.9c-0.9-1.4-2-3.2-3.6-5.2c-1.7-2.2-3.9-4.7-6.5-7.7c-3.5-3.8-6.9-7.9-9.5-11.7c-1.6-2.4-4.3-2.2-6.3-1.1
			c-2.5,1.4-4.3,4.9-1.6,10.2c1.6,3,5.2,7.1,9.1,11.3l0.8,0.8c0.6,0.6,0.9,1.6,0.8,2.5c-0.2,0.9-0.6,1.7-1.4,2.2
			c-1.3,0.8-3,0.5-3.9-0.6l-0.6-0.6c-3-3.3-5.8-6.5-7.9-9.3c-0.9-1.3-1.6-2.4-2.2-3.5c-2.7-5.2-2.2-9.3-1.3-12
			c-2.4-5-3.9-8.8-4.6-11.3c-1.1-3.6-4.1-4.9-6.6-4.4s-5,2.7-4.7,6.6c0.5,9.1,3.6,37.2,11.5,46.5c3.9,4.6,10.9,10.6,17.8,15.4
			c1.4,0.9,2.2,2.5,2.2,4.1v5.8c0,0.6,0.2,1.3,0.6,1.7c0.5,0.5,1.1,0.6,1.7,0.6h20.5c0.6,0,1.3-0.3,1.7-0.8c0.5-0.5,0.6-1.1,0.6-1.7
			c-0.2-3.8-0.3-9.5-0.5-14.3C68.9,123.1,65.9,113.1,63.4,108.9z"/>
		<path d="M116.4,41.4C116.4,18.6,97.9,0,75,0S33.6,18.6,33.6,41.4S52.2,82.9,75,82.9S116.4,64.3,116.4,41.4z M75,73.7
			c-17.8,0-32.3-14.5-32.3-32.3S57.2,9.1,75,9.1s32.3,14.5,32.3,32.3S92.8,73.7,75,73.7z"/>
		<path d="M83.7,50.3c-0.2,0.2-3.2,3.6-8.7,3.6c-5.5,0-8.5-3.5-8.5-3.6c-1.6-1.9-4.4-2.2-6.5-0.6c-1.9,1.6-2.2,4.4-0.6,6.5
			C59.6,56.4,65.1,63,75,63s15.4-6.6,15.6-6.9c1.6-1.9,1.3-4.7-0.6-6.3C88.1,48.1,85.3,48.4,83.7,50.3z"/>
		<circle cx="61.8" cy="32.3" r="6.1"/>
		<circle cx="88.2" cy="32.3" r="6.1"/>
	</g>
</g>
</svg>
