<?xml version="1.0" encoding="utf-8"?>
<!-- Generator: Adobe Illustrator 22.1.0, SVG Export Plug-In . SVG Version: 6.00 Build 0)  -->
<svg version="1.1" id="Layer_1" xmlns="http://www.w3.org/2000/svg" xmlns:xlink="http://www.w3.org/1999/xlink" x="0px" y="0px"
	 viewBox="0 0 150 150" style="enable-background:new 0 0 150 150;" xml:space="preserve">
<g>
	<path d="M42.5,27h-40C1.1,27,0,28.1,0,29.5v55c0,0.8,0.4,1.5,1,2l19,14.3v3.9C8.8,105.9,0,115.4,0,127c0,12.4,10.1,22.5,22.5,22.5
		S45,139.4,45,127c0-11.6-8.8-21.1-20-22.4v-3.9l19-14.3c0.6-0.5,1-1.2,1-2v-55C45,28.1,43.9,27,42.5,27z M30,32v58.8l-7.5,5.6
		L15,90.7V32H30z M5,32h5v55l-5-3.8V32z M40,127c0,9.6-7.9,17.5-17.5,17.5S5,136.6,5,127s7.9-17.5,17.5-17.5S40,117.3,40,127z
		 M40,83.2L35,87V32h5V83.2z"/>
	<path d="M97.5-0.5h-45C51.1-0.5,50,0.6,50,2v55c0,0.8,0.4,1.6,1.1,2.1l21.4,14.3v8L66.1,92H52.5c-1,0-1.8,0.6-2.3,1.4
		c-0.4,0.9-0.3,1.9,0.3,2.6l8.8,10.9l-8.8,10.9c-0.6,0.8-0.7,1.8-0.3,2.6c0.4,0.9,1.3,1.4,2.3,1.4h13.6l6.8,11.3
		c0.5,0.8,1.3,1.2,2.1,1.2c0.9,0,1.7-0.5,2.1-1.2l6.8-11.3h13.6c1,0,1.8-0.6,2.3-1.4c0.4-0.9,0.3-1.9-0.3-2.6L90.7,107l8.8-10.9
		c0.6-0.8,0.7-1.8,0.3-2.6c-0.4-0.9-1.3-1.4-2.3-1.4H83.9l-6.4-10.7v-8l21.4-14.3c0.7-0.5,1.1-1.2,1.1-2.1V2
		C100,0.6,98.9-0.5,97.5-0.5z M85,4.5v57.8L75,69l-10-6.7V4.5H85z M55,4.5h5V59l-5-3.3V4.5z M82.5,97h9.8l-6.8,8.4
		c-0.7,0.9-0.7,2.2,0,3.1l6.8,8.4h-9.8c-0.9,0-1.7,0.5-2.1,1.2l-5.4,8.9l-5.4-8.9c-0.5-0.8-1.3-1.2-2.1-1.2h-9.8l6.8-8.4
		c0.7-0.9,0.7-2.2,0-3.1L57.7,97h9.8c0.9,0,1.7-0.5,2.1-1.2l5.4-8.9l5.4,8.9C80.8,96.5,81.6,97,82.5,97z M95,55.7L90,59V4.5h5V55.7z
		"/>
	<path d="M10,127c0,6.9,5.6,12.5,12.5,12.5S35,133.9,35,127c0-6.9-5.6-12.5-12.5-12.5S10,120.1,10,127z M30,127
		c0,4.1-3.4,7.5-7.5,7.5S15,131.1,15,127s3.4-7.5,7.5-7.5S30,122.9,30,127z"/>
	<path d="M149,86.5c0.6-0.5,1-1.2,1-2v-55c0-1.4-1.1-2.5-2.5-2.5h-40c-1.4,0-2.5,1.1-2.5,2.5v55c0,0.8,0.4,1.5,1,2l19,14.3v3.9
		c-11.2,1.2-20,10.8-20,22.4c0,12.4,10.1,22.5,22.5,22.5S150,139.4,150,127c0-11.6-8.8-21.1-20-22.4v-3.9L149,86.5z M127.5,96.4
		l-7.5-5.6V32h15v58.8L127.5,96.4z M145,83.2l-5,3.8V32h5V83.2z M110,32h5v55l-5-3.8V32z M145,127c0,9.6-7.9,17.5-17.5,17.5
		S110,136.6,110,127s7.9-17.5,17.5-17.5S145,117.3,145,127z"/>
	<path d="M115,127c0,6.9,5.6,12.5,12.5,12.5S140,133.9,140,127c0-6.9-5.6-12.5-12.5-12.5S115,120.1,115,127z M135,127
		c0,4.1-3.4,7.5-7.5,7.5s-7.5-3.4-7.5-7.5s3.4-7.5,7.5-7.5S135,122.9,135,127z"/>
	<rect x="82.5" y="139.5" width="5" height="5"/>
	<rect x="72.5" y="139.5" width="5" height="5"/>
	<rect x="62.5" y="139.5" width="5" height="5"/>
	<rect x="72.5" y="9.5" width="5" height="5"/>
	<rect x="72.5" y="19.5" width="5" height="5"/>
	<rect x="72.5" y="29.5" width="5" height="5"/>
	<rect x="72.5" y="39.5" width="5" height="5"/>
	<rect x="72.5" y="49.5" width="5" height="5"/>
	<rect x="72.5" y="59.5" width="5" height="5"/>
	<rect x="135" y="17" width="5" height="5"/>
	<rect x="125" y="17" width="5" height="5"/>
	<rect x="115" y="17" width="5" height="5"/>
	<rect x="30" y="17" width="5" height="5"/>
	<rect x="20" y="17" width="5" height="5"/>
	<rect x="10" y="17" width="5" height="5"/>
</g>
</svg>
