<?xml version="1.0" encoding="utf-8"?>
<!-- Generator: Adobe Illustrator 22.1.0, SVG Export Plug-In . SVG Version: 6.00 Build 0)  -->
<svg version="1.1" id="Layer_1" xmlns="http://www.w3.org/2000/svg" xmlns:xlink="http://www.w3.org/1999/xlink" x="0px" y="0px"
	 viewBox="0 0 100 100" style="enable-background:new 0 0 100 100;" xml:space="preserve">
<g>
	<path d="M15.8,0v76.7v21c0,1.3,1.1,2.4,2.4,2.4h63.6c1.3,0,2.4-1.1,2.4-2.4v-21V0H15.8z M80.8,96.7H19.2V80h61.7V96.7z M19.2,76.7
		V3.3h61.7v73.3H19.2z"/>
	<path d="M45.8,90h8.3c0.9,0,1.7-0.8,1.7-1.7s-0.8-1.7-1.7-1.7h-8.3c-0.9,0-1.7,0.8-1.7,1.7S44.9,90,45.8,90z"/>
	<path d="M24.2,73.3h30V55h-30V73.3z M27.5,58.3h23.3V70H27.5V58.3z"/>
	<path d="M29.2,68.3h8.3V60h-8.3V68.3z M32.5,63.3h1.7V65h-1.7V63.3z"/>
	<path d="M40.8,68.3h8.3V60h-8.3V68.3z M44.2,63.3h1.7V65h-1.7V63.3z"/>
	<path d="M67.5,56.7c-4.6,0-8.3,3.7-8.3,8.3s3.7,8.3,8.3,8.3s8.3-3.7,8.3-8.3S72.1,56.7,67.5,56.7z M67.5,70c-2.8,0-5-2.2-5-5
		c0-2.8,2.2-5,5-5c0.8,0,1.5,0.2,2.2,0.5l-3.3,3.3l2.3,2.4l3.3-3.3c0.3,0.7,0.5,1.4,0.5,2.2C72.5,67.8,70.3,70,67.5,70z"/>
</g>
</svg>
