<?xml version="1.0" encoding="utf-8"?>
<!-- Generator: Adobe Illustrator 22.1.0, SVG Export Plug-In . SVG Version: 6.00 Build 0)  -->
<svg version="1.1" id="Layer_1" xmlns="http://www.w3.org/2000/svg" xmlns:xlink="http://www.w3.org/1999/xlink" x="0px" y="0px"
	 viewBox="0 0 100 100" style="enable-background:new 0 0 100 100;" xml:space="preserve">
<title>•SET12-v2</title>
<path d="M60.5,57.3c0-2.3-0.8-4.4-2.4-6.1l10.2-14c0.7-0.9,0.5-2.2-0.4-2.8s-2.2-0.5-2.8,0.4l0,0L54.7,48.9c-4.6-1.9-9.9,0.4-11.8,5
	s0.4,9.9,5,11.8c4.6,1.9,9.9-0.4,11.8-5C60.2,59.6,60.4,58.5,60.5,57.3L60.5,57.3z M46.4,57.3c0-2.8,2.2-5,5-5c2.8,0,5,2.2,5,5
	c0,2.8-2.2,5-5,5C48.7,62.3,46.4,60.1,46.4,57.3z"/>
<path d="M99.4,32l-5.3-8.2c-0.3-0.5-0.7-0.8-1.3-0.9c-0.5-0.1-1.1,0-1.5,0.3l-6.6,4.2c-7.8-9-19-14.3-30.9-14.9V11h8.3
	c1.1,0,2-0.9,2-2c0,0,0,0,0,0v-7c0-1.1-0.9-2-2-2l0,0H41.4c-1.1,0-2,0.9-2.1,2c0,0,0,0,0,0v7c0,1.1,0.9,2,2,2l0,0h8.5v3.3
	c0,0,0,0,0,0.1c0,0.1,0,0.1,0,0.1V22c0,1.1,0.9,2,2,2c1.1,0,2-0.9,2-2v-5.5c7.1,0.4,14,2.6,19.9,6.6l-3.6,4.7
	c-0.7,0.9-0.5,2.2,0.4,2.8c0.3,0.3,0.8,0.4,1.2,0.4c0.6,0,1.2-0.3,1.6-0.8l3.6-4.7c5.5,4.5,9.7,10.3,12.1,16.9l-5.9,1.8
	c-1.1,0.3-1.7,1.5-1.3,2.5c0.3,0.8,1,1.4,1.9,1.4c0.2,0,0.4,0,0.6-0.1l6-1.7c1.7,6.8,1.7,13.8-0.2,20.6l-5.9-2.2
	c-1.1-0.3-2.2,0.3-2.5,1.3c-0.3,1,0.2,2,1.1,2.5l5.9,2.2c-2.6,6.6-6.9,12.4-12.5,16.7l-3.6-4.7c-0.7-0.8-2-0.9-2.9-0.2
	c-0.7,0.6-0.9,1.7-0.4,2.5l3.5,4.7c-5.7,3.6-12.3,5.7-19.1,6V90c0-1.1-0.9-2-2-2s-2,0.9-2,2v7.9c0,1.1,0.9,2,2,2
	c24.1,0,43.7-19.5,43.8-43.7c0-5.9-1.2-11.7-3.5-17.2l6.7-4.3C99.7,34.2,100,32.9,99.4,32C99.4,32,99.4,32,99.4,32z M43.4,3.9h16.8
	v3H43.4V3.9z M90.4,35.4c-0.9-1.7-1.9-3.3-3.1-4.9l4.5-2.9l3.1,4.8L90.4,35.4z"/>
<path d="M34.8,17.7H23.4c-1.1,0-2,0.9-2,2c0,1.1,0.9,2,2,2h11.4c1.1,0,2-0.9,2-2C36.8,18.6,35.9,17.7,34.8,17.7
	C34.8,17.7,34.8,17.7,34.8,17.7z"/>
<path d="M34.8,90.6H23.4c-1.1,0-2,0.9-2,2c0,1.1,0.9,2,2,2h11.4c1.1,0,2-0.9,2-2C36.8,91.5,35.9,90.6,34.8,90.6z"/>
<path d="M34.8,78.4H12.2c-1.1,0-2,0.9-2,2c0,1.1,0.9,2,2,2h22.6c1.1,0,2-0.9,2-2C36.8,79.3,35.9,78.4,34.8,78.4z"/>
<path d="M34.8,66.3H5.7c-1.1,0-2,0.9-2,2c0,1.1,0.9,2,2,2c0,0,0,0,0,0h29.1c1.1,0,2-0.9,2-2C36.8,67.2,35.9,66.3,34.8,66.3z"/>
<path d="M34.8,29.9H12.2c-1.1,0-2,0.9-2,2c0,1.1,0.9,2,2,2h22.6c1.1,0,2-0.9,2-2C36.8,30.8,35.9,29.9,34.8,29.9z"/>
<path d="M34.8,42H5.7c-1.1,0-2,0.9-2,2c0,1.1,0.9,2,2,2h29.1c1.1,0,2-0.9,2-2C36.8,42.9,35.9,42,34.8,42z"/>
<path d="M34.8,54.1H2.3c-1.1,0-2,0.9-2,2c0,1.1,0.9,2,2,2h32.5c1.1,0,2-0.9,2-2C36.8,55.1,35.9,54.1,34.8,54.1z"/>
</svg>
