<?xml version="1.0" encoding="utf-8"?>
<!-- Generator: Adobe Illustrator 22.1.0, SVG Export Plug-In . SVG Version: 6.00 Build 0)  -->
<svg version="1.1" id="Layer_1" xmlns="http://www.w3.org/2000/svg" xmlns:xlink="http://www.w3.org/1999/xlink" x="0px" y="0px"
	 viewBox="0 0 100 100" style="enable-background:new 0 0 100 100;" xml:space="preserve">
<style type="text/css">
	.st0{fill:#7CB434;}
</style>
<title>Artboard 1</title>
<g>
	<path class="st0" d="M45,13.3h10c1,0,1.7-0.7,1.7-1.7S56,10,55,10H45c-1,0-1.7,0.7-1.7,1.7S44,13.3,45,13.3z"/>
	<path class="st0" d="M85,96.7H71.7c-1,0-1.7-0.7-1.7-1.7v-5h1.7c1,0,1.7-0.7,1.7-1.7v-5H75c2.7,0,5-2.3,5-5V5c0-2.7-2.3-5-5-5H25
		c-2.7,0-5,2.3-5,5v73.3c0,2.7,2.3,5,5,5h1.7v5c0,1,0.7,1.7,1.7,1.7H30v5c0,1-0.7,1.7-1.7,1.7H15c-1,0-1.7,0.7-1.7,1.7
		c0,1,0.7,1.7,1.7,1.7h13.3c2.7,0,5-2.3,5-5v-5H35c1,0,1.7-0.7,1.7-1.7v-5h26.7v5c0,1,0.7,1.7,1.7,1.7h1.7v5c0,2.7,2.3,5,5,5H85
		c1,0,1.7-0.7,1.7-1.7C86.7,97.3,86,96.7,85,96.7z M33.3,86.7H30v-3.3h3.3V86.7z M65,80H35h-6.7H25c-1,0-1.7-0.7-1.7-1.7V5
		c0-1,0.7-1.7,1.7-1.7h50c1,0,1.7,0.7,1.7,1.7v73.3c0,1-0.7,1.7-1.7,1.7h-3.3H65z M66.7,86.7v-3.3H70v3.3H66.7z"/>
	<path class="st0" d="M50,51.7c-4.7,0-8.3,3.7-8.3,8.3s3.7,8.3,8.3,8.3s8.3-3.7,8.3-8.3S54.7,51.7,50,51.7z M50,65c-2.7,0-5-2.3-5-5
		c0-2.3,1.3-4,3.3-4.7v1.3c0,1,0.7,1.7,1.7,1.7c1,0,1.7-0.7,1.7-1.7v-1.3C53.7,56,55,58,55,60C55,62.7,52.7,65,50,65z"/>
</g>
</svg>
