<?xml version="1.0" encoding="utf-8"?>
<!-- Generator: Adobe Illustrator 22.1.0, SVG Export Plug-In . SVG Version: 6.00 Build 0)  -->
<svg version="1.1" id="Layer_1" xmlns="http://www.w3.org/2000/svg" xmlns:xlink="http://www.w3.org/1999/xlink" x="0px" y="0px"
	 viewBox="0 0 23 23" style="enable-background:new 0 0 23 23;" xml:space="preserve">
<style type="text/css">
	.st0{fill:#F89429;}
</style>
<path class="st0" d="M11.5,14.9c1.4,0,2.5-1.1,2.5-2.5c0-1.8-2.2-4.1-2.3-4.2c0-0.1-0.1-0.1-0.2-0.1c-0.1,0-0.2,0-0.2,0.1
	C11.2,8.3,9,10.7,9,12.4C9,13.8,10.1,14.9,11.5,14.9z M11.5,8.8c0.5,0.6,1.9,2.3,1.9,3.6c0,1-0.9,1.9-1.9,1.9s-1.9-0.9-1.9-1.9
	C9.6,11.2,11,9.5,11.5,8.8z"/>
<path class="st0" d="M0.3,13.6c-0.1,0-0.2,0-0.2,0.1s0,0.1,0,0.2c0.3,1.4,0.9,2.7,1.6,3.9c0,0.1,0.1,0.1,0.2,0.1s0.2,0,0.2-0.1
	c0.9-0.7,2.1-0.6,2.8,0.2c0.8,0.8,0.9,2,0.2,2.8C5,21,5,21.1,5,21.2c0,0.1,0.1,0.2,0.1,0.2C6.3,22.2,7.6,22.7,9,23
	c0.1,0,0.2,0,0.2,0c0.1,0,0.1-0.1,0.1-0.2c0.1-1.1,1-1.9,2.1-1.9s2,0.8,2.1,1.9c0,0.1,0,0.2,0.1,0.2c0,0,0.1,0,0.2,0c0,0,0,0,0.1,0
	c1.4-0.3,2.7-0.9,3.9-1.6c0.1,0,0.1-0.1,0.1-0.2c0-0.1,0-0.2-0.1-0.2c-0.7-0.9-0.6-2.1,0.2-2.8c0.8-0.8,2-0.9,2.8-0.2
	c0.1,0,0.1,0.1,0.2,0.1c0.1,0,0.2-0.1,0.2-0.1c0.8-1.2,1.3-2.5,1.6-3.9c0-0.1,0-0.2,0-0.2s-0.1-0.1-0.2-0.1c-1.1-0.1-1.9-1-1.9-2.1
	s0.8-2,1.9-2.1c0.1,0,0.2,0,0.2-0.1C23,9.2,23,9.1,23,9c-0.3-1.4-0.9-2.7-1.6-3.9c0-0.1-0.1-0.1-0.2-0.1S21,5,20.9,5.1
	c-0.9,0.7-2.1,0.6-2.8-0.2c-0.8-0.8-0.9-2-0.2-2.8C18,2,18,1.9,18,1.8c0-0.1-0.1-0.2-0.1-0.2C16.7,0.8,15.4,0.3,14,0
	c-0.1,0-0.2,0-0.2,0s-0.1,0.1-0.1,0.2c-0.1,1.1-1,1.9-2.1,1.9s-2-0.8-2.1-1.9c0-0.1,0-0.2-0.1-0.2C9.2,0,9.1,0,9,0
	C7.6,0.3,6.3,0.9,5.1,1.6C5.1,1.7,5,1.7,5,1.8S5,2,5.1,2.1c0.7,0.9,0.6,2.1-0.2,2.8c-0.8,0.8-2,0.9-2.8,0.2C2,5,1.9,5,1.8,5
	C1.8,5,1.7,5.1,1.6,5.1C0.8,6.3,0.3,7.6,0,9c0,0.1,0,0.2,0,0.2s0.1,0.1,0.2,0.1c1.1,0.1,1.9,1,1.9,2.1S1.4,13.5,0.3,13.6z M2.8,11.5
	c0-1.3-0.9-2.4-2.1-2.6C0.9,7.8,1.4,6.7,2,5.7C3,6.4,4.4,6.2,5.3,5.3C6.2,4.4,6.4,3,5.7,2c1-0.6,2-1,3.1-1.3
	c0.3,1.2,1.4,2.1,2.6,2.1s2.4-0.9,2.6-2.1c1.1,0.3,2.2,0.7,3.1,1.3c-0.7,1.1-0.5,2.5,0.4,3.4C18.6,6.2,20,6.4,21,5.7
	c0.6,1,1,2,1.3,3.1c-1.2,0.3-2.1,1.4-2.1,2.6s0.9,2.4,2.1,2.6c-0.3,1.1-0.7,2.2-1.3,3.1c-1.1-0.7-2.5-0.5-3.4,0.4
	c-0.9,0.9-1.1,2.3-0.4,3.4c-1,0.6-2,1-3.1,1.3c-0.3-1.2-1.4-2.1-2.6-2.1s-2.4,0.9-2.6,2.1c-1.1-0.3-2.2-0.7-3.1-1.3
	c0.7-1.1,0.5-2.5-0.4-3.4C4.4,16.8,3,16.6,2,17.3c-0.6-1-1.1-2-1.3-3.1C1.9,13.9,2.8,12.8,2.8,11.5z"/>
<path class="st0" d="M11.5,17.4c3.2,0,5.9-2.6,5.9-5.9s-2.6-5.9-5.9-5.9s-5.9,2.6-5.9,5.9S8.3,17.4,11.5,17.4z M11.5,6.2
	c2.9,0,5.3,2.4,5.3,5.3s-2.4,5.3-5.3,5.3s-5.3-2.4-5.3-5.3S8.6,6.2,11.5,6.2z"/>
</svg>
