<?xml version="1.0" encoding="utf-8"?>
<!-- Generator: Adobe Illustrator 22.1.0, SVG Export Plug-In . SVG Version: 6.00 Build 0)  -->
<svg version="1.1" id="Layer_1" xmlns="http://www.w3.org/2000/svg" xmlns:xlink="http://www.w3.org/1999/xlink" x="0px" y="0px"
	 viewBox="0 0 100 100" style="enable-background:new 0 0 100 100;" xml:space="preserve">
<style type="text/css">
	.st0{fill:#F89429;}
</style>
<path class="st0" d="M50,64.7c5.9,0,10.7-4.8,10.7-10.7c0-7.9-9.4-17.9-9.8-18.3c-0.2-0.3-0.6-0.4-0.9-0.4c-0.3,0-0.7,0.2-0.9,0.4
	c-0.4,0.4-9.8,10.8-9.8,18.3C39.3,59.9,44.1,64.7,50,64.7z M50,38.4c2.3,2.7,8.2,10,8.2,15.6c0,4.5-3.7,8.2-8.2,8.2
	s-8.2-3.7-8.2-8.2C41.8,48.7,47.7,41.2,50,38.4z"/>
<path class="st0" d="M1.1,59.3c-0.4,0-0.7,0.2-0.9,0.5C0,60.1,0,60.4,0,60.8c1.3,6,3.7,11.7,7,16.9c0.2,0.3,0.5,0.5,0.9,0.6
	c0.4,0.1,0.7,0,1-0.3c3.7-3,9.1-2.7,12.4,0.7C24.7,82,25,87.4,22,91.1c-0.2,0.3-0.3,0.6-0.3,1c0.1,0.3,0.3,0.7,0.6,0.9
	c5.2,3.4,10.9,5.7,16.9,7c0.3,0.1,0.7,0,1-0.2c0.3-0.2,0.5-0.5,0.5-0.9c0.5-4.8,4.5-8.3,9.3-8.3s8.8,3.6,9.3,8.3
	c0,0.4,0.2,0.7,0.5,0.9c0.2,0.2,0.5,0.2,0.7,0.2c0.1,0,0.2,0,0.3,0c6-1.3,11.7-3.7,16.9-7c0.3-0.2,0.5-0.5,0.6-0.9
	c0.1-0.4,0-0.7-0.3-1c-3-3.7-2.7-9.1,0.7-12.4c3.4-3.4,8.7-3.7,12.4-0.7c0.3,0.2,0.6,0.3,1,0.3c0.3-0.1,0.7-0.3,0.9-0.6
	c3.4-5.2,5.7-10.9,7-16.9c0.1-0.3,0-0.7-0.2-1c-0.2-0.3-0.5-0.5-0.9-0.5c-4.8-0.5-8.3-4.5-8.3-9.3s3.6-8.8,8.3-9.3
	c0.4,0,0.7-0.2,0.9-0.5c0.2-0.3,0.3-0.6,0.2-1c-1.3-6-3.7-11.7-7-16.9c-0.2-0.3-0.5-0.5-0.9-0.6c-0.4-0.1-0.7,0-1,0.3
	c-3.7,3-9.1,2.7-12.4-0.7C75.3,17.9,75,12.6,78,8.9c0.2-0.3,0.3-0.6,0.3-1c-0.1-0.3-0.3-0.7-0.6-0.9c-5.2-3.4-10.9-5.7-16.9-7
	c-0.3-0.1-0.7,0-1,0.2c-0.3,0.2-0.5,0.5-0.5,0.9c-0.5,4.8-4.5,8.3-9.3,8.3s-8.8-3.6-9.3-8.3c0-0.4-0.2-0.7-0.5-0.9
	C39.9,0,39.6,0,39.2,0c-6,1.3-11.7,3.7-16.9,7c-0.3,0.2-0.5,0.5-0.6,0.9c-0.1,0.4,0,0.7,0.3,1c3,3.7,2.7,9.1-0.7,12.4
	C17.9,24.7,12.6,25,8.9,22c-0.3-0.2-0.6-0.3-1-0.3c-0.3,0.1-0.7,0.3-0.9,0.6c-3.4,5.2-5.7,10.9-7,16.9c-0.1,0.3,0,0.7,0.2,1
	c0.2,0.3,0.5,0.5,0.9,0.5c4.8,0.5,8.3,4.5,8.3,9.3S5.9,58.8,1.1,59.3z M12,50c0-5.6-3.9-10.3-9.2-11.5c1.2-4.8,3.1-9.4,5.7-13.7
	c4.6,2.9,10.7,2.3,14.6-1.7c4-4,4.6-10,1.7-14.6c4.3-2.6,8.9-4.5,13.7-5.7C39.7,8.1,44.4,12,50,12s10.3-3.9,11.5-9.2
	c4.8,1.2,9.4,3.1,13.7,5.7c-2.9,4.6-2.3,10.7,1.7,14.6c4,4,10,4.6,14.6,1.7c2.6,4.3,4.5,8.9,5.7,13.7C91.9,39.7,88,44.4,88,50
	s3.9,10.3,9.2,11.5c-1.2,4.8-3.1,9.4-5.7,13.7c-4.6-2.9-10.7-2.3-14.6,1.7c-4,4-4.6,10-1.7,14.6c-4.3,2.6-8.9,4.5-13.7,5.7
	C60.3,91.9,55.6,88,50,88s-10.3,3.9-11.5,9.2c-4.8-1.2-9.4-3.1-13.7-5.7c2.9-4.6,2.3-10.7-1.7-14.6c-4-4-10-4.6-14.6-1.7
	C5.9,71,3.9,66.4,2.8,61.5C8.1,60.3,12,55.6,12,50z"/>
<path class="st0" d="M50,75.6c14.1,0,25.6-11.5,25.6-25.6S64.1,24.4,50,24.4S24.4,35.9,24.4,50S35.9,75.6,50,75.6z M50,26.9
	c12.7,0,23.1,10.4,23.1,23.1S62.7,73.1,50,73.1S26.9,62.7,26.9,50S37.3,26.9,50,26.9z"/>
</svg>
