<?xml version="1.0" encoding="utf-8"?>
<!-- Generator: Adobe Illustrator 22.1.0, SVG Export Plug-In . SVG Version: 6.00 Build 0)  -->
<svg version="1.1" id="Layer_1" xmlns="http://www.w3.org/2000/svg" xmlns:xlink="http://www.w3.org/1999/xlink" x="0px" y="0px"
	 viewBox="0 0 100 100" style="enable-background:new 0 0 100 100;" xml:space="preserve">
<style type="text/css">
	.st0{fill:#8990A3;}
	.st1{fill:#B1B5C1;}
	.st2{fill:#FFFFFF;}
	.st3{fill:#E6E6E6;}
	.st4{fill:#C92D0F;}
	.st5{fill:#FF3912;}
	.st6{fill:#007FF2;}
	.st7{fill:#0FA3F2;}
	.st8{fill:#F2F2F2;}
</style>
<g>
	<g>
		<path class="st0" d="M57.7,2.2C53.5,2.2,50,5.7,50,10v19.8h2.4V10c0-3,2.4-5.4,5.4-5.4S63.1,7,63.1,10v2.7h2.4V10
			C65.5,5.7,62,2.2,57.7,2.2z"/>
		<path class="st1" d="M67.9,10c0-5.6-4.6-10.2-10.2-10.2c-5.6,0-10.2,4.6-10.2,10.2v19.8H50V10c0-4.3,3.5-7.8,7.8-7.8
			s7.8,3.5,7.8,7.8v2.7h2.4V10z"/>
	</g>
	<g>
		<rect x="40.5" y="78.4" class="st2" width="9.4" height="21.4"/>
		<rect x="50" y="78.4" class="st3" width="9.4" height="21.4"/>
	</g>
	<g>
		<rect x="40.5" y="78.4" class="st1" width="9.4" height="4.6"/>
		<rect x="50" y="78.4" class="st1" width="9.4" height="4.6"/>
	</g>
	<g>
		<polygon class="st3" points="50,62.3 50,81 37.7,81 37.1,76.3 35.3,62.3 		"/>
		<polygon class="st2" points="64.7,62.3 62.8,76.3 62.2,81 50,81 50,62.3 		"/>
	</g>
	<g>
		<g>
			<path class="st4" d="M65,19.7c-0.7,0-1.2,0.5-1.2,1.2c0,0.3,0.1,0.6,0.3,0.8l1.7-1.7C65.7,19.8,65.4,19.7,65,19.7z"/>
			<path class="st5" d="M65.9,20.1l-1.7,1.7c0.2,0.2,0.5,0.3,0.8,0.3c0.7,0,1.2-0.5,1.2-1.2C66.2,20.6,66.1,20.3,65.9,20.1z"/>
		</g>
		<g>
			<rect x="56.1" y="23.8" transform="matrix(0.7071 -0.7071 0.7071 0.7071 0.3836 49.912)" class="st1" width="8.7" height="1.4"/>
			
				<rect x="57.1" y="24.8" transform="matrix(0.7071 -0.7071 0.7071 0.7071 -2.825113e-02 50.9049)" class="st0" width="8.7" height="1.4"/>
		</g>
		<g>
			<rect x="61.3" y="16.4" transform="matrix(0.7071 -0.7071 0.7071 0.7071 4.4803 49.6893)" class="st5" width="1.9" height="6"/>
			
				<rect x="65.8" y="20.6" transform="matrix(0.7071 -0.7071 0.7071 0.7071 2.5882 54.2593)" class="st4" width="1.9" height="6.9"/>
		</g>
	</g>
	<g>
		<g>
			<path class="st6" d="M34.7,19.7c0.7,0,1.2,0.5,1.2,1.2c0,0.3-0.1,0.6-0.3,0.8l-1.7-1.7C34,19.8,34.3,19.7,34.7,19.7z"/>
			<path class="st7" d="M33.8,20.1l1.7,1.7c-0.2,0.2-0.5,0.3-0.8,0.3c-0.7,0-1.2-0.5-1.2-1.2C33.5,20.6,33.6,20.3,33.8,20.1z"/>
		</g>
		<g>
			
				<rect x="38.5" y="20.1" transform="matrix(0.7071 -0.7071 0.7071 0.7071 -5.8236 34.9263)" class="st1" width="1.4" height="8.7"/>
			
				<rect x="37.6" y="21.1" transform="matrix(0.7071 -0.7071 0.7071 0.7071 -6.8171 34.5153)" class="st0" width="1.4" height="8.7"/>
		</g>
		<g>
			<rect x="34.4" y="18.5" transform="matrix(0.7071 -0.7071 0.7071 0.7071 -2.7695 32.1868)" class="st7" width="6" height="1.9"/>
			
				<rect x="29.5" y="23.1" transform="matrix(0.7071 -0.7071 0.7071 0.7071 -7.3386 30.2936)" class="st6" width="6.9" height="1.9"/>
		</g>
	</g>
	<g>
		<rect x="50" y="23.9" class="st1" width="4" height="1.4"/>
		<rect x="46" y="23.9" class="st0" width="4" height="1.4"/>
	</g>
	<g>
		<rect x="62.8" y="12.7" class="st1" width="2.7" height="1.4"/>
		<rect x="65.5" y="12.7" class="st0" width="2.7" height="1.4"/>
	</g>
	<rect x="41.8" y="25.2" class="st0" width="16.4" height="7.8"/>
	<g>
		<polygon class="st1" points="44.2,25.2 40.7,21.7 35.6,26.8 41.8,33 43.6,36.1 50,36.1 50,25.2 		"/>
		<polygon class="st0" points="59.2,21.7 55.7,25.2 50,25.2 50,36.1 56.3,36.1 58.2,33 58.2,33 58.2,33 64.4,26.8 		"/>
	</g>
	<g>
		<rect x="38.5" y="35.6" class="st0" width="11.4" height="2"/>
		<rect x="50" y="35.6" class="st0" width="11.4" height="2"/>
	</g>
	<g>
		<g>
			<path class="st7" d="M65.2,14.1c0,0-3.1,3.6-3.1,5.3c0,1.7,1.4,3.1,3.1,3.1L65.2,14.1C65.2,14.1,65.2,14.1,65.2,14.1z"/>
			<path class="st6" d="M65.2,14.1v8.4c0,0,0,0,0,0c1.7,0,3.1-1.4,3.1-3.1C68.3,17.7,65.4,14.3,65.2,14.1z"/>
		</g>
	</g>
	<g>
		<path class="st1" d="M50,62.3v15.4c-4.5,0-8.8-0.5-12.9-1.4l-1.8-14H50z"/>
		<path class="st1" d="M64.7,62.3l-1.8,14c-4.1,0.9-8.4,1.4-12.9,1.4V62.3H64.7z"/>
		<path class="st2" d="M7.4,44.9c0,17,19,30.8,42.5,30.8V44.9H7.4z"/>
		<path class="st3" d="M50,47.9v-3H7.4c0,1,0.1,2,0.2,3H50z"/>
		<path class="st3" d="M50,44.9v30.8c23.5,0,42.5-13.8,42.5-30.8H50z"/>
	</g>
	<g>
		<path class="st8" d="M5.3,44.9h89.4c2,0,3.6-1.6,3.6-3.6H1.6C1.6,43.2,3.3,44.9,5.3,44.9z"/>
		<path class="st2" d="M94.7,37.6H5.3c-2,0-3.6,1.6-3.6,3.6h96.7C98.3,39.2,96.7,37.6,94.7,37.6z"/>
	</g>
	<g>
		<path class="st7" d="M76,37.6v35.5c0,3.4-2.7,6.1-6.1,6.1c-1.7,0-3.2-0.7-4.3-1.8c-1.1-1.1-1.8-2.6-1.8-4.3V37.6H76z"/>
		<path class="st6" d="M87.2,37.6v18.1c0,1.6-0.6,3-1.6,4c-1,1-2.4,1.6-4,1.6c-3.1,0-5.6-2.5-5.6-5.6V37.6H87.2z"/>
		<path class="st6" d="M20.3,37.6v18.1c0,1.6-0.6,3-1.6,4c-1,1-2.4,1.6-4,1.6c-3.1,0-5.6-2.5-5.6-5.6V37.6H20.3z"/>
		<path class="st6" d="M63.8,37.6v5.1c0,1.6-0.6,3-1.6,4c-1,1-2.4,1.6-4,1.6c-3.1,0-5.6-2.5-5.6-5.6v-5.1H63.8z"/>
		<path class="st7" d="M31.1,37.6v5.1c0,1.6-0.6,3-1.6,4c-1,1-2.4,1.6-4,1.6c-3.1,0-5.6-2.5-5.6-5.6v-5.1H31.1z"/>
	</g>
</g>
</svg>
