<?xml version="1.0" encoding="utf-8"?>
<!-- Generator: Adobe Illustrator 22.1.0, SVG Export Plug-In . SVG Version: 6.00 Build 0)  -->
<svg version="1.1" xmlns="http://www.w3.org/2000/svg" xmlns:xlink="http://www.w3.org/1999/xlink" x="0px" y="0px"
	 viewBox="0 0 80 80" style="enable-background:new 0 0 80 80;" xml:space="preserve">
<style type="text/css">
	.st0{fill:#FFFFFF;}
</style>
<g id="Layer_2">
</g>
<g id="Layer_1">
	<g>
		<circle class="st0" cx="15.1" cy="12.8" r="9.8"/>
		<path class="st0" d="M20.6,46.5l0.9-7.6c0.5-4,2.4-7.3,5.3-9.7c-1.9-2.4-4.9-4-8.2-4h-7.3c-5.3,0-9.8,4-10.4,9.3L0,43
			c-0.2,1.1,0.6,2.1,1.7,2.4c4.2,0.9,8.8,1.3,13.4,1.3C17,46.8,18.9,46.7,20.6,46.5z"/>
		<circle class="st0" cx="64.9" cy="12.8" r="9.8"/>
		<path class="st0" d="M79,34.5c-0.6-5.3-5.1-9.3-10.4-9.3h-7.3c-3.3,0-6.2,1.5-8.2,4c2.9,2.4,4.9,5.7,5.3,9.7l0.9,7.6
			c1.8,0.2,3.7,0.3,5.6,0.3c4.7,0,9.2-0.5,13.4-1.3c1.1-0.3,1.8-1.3,1.7-2.4L79,34.5z"/>
		<path class="st0" d="M55.1,47.9l-1-8.5c-0.6-5.2-5.1-9.2-10.4-9.2h-7.3c-5.3,0-9.8,4-10.4,9.2l-1,8.5c-0.2,1.1,0.6,2.2,1.7,2.4
			c4.2,0.9,8.8,1.3,13.4,1.3c4.7,0,9.2-0.5,13.4-1.3C54.5,50.1,55.2,49,55.1,47.9z"/>
		<circle class="st0" cx="40" cy="17.7" r="9.8"/>
		<path class="st0" d="M49.3,62.7L45,62.3c-0.7-0.1-1.3-0.5-1.6-1.2l-1.7-4c-0.7-1.5-2.9-1.5-3.5,0l-1.7,4c-0.3,0.7-0.8,1.1-1.6,1.2
			l-4.2,0.3c-1.7,0.2-2.4,2.2-1.1,3.3l3.3,2.8c0.5,0.4,0.8,1.2,0.6,1.9l-1,4.2c-0.4,1.6,1.3,2.9,2.8,2l3.7-2.3
			c0.6-0.3,1.3-0.3,1.9,0l3.7,2.3c1.4,0.8,3.2-0.4,2.8-2l-1-4.2c-0.2-0.7,0.1-1.4,0.6-1.9l3.3-2.8C51.6,64.9,51,62.8,49.3,62.7z"/>
		<path class="st0" d="M74.2,57.7l-4.3-0.3c-0.7-0.1-1.3-0.5-1.6-1.2l-1.7-4c-0.7-1.5-2.9-1.5-3.5,0l-1.7,4
			c-0.3,0.7-0.8,1.1-1.6,1.2l-4.2,0.3c-1.7,0.2-2.4,2.2-1.1,3.3l3.3,2.8c0.5,0.4,0.8,1.2,0.6,1.9l-1,4.2c-0.4,1.6,1.3,2.9,2.8,2
			l3.7-2.3c0.6-0.3,1.3-0.3,1.9,0l3.7,2.3c1.4,0.8,3.2-0.4,2.8-2l-1-4.2c-0.2-0.7,0.1-1.4,0.6-1.9l3.3-2.8
			C76.5,59.9,75.9,57.9,74.2,57.7z"/>
		<path class="st0" d="M24.4,57.7l-4.3-0.3c-0.7-0.1-1.3-0.5-1.6-1.2l-1.7-4c-0.7-1.5-2.9-1.5-3.5,0l-1.7,4
			c-0.3,0.7-0.8,1.1-1.6,1.2l-4.2,0.3c-1.7,0.2-2.4,2.2-1.1,3.3L8,63.8c0.5,0.4,0.8,1.2,0.6,1.9l-1,4.2c-0.4,1.6,1.3,2.9,2.8,2
			l3.7-2.3c0.6-0.3,1.3-0.3,1.9,0l3.7,2.3c1.4,0.8,3.2-0.4,2.8-2l-1-4.2c-0.2-0.7,0.1-1.4,0.6-1.9l3.3-2.8
			C26.7,59.9,26,57.9,24.4,57.7z"/>
	</g>
</g>
</svg>
