<?xml version="1.0" encoding="utf-8"?>
<!-- Generator: Adobe Illustrator 22.1.0, SVG Export Plug-In . SVG Version: 6.00 Build 0)  -->
<svg version="1.1" id="Layer_1" xmlns="http://www.w3.org/2000/svg" xmlns:xlink="http://www.w3.org/1999/xlink" x="0px" y="0px"
	 viewBox="0 0 80 80" style="enable-background:new 0 0 80 80;" xml:space="preserve">
<style type="text/css">
	.st0{fill:#FFFFFF;}
</style>
<g>
	<path class="st0" d="M39.6,15.9c-13,0-23.6,10.6-23.6,23.6c0,13,10.6,23.6,23.6,23.6c13,0,23.6-10.6,23.6-23.6
		C63.2,26.5,52.7,15.9,39.6,15.9z M39.6,59.1C28.8,59.1,20,50.3,20,39.5c0-10.8,8.8-19.6,19.6-19.6s19.6,8.8,19.6,19.6
		C59.2,50.3,50.4,59.1,39.6,59.1z"/>
	<path class="st0" d="M77.5,42.7l-1.4-2c-0.7-0.9-0.7-2.2,0-3.1l1.4-2c1.1-1.6,1.5-3.5,1-5.4c-0.4-1.9-1.7-3.5-3.3-4.4l-2.1-1.1
		c-1-0.5-1.6-1.7-1.4-2.8l0.4-2.4c0.3-1.9-0.2-3.8-1.4-5.3c-1.2-1.5-3-2.4-4.9-2.5l-2.4-0.1c-1.1,0-2.1-0.8-2.4-1.9l-0.7-2.3
		c-0.8-2.8-3.5-4.8-6.4-4.8c-0.9,0-1.8,0.2-2.6,0.5L49,4.2c-1,0.4-2.3,0.2-3-0.7l-1.6-1.8c-1.3-1.4-3.1-2.2-5-2.2
		c-1.9,0-3.8,0.8-5,2.3l-1.6,1.8c-0.7,0.9-2,1.1-3,0.7l-2.2-0.9c-0.8-0.3-1.7-0.5-2.5-0.5c-3,0-5.6,2-6.4,4.9l-0.6,2.3
		c-0.3,1.1-1.3,1.9-2.4,1.9L13,12.3c-1.9,0.1-3.7,1-4.9,2.5c-1.2,1.5-1.7,3.5-1.3,5.3l0.4,2.4C7.5,23.6,7,24.8,6,25.3l-2.1,1.2
		C2.2,27.4,1,29,0.6,30.9s0,3.8,1.1,5.4l1.4,1.9c0.7,0.9,0.7,2.2,0,3.1l-1.4,2c-1.1,1.6-1.5,3.5-1,5.4c0.4,1.9,1.7,3.5,3.3,4.4
		l2.1,1.1c1,0.5,1.6,1.7,1.4,2.8l-0.4,2.4c-0.3,1.9,0.2,3.8,1.4,5.3c1.2,1.5,3,2.4,4.9,2.5l2.4,0.1c1.1,0,2.1,0.8,2.4,1.9l0.7,2.3
		c0.8,2.8,3.5,4.8,6.4,4.8c0.9,0,1.8-0.2,2.6-0.5l2.2-0.9c1-0.4,2.3-0.2,3,0.7l1.6,1.8c1.3,1.4,3.1,2.2,5,2.2c1.9,0,3.8-0.8,5-2.3
		l1.6-1.8c0.7-0.9,2-1.1,3-0.7l2.2,0.9c0.8,0.3,1.7,0.5,2.5,0.5c3,0,5.6-2,6.4-4.9l0.6-2.3c0.3-1.1,1.3-1.9,2.4-1.9l2.4-0.1
		c1.9-0.1,3.7-1,4.9-2.5c1.2-1.5,1.7-3.4,1.3-5.3L72,56.5c-0.2-1.1,0.3-2.3,1.3-2.8l2.1-1.2c1.7-0.9,2.9-2.5,3.3-4.4
		C79.1,46.2,78.7,44.3,77.5,42.7z M74.8,47.2c-0.2,0.8-0.6,1.4-1.3,1.8l-2.1,1.2c-2.5,1.4-3.8,4.2-3.3,7l0.4,2.4
		c0.1,0.8,0,1.5-0.5,2.1c-0.5,0.6-1.2,1-1.9,1l-2.4,0.1c-2.9,0.2-5.3,2.1-6.1,4.9l-0.6,2.3c-0.3,1.2-1.4,2-2.6,2
		c-0.3,0-0.7-0.1-1-0.2l-2.2-0.9c-0.8-0.3-1.7-0.5-2.5-0.5c-1.9,0-3.8,0.8-5,2.3l-1.6,1.8c-0.5,0.6-1.2,0.9-2,0.9
		c-0.8,0-1.5-0.3-2-0.9l-1.6-1.8c-1.3-1.4-3.1-2.2-5-2.2c-0.9,0-1.8,0.2-2.6,0.5L26.4,72c-0.3,0.1-0.7,0.2-1,0.2
		c-1.2,0-2.2-0.8-2.6-1.9L22.2,68c-0.8-2.7-3.3-4.7-6.1-4.8l-2.4-0.1c-0.8,0-1.5-0.4-1.9-1c-0.5-0.6-0.7-1.4-0.6-2.1l0.4-2.4
		c0.5-2.8-0.9-5.6-3.4-7L6,49.5c-0.7-0.4-1.2-1-1.3-1.7c-0.2-0.8,0-1.5,0.4-2.1l1.4-2c1.7-2.3,1.6-5.5-0.1-7.8l-1.4-1.9
		c-0.5-0.6-0.6-1.4-0.4-2.1C4.7,31,5.1,30.4,5.8,30l2.1-1.2c2.5-1.4,3.8-4.2,3.3-7l-0.4-2.4c-0.1-0.8,0-1.5,0.5-2.1
		c0.5-0.6,1.2-1,1.9-1l2.4-0.1c2.9-0.2,5.3-2.1,6.1-4.9l0.6-2.3c0.3-1.2,1.4-2,2.6-2c0.3,0,0.7,0.1,1,0.2L28.2,8
		c0.8,0.3,1.7,0.5,2.5,0.5c1.9,0,3.8-0.8,5-2.3l1.6-1.8c0.5-0.6,1.2-0.9,2-0.9c0.8,0,1.5,0.3,2,0.9L43,6.2c1.3,1.4,3.1,2.2,5,2.2
		c0.9,0,1.8-0.2,2.6-0.5l2.2-0.9c0.3-0.1,0.7-0.2,1-0.2c1.2,0,2.2,0.8,2.6,1.9l0.7,2.3c0.8,2.7,3.3,4.7,6.1,4.8l2.4,0.1
		c0.8,0,1.5,0.4,2,1c0.5,0.6,0.7,1.4,0.6,2.1l-0.4,2.4c-0.5,2.8,0.9,5.6,3.4,7l2.1,1.1c0.7,0.4,1.2,1,1.3,1.7c0.2,0.8,0,1.5-0.4,2.1
		l-1.4,2c-1.7,2.3-1.6,5.5,0.1,7.8l1.4,1.9C74.8,45.7,74.9,46.5,74.8,47.2z"/>
	<path class="st0" d="M45.4,33l-8.8,8.7l-2.8-2.9c-0.8-0.8-2-0.8-2.8,0c-0.8,0.8-0.8,2,0,2.8l4.3,4.3c0.4,0.4,0.9,0.6,1.4,0.6
		c0.5,0,1-0.2,1.4-0.6l10.2-10.1c0.8-0.8,0.8-2,0-2.8C47.5,32.2,46.2,32.2,45.4,33z"/>
</g>
</svg>
