<?xml version="1.0" encoding="utf-8"?>
<!-- Generator: Adobe Illustrator 22.1.0, SVG Export Plug-In . SVG Version: 6.00 Build 0)  -->
<svg version="1.1" id="Layer_1" xmlns="http://www.w3.org/2000/svg" xmlns:xlink="http://www.w3.org/1999/xlink" x="0px" y="0px"
	 viewBox="0 0 100 100" style="enable-background:new 0 0 100 100;" xml:space="preserve">
<style type="text/css">
	.st0{fill:#7CB434;}
</style>
<g>
	<path class="st0" d="M48.9,28.7h1.6c0.6,0,1-0.5,1-1v-3.1c0-0.6-0.5-1-1-1H18.3v-7.2H23c0,0,0,0,0.1,0c0.2,0,0.7,0.1,1.2,0.4
		c0.4,0.3,0.8,0.7,0.8,1.7h1.1c0-1.5-0.8-2.4-1.6-2.8c-0.8-0.4-1.5-0.4-1.6-0.4h-4.7v-1h0.5v-2.6h-4.7v2.6h0.5v9.4h-3
		c-0.6,0-1,0.5-1,1v3.1c0,0.6,0.5,1,1,1h1.4v14h11.2v0.5c0,0.6,0.5,1,1,1h8.8c0.6,0,1-0.5,1-1v-0.5h0.6H36c0.4,0,1.6,0,5.2,0
		C47.2,42.8,48.7,31.3,48.9,28.7z M16.8,16.3L16.8,16.3L16.8,16.3z"/>
	<path class="st0" d="M27.8,45.9v12c0,3.5-2.9,6.4-6.4,6.4c-3.5,0-6.4-2.9-6.4-6.4v-8.1H2.9v3.8h8.4v4.3c0,5.6,4.6,10.2,10.2,10.2
		c5.6,0,10.2-4.6,10.2-10.2v-12H27.8L27.8,45.9z"/>
	<rect x="0.4" y="47.5" class="st0" width="2.5" height="8.3"/>
	<ellipse transform="matrix(0.7039 -0.7103 0.7103 0.7039 -9.6038 53.9666)" class="st0" cx="59.9" cy="38.5" rx="8.6" ry="8.6"/>
	<path class="st0" d="M95.6,79.7H84.4l3.9-4.2c2.5-1.7,4.3-3.9,2.3-9.1c-3.7-7.7-6.8-11.7-13.1-16.8c-4.6-3.7-9.5-2.7-11.9-0.3
		c-1.2,1.3-1.5,3.1-1,4.9c1.7-1.4,2.7-2.6,2.7-2.6c0.7-0.9,1.8-1.5,3-1.5c0.9,0,1.7,0.3,2.4,0.8c0.8,0.6,1.3,1.5,1.4,2.5
		c0.1,1-0.2,2-0.8,2.8c-0.4,0.5-1.9,2.3-4.4,4.2c1.5,1.5,3.3,3,5,4.7l-10.7-0.4c-1.3,0-2.6,0.4-3.5,1.3c-0.9,0.9-1.5,2.1-1.5,3.4
		v14.9c0,2.6,2.1,4.8,4.8,4.8s4.8-2.1,4.8-4.8l0-9.9l8,0.3l-6,6.4c-1.3,1.4-1.6,3.4-0.9,5.2c0.8,1.7,2.5,2.9,4.4,2.9h22.1
		c2.6,0,4.8-2.1,4.8-4.8C100.4,81.9,98.2,79.7,95.6,79.7z"/>
	<path class="st0" d="M47.7,68c0.5,1,1.7,1.5,2.8,1c1-0.5,1.5-1.7,1-2.8l-0.2-0.5c-1.7-0.2-3.4-0.6-5.1-1.2L47.7,68z"/>
	<path class="st0" d="M46,56.6c0.4,0,0.7,0.1,1.1,0.2l-0.9-1.9c1.3-1.5,1.7-3.7,0.8-5.6c-0.9-1.9-2.8-3-4.8-3l1.3,2.9
		c0.5,1,0,2.3-1,2.8c-1,0.5-2.3,0-2.8-1l-1.3-2.9c-1.3,1.5-1.7,3.7-0.8,5.6c0.9,1.9,2.8,3,4.8,3l0.6,1.4
		C43.8,57.1,44.8,56.6,46,56.6z"/>
	<path class="st0" d="M72.3,51.6c-1.3-1-3.2-0.8-4.3,0.5h0c-0.1,0.1-1.6,1.9-4.1,3.7c-2.5,1.7-6,3.3-10,3.3c-2,0-4.3-0.4-6.7-1.4
		c-1.6-0.7-3.3,0.1-4,1.6c-0.7,1.6,0.1,3.3,1.6,4c3.2,1.3,6.3,1.9,9.1,1.9c0,0,0,0,0,0c5.9,0,10.6-2.4,13.8-4.6
		c3.2-2.3,5-4.5,5.1-4.7C73.9,54.5,73.6,52.6,72.3,51.6z"/>
</g>
</svg>
