<?xml version="1.0" encoding="utf-8"?>
<!-- Generator: Adobe Illustrator 22.1.0, SVG Export Plug-In . SVG Version: 6.00 Build 0)  -->
<svg version="1.1" id="Layer_1" xmlns="http://www.w3.org/2000/svg" xmlns:xlink="http://www.w3.org/1999/xlink" x="0px" y="0px"
	 viewBox="0 0 100 100" style="enable-background:new 0 0 100 100;" xml:space="preserve">
<style type="text/css">
	.st0{fill:#FFFFFF;}
</style>
<g>
	<path class="st0" d="M16.3,52.2L13,55.5c-0.7,0.7-0.7,1.7,0,2.4c0.3,0.3,0.8,0.5,1.2,0.5s0.8-0.2,1.2-0.5l3.3-3.3
		c0.6-0.7,0.6-1.7,0-2.4C18,51.5,17,51.5,16.3,52.2z"/>
	<path class="st0" d="M17.5,48.3c0-0.9-0.8-1.7-1.7-1.7h-5c-0.9,0-1.7,0.8-1.7,1.7c0,0.9,0.8,1.7,1.7,1.7h5
		C16.8,50,17.5,49.2,17.5,48.3z"/>
	<path class="st0" d="M15.1,38.6c-0.6-0.7-1.7-0.7-2.4,0c-0.6,0.6-0.6,1.7,0,2.3l3.5,3.5c0.3,0.3,0.7,0.5,1.2,0.5s0.9-0.2,1.2-0.5
		c0.6-0.7,0.6-1.7,0-2.4L15.1,38.6z"/>
	<path class="st0" d="M68.9,63.8c2.3-4.1,3.6-8.8,3.6-13.8s-1.2-9.7-3.6-13.8c-2-3.5-3.1-7.4-3.1-11.2v-6.7h3.3
		c0.9,0,1.7-0.8,1.7-1.7v-10c0-0.9-0.8-1.7-1.7-1.7h-3.3V0h-30v5h-3.3c-0.9,0-1.7,0.8-1.7,1.7v10c0,0.9,0.7,1.7,1.7,1.7h3.3V25
		c0,3.8-1.1,7.7-3.1,11.2c-2.4,4.1-3.6,8.8-3.6,13.8s1.2,9.7,3.6,13.8c2,3.5,3.1,7.4,3.1,11.2v6.7h-3.3c-0.9,0-1.7,0.8-1.7,1.7v10
		c0,0.9,0.7,1.7,1.7,1.7h3.3v5h30v-5h3.3c0.9,0,1.7-0.8,1.7-1.7v-10c0-0.9-0.8-1.7-1.7-1.7h-3.3V75C65.8,71.1,66.9,67.3,68.9,63.8z
		 M39.2,3.3h23.3V5H39.2V3.3z M34.2,15V8.3h1.7h30h1.7V15h-1.7h-30H34.2z M62.5,96.7H39.2V95h23.3V96.7z M67.5,85v6.7h-1.7h-30h-1.7
		V85h1.7h30H67.5z M39.2,81.7V75c0-4.4-1.2-8.9-3.5-12.9c-2.1-3.6-3.2-7.8-3.2-12.1s1.1-8.5,3.2-12.1c2.3-4,3.5-8.5,3.5-12.9v-6.7
		h23.3V25c0,4.4,1.2,8.9,3.5,12.9c2.1,3.6,3.1,7.8,3.1,12.1s-1.1,8.5-3.1,12.1c-2.3,4-3.5,8.5-3.5,12.9v6.7H39.2z"/>
	<path class="st0" d="M82.5,44.8c0.4,0,0.8-0.2,1.2-0.5L87,41c0.7-0.6,0.7-1.7,0-2.3c-0.6-0.7-1.7-0.7-2.3,0L81.3,42
		c-0.6,0.6-0.6,1.7,0,2.4C81.7,44.6,82.1,44.8,82.5,44.8z"/>
	<path class="st0" d="M89.2,46.7h-5c-0.9,0-1.7,0.8-1.7,1.7c0,0.9,0.8,1.7,1.7,1.7h5c0.9,0,1.7-0.8,1.7-1.7
		C90.8,47.4,90.1,46.7,89.2,46.7z"/>
	<path class="st0" d="M83.7,52c-0.7-0.6-1.7-0.6-2.4,0c-0.6,0.6-0.6,1.7,0,2.4l3.5,3.5c0.3,0.3,0.8,0.5,1.2,0.5s0.8-0.2,1.2-0.5
		c0.6-0.7,0.6-1.7,0-2.4L83.7,52z"/>
</g>
</svg>
