<?xml version="1.0" encoding="utf-8"?>
<!-- Generator: Adobe Illustrator 22.1.0, SVG Export Plug-In . SVG Version: 6.00 Build 0)  -->
<svg version="1.1" id="Layer_1" xmlns="http://www.w3.org/2000/svg" xmlns:xlink="http://www.w3.org/1999/xlink" x="0px" y="0px"
	 viewBox="0 0 100 100" style="enable-background:new 0 0 100 100;" xml:space="preserve">
<style type="text/css">
	.st0{fill:#7CB434;}
</style>
<title>LEGAL_1</title>
<g>
	<path class="st0" d="M68.3,60c0,0.9-0.7,1.7-1.7,1.7H45c-0.9,0-1.7-0.7-1.7-1.7s0.7-1.7,1.7-1.7h21.7C67.6,58.3,68.3,59.1,68.3,60z
		 M66.7,71.7H45c-0.9,0-1.7,0.7-1.7,1.7c0,0.9,0.7,1.7,1.7,1.7h21.7c0.9,0,1.7-0.7,1.7-1.7C68.3,72.4,67.6,71.7,66.7,71.7z M66.7,45
		H45c-0.9,0-1.7,0.7-1.7,1.7c0,0.9,0.7,1.7,1.7,1.7h21.7c0.9,0,1.7-0.7,1.7-1.7C68.3,45.7,67.6,45,66.7,45z M95,23.3v48.3
		c0,0.9-0.7,1.7-1.7,1.7h-15V85c0,8.3-6.7,15-15,15H20c-8.3,0-15-6.7-15-15c0-0.9,0.7-1.7,1.7-1.7h11.7V15c0-0.9,0.7-1.7,1.7-1.7h15
		V1.7C35,0.7,35.7,0,36.7,0h35c0.4,0,0.8,0.2,1.1,0.4l0,0l0,0l21.7,21.7l0,0c0.1,0.1,0.2,0.3,0.3,0.5v0.1c0,0.1,0.1,0.3,0.1,0.4
		L95,23.3z M73.3,21.7h16l-16-16V21.7z M53.9,96.7c-3.1-2.5-5.1-6.1-5.5-10h-40c0.8,5.8,5.8,10,11.6,10H53.9z M75,38.3H55
		c-0.9,0-1.7-0.7-1.7-1.7v-20H21.7v66.7H50c0.9,0,1.7,0.7,1.7,1.7c0,6.4,5.2,11.7,11.7,11.7S75,91.4,75,85V38.3z M72.7,35l-16-16v16
		H72.7z M91.7,70V25h-20c-0.9,0-1.7-0.7-1.7-1.7v-20H38.3v10H55c0.4,0,0.8,0.2,1.1,0.4l0,0l0,0l21.7,21.7l0,0
		c0.1,0.1,0.2,0.3,0.3,0.5v0.2c0,0.1,0.1,0.3,0.1,0.4c0,0,0,0,0,0.1V70H91.7z M37.2,42.2l-5.5,5.5l-2.2-2.2
		c-0.7-0.6-1.8-0.5-2.3,0.2c-0.5,0.6-0.5,1.5,0,2.2l3.3,3.3c0.7,0.6,1.7,0.6,2.4,0l6.7-6.7c0.6-0.7,0.5-1.8-0.2-2.4
		C38.7,41.6,37.8,41.6,37.2,42.2L37.2,42.2z M37.2,55.5L31.7,61l-2.2-2.2c-0.7-0.6-1.8-0.5-2.3,0.2c-0.5,0.6-0.5,1.5,0,2.2l3.3,3.3
		c0.7,0.6,1.7,0.6,2.4,0l6.7-6.7c0.6-0.7,0.5-1.8-0.2-2.3C38.7,55,37.8,55,37.2,55.5L37.2,55.5z M37.2,68.8l-5.5,5.5l-2.2-2.2
		c-0.7-0.6-1.8-0.5-2.3,0.2c-0.5,0.6-0.5,1.5,0,2.2l3.3,3.3c0.7,0.6,1.7,0.6,2.4,0l6.7-6.7c0.6-0.7,0.5-1.8-0.2-2.4
		C38.7,68.3,37.8,68.3,37.2,68.8L37.2,68.8z M63.3,92.5c-4.1,0-7.5-3.4-7.5-7.5c0-0.5-0.4-0.8-0.8-0.8s-0.8,0.4-0.8,0.8
		c0,5.1,4.1,9.2,9.2,9.2c0.5,0,0.8-0.4,0.8-0.8C64.2,92.9,63.8,92.5,63.3,92.5z"/>
</g>
</svg>
