<?xml version="1.0" encoding="utf-8"?>
<!-- Generator: Adobe Illustrator 22.1.0, SVG Export Plug-In . SVG Version: 6.00 Build 0)  -->
<svg version="1.1" id="Layer_1" xmlns="http://www.w3.org/2000/svg" xmlns:xlink="http://www.w3.org/1999/xlink" x="0px" y="0px"
	 viewBox="0 0 100 100" style="enable-background:new 0 0 100 100;" xml:space="preserve">
<style type="text/css">
	.st0{fill:#7CB434;}
</style>
<path class="st0" d="M52.6,15.8c1.4,0,2.6-1.2,2.6-2.6V5c0-1.4-1.2-2.6-2.6-2.6S50,3.6,50,5v8.2C50,14.6,51.2,15.8,52.6,15.8z"/>
<path class="st0" d="M97.4,47.3l-8.2,0c-1.4,0-2.6,1.2-2.6,2.6c0,1.4,1.1,2.6,2.6,2.6h8.2c1.4,0,2.6-1.1,2.6-2.6
	C100,48.5,98.8,47.3,97.4,47.3z"/>
<path class="st0" d="M93.7,26.2c-0.7-1.2-2.3-1.7-3.5-0.9l-7.1,4.1c-1.2,0.7-1.6,2.3-0.9,3.5c0.7,1.2,2.3,1.7,3.5,0.9l7.1-4.1
	C93.9,29,94.4,27.4,93.7,26.2z"/>
<path class="st0" d="M76.3,8.8c-1.2-0.7-2.8-0.3-3.5,0.9l-4.1,7.1c-0.7,1.2-0.3,2.8,1,3.5c1.2,0.7,2.8,0.3,3.5-0.9l4.1-7.1
	C77.9,11.1,77.5,9.5,76.3,8.8z"/>
<path class="st0" d="M52.6,84c1.4,0,2.6,1.2,2.6,2.6v8.2c0,1.4-1.2,2.6-2.6,2.6S50,96.1,50,94.7v-8.2C50,85.1,51.2,84,52.6,84z"/>
<path class="st0" d="M93.7,73.6c-0.7,1.2-2.3,1.7-3.5,0.9l-7.1-4.1c-1.2-0.7-1.6-2.3-0.9-3.5c0.7-1.2,2.3-1.7,3.5-1l7.1,4.1
	C93.9,70.8,94.4,72.4,93.7,73.6z"/>
<path class="st0" d="M76.3,90.9c-1.2,0.7-2.8,0.3-3.5-1l-4.1-7.1c-0.7-1.2-0.3-2.8,1-3.5c1.2-0.7,2.8-0.3,3.5,0.9l4.1,7.1
	C77.9,88.7,77.5,90.2,76.3,90.9z"/>
<path class="st0" d="M65.6,34L53.7,44c-0.4-0.1-0.8-0.1-1.2-0.1c-3.3,0-6,2.7-6,6s2.7,6,6,6c3.3,0,6-2.7,6-6c0-0.4,0-0.8-0.1-1.1
	l9.9-11.8c0.7-0.8,0.7-2.1-0.1-2.8C67.6,33.4,66.4,33.4,65.6,34z"/>
<path class="st0" d="M36.3,70.3c-1.1,0-3.3,0.2-6,0v24.4c3,0.6,5.3,0.7,6.1,0.7c1.9,0,4.3-1.7,4.3-5.3c0-2.6,0-11.1,0-14.3
	C40.8,72.1,38.2,70.3,36.3,70.3z"/>
<path class="st0" d="M26.6,69.6c-5.8-1.6-11.8-6.2-11.8-19.7s6-18.2,11.8-19.7V6C15.7,9.4,0,19.4,0,49.9c0,30.4,15.7,40.5,26.6,43.8
	V69.6z"/>
<path class="st0" d="M36.4,4.4c-0.8,0-3.1,0.1-6.1,0.7v24.4c2.7-0.2,4.9,0,6,0c1.9,0,4.4-1.8,4.4-5.6c0-3.1,0-11.6,0-14.3
	C40.8,6.1,38.4,4.4,36.4,4.4z"/>
</svg>
