<?xml version="1.0" encoding="utf-8"?>
<!-- Generator: Adobe Illustrator 22.1.0, SVG Export Plug-In . SVG Version: 6.00 Build 0)  -->
<svg version="1.1" id="Layer_1" xmlns="http://www.w3.org/2000/svg" xmlns:xlink="http://www.w3.org/1999/xlink" x="0px" y="0px"
	 viewBox="0 0 100 100" style="enable-background:new 0 0 100 100;" xml:space="preserve">
<style type="text/css">
	.st0{fill:#FFFFFF;}
</style>
<g>
	<path class="st0" d="M98.3,30H83c-0.7-2-2.6-3.3-4.7-3.3H75c-2.1,0-4,1.3-4.7,3.3h-2c-15.1,0-27.5,11.9-28.3,26.9
		c-2,0.7-3.4,2.6-3.4,4.7V65c0,2.1,1.3,4,3.3,4.7v2c0,4.6-3.7,8.3-8.3,8.3s-8.3-3.7-8.3-8.3V13c2-0.7,3.3-2.6,3.3-4.7V5
		c0-2.8-2.2-5-5-5H5C2.2,0,0,2.2,0,5v3.3c0,2.1,1.3,4,3.3,4.7v58.6C3.3,87.3,16,100,31.7,100S60,87.3,60,71.7v-2
		c2-0.7,3.3-2.6,3.3-4.7v-3.3c0-2.1-1.3-3.9-3.2-4.7c0.6-4,4.1-7,8.2-7h2c0.7,2,2.6,3.3,4.7,3.3h3.3c2.1,0,4-1.3,4.7-3.3h15.3
		c0.9,0,1.7-0.7,1.7-1.7V31.7C100,30.7,99.3,30,98.3,30z M30,83.3c1.8,0,3.3,1.5,3.3,3.3c0,1.8-1.5,3.3-3.3,3.3s-3.3-1.5-3.3-3.3
		C26.7,84.8,28.2,83.3,30,83.3z M3.3,8.3V5c0-0.9,0.7-1.7,1.7-1.7h16.7c0.9,0,1.7,0.7,1.7,1.7v3.3c0,0.9-0.7,1.7-1.7,1.7H5
		C4.1,10,3.3,9.3,3.3,8.3z M7,75.3c-0.2-1.2-0.3-2.4-0.3-3.6V13.3H20v56.9c-0.5-0.1-0.9-0.2-1.4-0.2c-3.2,0-4.7,2.2-6,4
		c-1.2,1.6-1.9,2.5-3.3,2.5C8.3,76.6,7.5,76.1,7,75.3z M21.7,93.3c-0.9,0-1.7-0.7-1.7-1.7c0-0.9,0.7-1.7,1.7-1.7
		c0.9,0,1.7,0.7,1.7,1.7C23.3,92.6,22.6,93.3,21.7,93.3z M21.7,86.7c-2.7,0-5,2.2-5,5c-4-3-7-7.1-8.6-11.8c0.4,0.1,0.8,0.1,1.2,0.1
		c3.2,0,4.7-2.2,6-3.9c1.2-1.6,1.9-2.5,3.3-2.5c0.6,0,1.2,0.2,1.7,0.6c0.7,3.2,2.6,5.9,5.4,7.6c-1.5,1.2-2.3,3.1-2.3,5
		c0,0.1,0,0.2,0,0.3C22.8,86.8,22.2,86.7,21.7,86.7z M31.7,96.7c-2.4,0-4.7-0.3-7-1c1.1-0.8,1.8-2,2-3.3c1,0.6,2.2,1,3.4,1
		c0.6,0,1.1-0.1,1.7-0.3c0,0.1,0,0.2,0,0.3c0,1.5,1,2.8,2.5,3.2C33.3,96.6,32.5,96.7,31.7,96.7z M36.8,96.1c1.5-1,2-3,1-4.6
		c-0.5-0.7-1.2-1.3-2.1-1.5c1.4-2.3,1.3-5.2-0.3-7.3c2.4-0.8,4.5-2.4,6-4.5c0.2,0.3,0.5,0.7,0.8,1.1c1.2,1.8,2.8,3.9,6,3.9
		s4.8-2.2,6-3.9c0.5-0.8,1.2-1.5,1.9-2.1C53.9,86.7,46.4,94.1,36.8,96.1z M56.7,71.7c0,0.6,0,1.2-0.1,1.8c-2.2,0.5-4.1,1.9-5.2,3.9
		c-1.2,1.6-1.9,2.6-3.3,2.6c-1.4,0-2.1-0.9-3.3-2.6c-0.6-0.8-1.2-1.6-2-2.3c0.3-1.1,0.5-2.2,0.5-3.4V70h13.3V71.7z M60,65
		c0,0.9-0.7,1.7-1.7,1.7H41.7c-0.9,0-1.7-0.7-1.7-1.7v-3.3c0-0.9,0.7-1.7,1.7-1.7h16.7c0.9,0,1.7,0.7,1.7,1.7V65z M70,46.7h-1.7
		c-5.8,0-10.7,4.3-11.5,10H43.4c0.9-13.1,11.8-23.3,24.9-23.3H70V46.7z M80,48.3c0,0.9-0.7,1.7-1.7,1.7H75c-0.9,0-1.7-0.7-1.7-1.7
		V31.7c0-0.9,0.7-1.7,1.7-1.7h3.3c0.9,0,1.7,0.7,1.7,1.7V48.3z M96.7,46.7H83.3V33.3h13.3V46.7z"/>
	<rect x="40" y="86.7" class="st0" width="3.3" height="3.3"/>
	<rect x="13.3" y="81.7" class="st0" width="3.3" height="3.3"/>
</g>
</svg>
