<?xml version="1.0" encoding="utf-8"?>
<!-- Generator: Adobe Illustrator 22.1.0, SVG Export Plug-In . SVG Version: 6.00 Build 0)  -->
<svg version="1.1" id="Layer_1" xmlns="http://www.w3.org/2000/svg" xmlns:xlink="http://www.w3.org/1999/xlink" x="0px" y="0px"
	 viewBox="0 0 100 100" style="enable-background:new 0 0 100 100;" xml:space="preserve">
<style type="text/css">
	.st0{fill:#7CB434;}
</style>
<title>Plumber-job-avatar-profession-occupation-repair</title>
<path class="st0" d="M87.9,65.6c-1.2-6.7-6-12.2-12.5-14.2l-12.2-3.8c2.1-2.2,3.7-5,4.4-8l4.5-2.2c1.7-0.8,2.8-2.6,2.8-4.5v-1.3
	c0-2.8-2.2-5-5-5h-1.7V15c0-8.3-6.7-15-15-15h-10c-8.3,0-15,6.7-15,15v11.6h-1.7c-2.8,0-5,2.2-5,5v1.3c0,1.9,1.1,3.6,2.8,4.5
	l4.5,2.2c0.8,3,2.3,5.8,4.4,8l-12.2,3.8c-7.7,2.4-12.9,9.5-12.9,17.5V100h80V77.4l2.2-2.2c1.9-2,1.9-5.1,0-7.1L87.9,65.6z M83,61.7
	c-3.1-1.2-6.6-0.5-9,1.8L65.5,72c-1.6,1.6-1.9,4.1-0.8,6.1l2.3,3.9c0.4,0.7,0.3,1.5-0.3,2l-7.2,7.2c-0.9,0.9-1.5,2.2-1.5,3.5V95
	c0,0.6,0.1,1.1,0.3,1.7h-8.6V78.9L59,66.7h5l9.3-12.4l1,0.3C78,55.8,81.1,58.3,83,61.7z M37.7,51.2l0.9,0.5l5.9,19.9l-7.2-8.2h-4.7
	l-5.2-10.4l8.8-2.8C36.7,50.5,37.2,50.9,37.7,51.2z M60.2,50.2l9.8,3.1l-7.6,10.1h-5l-5,6.6l5.4-18.3l0.9-0.5
	C59.2,50.9,59.7,50.5,60.2,50.2L60.2,50.2z M48.2,72.4l-2.7-9.1h5.3L48.2,72.4z M51.8,60h-7.3l-1.8-6.2c3.5,1.6,7.5,1.6,11,0
	L51.8,60z M69.9,30c0.9,0,1.7,0.7,1.7,1.7v1.3c0,0.6-0.4,1.2-0.9,1.5l-2.4,1.2c0-0.2,0-0.4,0-0.5V30H69.9z M31.5,15
	c0-6.4,5.2-11.7,11.7-11.7h10c6.4,0,11.7,5.2,11.7,11.7v3.3H31.5V15z M63.4,21.7l-1,1.5c-2.2,3.2-5.8,5.2-9.7,5.2h-9.1
	c-3.9,0-7.5-1.9-9.7-5.2l-1-1.5H63.4z M25.8,34.4c-0.6-0.3-0.9-0.9-0.9-1.5v-1.3c0-0.9,0.7-1.7,1.7-1.7h1.7v5.1c0,0.2,0,0.4,0,0.5
	L25.8,34.4z M31.5,25.4c2.8,3.9,7.3,6.2,12.1,6.2h9.1c4.8,0,9.3-2.3,12.1-6.2v9.6c0,5.5-3,10.5-7.8,13.2L53,50.4
	c-3,1.6-6.6,1.6-9.6,0l-4.1-2.2c-4.8-2.6-7.8-7.7-7.8-13.2V25.4z M11.5,68.9c0-6.6,4.3-12.4,10.5-14.3l2.1-0.7l6.4,12.7h5.3L46.5,79
	v17.7H29.9V80h-3.3v16.7h-15V68.9z M68.9,96.7l11.5-11.5c1.9-2,1.9-5.1,0-7.1L77.2,75l1.5-1.5c0.7-0.7,1.7-0.7,2.4,0c0,0,0,0,0,0
	l3.8,3.8v19.3H68.9z M88,72.8l-1.5,1.5l-3.1-3.1c-2-1.9-5.1-1.9-7.1,0L72.5,75l5.5,5.5c0.6,0.7,0.6,1.7,0,2.4L64.7,96.2
	c-0.3,0.3-0.7,0.5-1.2,0.5h-0.3c-0.9,0-1.7-0.7-1.7-1.7v-0.3c0-0.4,0.2-0.9,0.5-1.2l7.2-7.2c1.6-1.6,1.9-4.1,0.8-6.1l-2.3-3.9
	c-0.4-0.7-0.3-1.5,0.3-2l8.4-8.4c2-1.9,5.1-1.9,7.1,0l4.6,4.6C88.6,71.1,88.6,72.2,88,72.8z"/>
</svg>
