<?xml version="1.0" encoding="utf-8"?>
<!-- Generator: Adobe Illustrator 22.1.0, SVG Export Plug-In . SVG Version: 6.00 Build 0)  -->
<svg version="1.1" id="Layer_1" xmlns="http://www.w3.org/2000/svg" xmlns:xlink="http://www.w3.org/1999/xlink" x="0px" y="0px"
	 viewBox="0 0 80 80" style="enable-background:new 0 0 80 80;" xml:space="preserve">
<style type="text/css">
	.st0{fill:#FFFFFF;}
</style>
<title>pictogramas_v02</title>
<path class="st0" d="M79.7,42.8c-0.3-0.8-1.2-1.1-2-0.8c0,0,0,0,0,0c-0.9,0.3-1.8,0.4-2.8,0.3c1.2-2.7,1.8-5.6,0.1-8.5
	c-1-1.7-2.9-2.8-4.9-2.7c-1.9,0.2-3.5,1.6-4.1,3.5c-0.9,2.4,0.1,5.3,2.6,7.7c0.6,0.6,1.3,1.1,2,1.6c-0.6,0.8-1.5,1.5-2.5,1.7
	c-1.2,0.3-2.5-0.2-4-1.2l0,0c-1.3-4.9-4.1-9.3-8.1-12.4c-0.6-0.6-1.6-0.6-2.2,0.1c-0.6,0.6-0.6,1.6,0.1,2.2c0.1,0,0.1,0.1,0.2,0.1
	c4.8,4,7.5,9.3,7.5,14.9c0,6.2-3.3,12.1-9.2,16.1c-0.5,0.3-0.8,1-0.6,1.6l1.9,9.4h-8.4c-0.2,0-0.5-0.2-0.6-0.4l-1.1-5
	c-0.2-0.8-1-1.3-1.8-1.2c-4.6,0.8-9.4,0.8-14,0c-0.8-0.2-1.6,0.4-1.8,1.2l-1.1,5c-0.1,0.2-0.3,0.4-0.6,0.4h-8.4l1.9-8.7
	c0.2-0.8-0.3-1.6-1-1.8c-3.4-1.1-6.2-3.8-7.4-7.2c-0.2-0.6-0.8-1-1.4-1H3.9c-0.3,0-0.7,0-1-0.1v-9.7c0-1.2,0.6-1.2,1-1.2h3.2
	c0.7,0,1.3-0.5,1.5-1.2c0.7-3.1,2.2-6,4.4-8.4c0.3-0.3,0.4-0.7,0.4-1.1c-0.3-3.7-1.7-6-3.2-8.4l-0.4-0.6c4.9-0.2,8.9,0.9,11.6,3.1
	c0.4,0.4,1,0.5,1.5,0.3c1.9-0.7,4-1.3,6-1.6c0.8-0.1,1.4-0.9,1.3-1.7c-0.1-0.8-0.9-1.4-1.7-1.3c0,0-0.1,0-0.1,0
	c-2,0.3-3.9,0.8-5.8,1.5c-2.8-2-7.7-4-15.6-3c-0.8,0.1-1.4,0.9-1.3,1.7c0,0.2,0.1,0.4,0.2,0.5c0.6,1.1,1.1,2,1.6,2.8
	c1.3,2.1,2.3,3.8,2.6,6.4c-2,2.4-3.5,5.1-4.3,8.1h-2c-2.4,0-4,1.7-4,4.3v9.6c0,3.3,3.1,3.3,4.1,3.3h3.2c1.5,3.4,4.2,6,7.6,7.5
	L13,75.9c-0.2,0.8,0,1.7,0.6,2.3c0.6,0.7,1.5,1.1,2.4,1.1l0,0l8.5-0.1c1.7,0,3.1-1.2,3.5-2.8l0.7-3.6c4.1,0.6,8.2,0.6,12.2,0
	l0.7,3.5c0.4,1.6,1.9,2.8,3.5,2.8l8.5,0.1l0,0c0.9,0,1.8-0.4,2.4-1.1c0.5-0.7,0.7-1.5,0.6-2.3l-1.7-8.7c6.2-4.6,9.7-11.1,9.7-18
	c0-0.3,0-0.7,0-1c1.3,0.6,2.7,0.7,4.1,0.4c2-0.5,3.6-1.7,4.7-3.5c1.8,0.5,3.7,0.5,5.4-0.2C79.7,44.5,80,43.6,79.7,42.8
	C79.7,42.8,79.7,42.8,79.7,42.8z M72.1,41.1c-0.5-0.3-1-0.7-1.4-1.1c-1.5-1.5-2.2-3.2-1.8-4.4c0.3-0.9,0.9-1.4,1.5-1.5h0.1
	c0.8,0.1,1.5,0.5,1.9,1.2C73.4,37.1,73.1,38.9,72.1,41.1L72.1,41.1z"/>
<path class="st0" d="M45.6,30.1c7.9,0,14.4-6.4,14.4-14.4c0-7.9-6.4-14.4-14.4-14.4c-7.9,0-14.4,6.4-14.4,14.4
	C31.2,23.6,37.6,30.1,45.6,30.1z M45.6,4.4c6.3,0,11.3,5.1,11.3,11.3S51.8,27,45.6,27c-6.3,0-11.3-5.1-11.3-11.3c0,0,0,0,0,0
	C34.3,9.4,39.3,4.4,45.6,4.4L45.6,4.4z"/>
</svg>
