<?xml version="1.0" encoding="utf-8"?>
<!-- Generator: Adobe Illustrator 22.1.0, SVG Export Plug-In . SVG Version: 6.00 Build 0)  -->
<svg version="1.1" id="Layer_1" xmlns="http://www.w3.org/2000/svg" xmlns:xlink="http://www.w3.org/1999/xlink" x="0px" y="0px"
	 viewBox="0 0 100 100" style="enable-background:new 0 0 100 100;" xml:space="preserve">
<style type="text/css">
	.st0{fill:#7CB434;}
</style>
<title>Shower</title>
<g>
	<g>
		<path class="st0" d="M90,60c-1.1,0-2-0.9-2-2V12c0-4.4-3.6-8-8-8c-2.1,0-4.2,0.8-5.7,2.4c-0.7,0.7-1.3,1.6-1.7,2.5
			c-0.5,1-1.7,1.4-2.7,1c-0.9-0.4-1.4-1.5-1-2.5c0.6-1.4,1.5-2.7,2.5-3.8c4.7-4.7,12.3-4.7,17,0C90.7,5.7,92,8.8,92,12v46
			C92,59.1,91.1,60,90,60z"/>
		<path class="st0" d="M76,16H64c-1.1,0-2-0.9-2-2c0-4.4,3.6-8,8-8c0.4,0,0.7,0,1.1,0c4,0.6,6.9,4,6.9,8C78,15.1,77.1,16,76,16z
			 M66.5,12h6.9c-0.6-1.1-1.7-1.8-2.9-2H70C68.6,10,67.3,10.8,66.5,12z"/>
		<path class="st0" d="M70,26c-1.1,0-2-0.9-2-2v-4c0-1.1,0.9-2,2-2s2,0.9,2,2v4C72,25.1,71.1,26,70,26z"/>
		<path class="st0" d="M62,24c-1.1,0-2-0.9-2-2c0-0.5,0.2-1.1,0.6-1.4l2-2c0.8-0.7,2.1-0.6,2.8,0.2c0.6,0.7,0.6,1.9,0,2.6l-2,2
			C63,23.8,62.5,24,62,24z"/>
		<path class="st0" d="M78,24c-0.5,0-1-0.2-1.4-0.6l-2-2c-0.7-0.8-0.6-2.1,0.2-2.8c0.7-0.6,1.9-0.6,2.6,0l2,2c0.8,0.8,0.8,2.1,0,2.8
			C79,23.8,78.5,24,78,24z"/>
		<path class="st0" d="M66,92H34C18.5,92,4.9,81.5,1.1,66.5c-0.3-1.1,0.4-2.2,1.4-2.4C2.7,64,2.8,64,3,64h94c1.1,0,2,0.8,2.1,1.9
			c0,0.2,0,0.4-0.1,0.6C95.1,81.5,81.5,92,66,92z M5.7,68C9.9,80,21.3,88,34,88h32c12.7,0,24.1-8,28.3-20H5.7z"/>
		<path class="st0" d="M98,68H2c-1.1,0-2-0.9-2-2v-8c0-1.1,0.9-2,2-2h96c1.1,0,2,0.9,2,2v8C100,67.1,99.1,68,98,68z M4,64h92v-4H4
			V64z"/>
		<path class="st0" d="M38,100h-8c-1.1,0-2-0.9-2-2v-8c0-1.1,0.9-2,2-2h8c1.1,0,2,0.9,2,2v8C40,99.1,39.1,100,38,100z M32,96h4v-4
			h-4V96z"/>
		<path class="st0" d="M70,100h-8c-1.1,0-2-0.9-2-2v-8c0-1.1,0.9-2,2-2h8c1.1,0,2,0.9,2,2v8C72,99.1,71.1,100,70,100z M64,96h4v-4
			h-4V96z"/>
	</g>
</g>
</svg>
