<?xml version="1.0" encoding="utf-8"?>
<!-- Generator: Adobe Illustrator 22.1.0, SVG Export Plug-In . SVG Version: 6.00 Build 0)  -->
<svg version="1.1" id="Layer_1" xmlns="http://www.w3.org/2000/svg" xmlns:xlink="http://www.w3.org/1999/xlink" x="0px" y="0px"
	 viewBox="0 0 100 100" style="enable-background:new 0 0 100 100;" xml:space="preserve">
<style type="text/css">
	.st0{fill:#7CB434;}
</style>
<g>
	<path class="st0" d="M77.9,27.6h6.9c1,0,1.7-0.7,1.7-1.7v-5.2C86.5,9.3,77.2,0,65.8,0c-7.1,0-13.4,3.4-17.4,9.5l0,0l0,0l0,0l0,0
		c-2.1,3.3-3.3,7.2-3.3,11.2v27.6h-6.9c-1,0-1.7,0.7-1.7,1.7h-3.4v-3.4h4.3c2.4,0,4.3-1.9,4.3-4.3S39.8,38,37.4,38H25.3
		c-2.4,0-4.3,1.9-4.3,4.3s1.9,4.3,4.3,4.3h4.3V50h-3.4c-1,0-1.7,0.7-1.7,1.7v3.4h-5.2c-2.9,0-5.2,2.2-5.2,5.2c0,2.2,1.4,4.1,3.4,4.8
		v5.5c0,11.2,8.3,20.5,19.1,22.1c0.7,4.1,4.1,7.2,8.4,7.2h10.3c4.3,0,7.8-3.1,8.4-7.2c10.9-1.6,19.1-10.9,19.1-22.1v-5.5
		c2.1-0.7,3.4-2.6,3.4-4.8c0-2.9-2.2-5.2-5.2-5.2h-5.2v-3.4c0-1-0.7-1.7-1.7-1.7H71v-3.4h4.3c2.4,0,4.3-1.9,4.3-4.3S77.7,38,75.3,38
		H63.2c-2.4,0-4.3,1.9-4.3,4.3s1.9,4.3,4.3,4.3h4.3V50h-3.4c0-1-0.7-1.7-1.7-1.7h-6.9V20.7c0-5.7,4.7-10.3,10.3-10.3
		S76.2,15,76.2,20.7v5.2C76.2,26.9,76.9,27.6,77.9,27.6z M24.4,42.3c0-0.5,0.3-0.9,0.9-0.9h12.1c0.5,0,0.9,0.3,0.9,0.9
		s-0.3,0.9-0.9,0.9H25.3C24.8,43.1,24.4,42.8,24.4,42.3z M62.4,42.3c0-0.5,0.3-0.9,0.9-0.9h12.1c0.5,0,0.9,0.3,0.9,0.9
		s-0.3,0.9-0.9,0.9H63.2C62.7,43.1,62.4,42.8,62.4,42.3z M83.1,24.2h-3.4v-1.7h3.4V24.2z M27.9,53.5h8.6v1.7h-8.6V53.5z M55.5,96.6
		H45.1c-2.2,0-4.1-1.4-4.8-3.4h20.2C59.6,95.2,57.7,96.6,55.5,96.6z M79.6,70.7c0,10.5-8.4,19-19,19H40c-10.5,0-19-8.4-19-19v-5.2
		h58.6V70.7z M83.1,60.4c0,1-0.7,1.7-1.7,1.7H19.3c-1,0-1.7-0.7-1.7-1.7c0-1,0.7-1.7,1.7-1.7h6.9h12.1h24.1h12.1h6.9
		C82.4,58.6,83.1,59.3,83.1,60.4z M72.7,53.5v1.7h-8.6v-1.7H72.7z M60.6,55.2H40v-3.4h6.9h6.9h6.9V55.2z M65.8,6.9
		C58.2,6.9,52,13.1,52,20.7v27.6h-3.4V20.7c0-3.4,1-6.6,2.8-9.5l0,0l0,0c3.3-4.8,8.6-7.8,14.5-7.8c9,0,16.2,6.9,17.1,15.5h-3.4
		C78.6,12.3,72.9,6.9,65.8,6.9z"/>
</g>
</svg>
