<svg xmlns="http://www.w3.org/2000/svg" xmlns:xlink="http://www.w3.org/1999/xlink" version="1.1" x="0px" y="0px" viewBox="0 0 64 80" style="enable-background:new 0 0 64 64;" xml:space="preserve"><g><path d="M56.923,18.615l-1.846,0.77L56.584,23H50v2h7.417l2.5,6l-2.5,6H42.164c-2.676-2.474-6.24-4-10.164-4s-7.488,1.526-10.164,4   H5v2h15.028C18.136,41.51,17,44.621,17,48c0,8.271,6.729,15,15,15s15-6.729,15-15c0-3.379-1.136-6.49-3.028-9h12.612l-1.506,3.615   l1.846,0.77L62.083,31L56.923,18.615z M32,61c-7.168,0-13-5.832-13-13s5.832-13,13-13s13,5.832,13,13S39.168,61,32,61z"/><path d="M9.01,32.59l17.622-9.545l2.216,2.216l-4.11,0.514C23.177,25.97,22,27.303,22,28.875C22,30.598,23.402,32,25.125,32   c0.617,0,1.241-0.035,1.855-0.103l8.821-0.98l1.28-5.123l-4.22-5.907l5.416-0.774L40.246,26H46c1.654,0,3-1.346,3-3s-1.346-3-3-3   h-1.181l-0.889-4.445l-3.919-4.702C39.031,9.675,37.59,9,36.058,9c-0.239,0-0.477,0.021-0.713,0.054l-4.204-2.102l-8.57,1.714   C21.081,8.964,20,10.283,20,11.802C20,13.565,21.435,15,23.198,15h0.55l-0.283,0.154L5.581,26.45C4.591,27.075,4,28.148,4,29.319   v0.287C4,31.478,5.522,33,7.394,33C7.957,33,8.517,32.858,9.01,32.59z M34.198,29.083L26.76,29.91   C26.219,29.97,25.669,30,25.125,30C24.505,30,24,29.496,24,28.875c0-0.566,0.424-1.045,0.985-1.116l8.167-1.021l-4.687-4.687   l2.513-1.361l3.939,5.515L34.198,29.083z M24.018,12.985C23.955,12.995,23.893,13,23.83,13h-0.632C22.537,13,22,12.462,22,11.802   c0-0.569,0.405-1.063,0.963-1.175l7.896-1.579l1.982,0.991l-4.037,2.203L24.018,12.985z M6,29.606v-0.287   c0-0.481,0.243-0.922,0.649-1.178l17.829-11.263l10.071-5.494C35.012,11.133,35.533,11,36.058,11c0.938,0,1.818,0.413,2.417,1.132   l3.595,4.313L43.181,22H46c0.552,0,1,0.449,1,1s-0.448,1-1,1h-4.246l-2.032-7.113l-8.04,1.148L8.056,30.832   C7.854,30.942,7.625,31,7.394,31C6.625,31,6,30.375,6,29.606z"/><path d="M45,13c3.309,0,6-2.691,6-6s-2.691-6-6-6s-6,2.691-6,6S41.691,13,45,13z M45,3c2.206,0,4,1.794,4,4s-1.794,4-4,4   s-4-1.794-4-4S42.794,3,45,3z"/><rect x="1" y="37" width="2" height="2"/><rect x="1" y="16" width="2" height="2"/><rect x="5" y="16" width="10" height="2"/><rect x="3" y="12" width="2" height="2"/><rect x="7" y="12" width="11" height="2"/><rect x="5" y="8" width="2" height="2"/><rect x="9" y="8" width="10" height="2"/><path d="M32,37c-6.065,0-11,4.935-11,11v1h1h1h1v-2h-0.941c0.102-0.916,0.343-1.791,0.699-2.604l0.814,0.47l1-1.732l-0.806-0.465   c0.536-0.726,1.177-1.366,1.903-1.903l0.465,0.806l1.732-1l-0.47-0.813c0.813-0.357,1.687-0.598,2.603-0.699V40h2v-0.941   c0.916,0.102,1.791,0.343,2.603,0.699l-0.47,0.813l1.732,1l0.465-0.806c0.726,0.536,1.366,1.177,1.903,1.903l-0.806,0.465l1,1.732   l0.814-0.47c0.357,0.813,0.598,1.687,0.699,2.604H40v2h1h1h1v-1C43,41.935,38.065,37,32,37z"/><rect x="30.199" y="48.5" transform="matrix(0.5812 -0.8137 0.8137 0.5812 -25.8325 48.8025)" width="8.602" height="1.999"/><rect x="31" y="56" width="2" height="2"/><rect x="35" y="56" width="2" height="2"/><rect x="27" y="56" width="2" height="2"/></g><text x="0" y="79" fill="#000000" font-size="5px" font-weight="bold" font-family="'Helvetica Neue', Helvetica, Arial-Unicode, Arial, Sans-serif">Created by Eucalyp</text><text x="0" y="84" fill="#000000" font-size="5px" font-weight="bold" font-family="'Helvetica Neue', Helvetica, Arial-Unicode, Arial, Sans-serif">from the Noun Project</text></svg>