<?xml version="1.0" encoding="utf-8"?>
<!-- Generator: Adobe Illustrator 22.1.0, SVG Export Plug-In . SVG Version: 6.00 Build 0)  -->
<svg version="1.1" id="Layer_1" xmlns="http://www.w3.org/2000/svg" xmlns:xlink="http://www.w3.org/1999/xlink" x="0px" y="0px"
	 viewBox="0 0 80 80" style="enable-background:new 0 0 80 80;" xml:space="preserve">
<style type="text/css">
	.st0{fill:#FFFFFF;}
</style>
<g>
	<path class="st0" d="M72.4,22.4l-2.4,1L72,28h-8.4v2.5h9.5l3.2,7.6l-3.2,7.6H53.6c-3.4-3.2-8-5.1-13-5.1s-9.5,1.9-13,5.1H6.3v2.5
		h19.1c-2.4,3.2-3.9,7.2-3.9,11.5c0,10.5,8.6,19.1,19.1,19.1s19.1-8.6,19.1-19.1c0-4.3-1.4-8.3-3.9-11.5H72L70.1,53l2.4,1L79,38.2
		L72.4,22.4z M40.7,76.5c-9.1,0-16.6-7.4-16.6-16.6s7.4-16.6,16.6-16.6s16.6,7.4,16.6,16.6S49.8,76.5,40.7,76.5z"/>
	<path class="st0" d="M11.4,40.3l22.5-12.2l2.8,2.8l-5.2,0.7c-2,0.2-3.5,1.9-3.5,4c0,2.2,1.8,4,4,4c0.8,0,1.6,0,2.4-0.1l11.2-1.2
		l1.6-6.5l-5.4-7.5l6.9-1l2.5,8.8h7.3c2.1,0,3.8-1.7,3.8-3.8s-1.7-3.8-3.8-3.8H57l-1.1-5.7l-5-6c-1.2-1.5-3.1-2.4-5-2.4
		c-0.3,0-0.6,0-0.9,0.1l-5.4-2.7L28.7,9.8c-1.9,0.4-3.3,2.1-3.3,4c0,2.2,1.8,4.1,4.1,4.1h0.7L29.8,18L7,32.4c-1.3,0.8-2,2.2-2,3.7
		v0.4c0,2.4,1.9,4.3,4.3,4.3C10,40.8,10.7,40.6,11.4,40.3z M43.5,35.8L34,36.8c-0.7,0.1-1.4,0.1-2.1,0.1c-0.8,0-1.4-0.6-1.4-1.4
		c0-0.7,0.5-1.3,1.3-1.4l10.4-1.3l-6-6l3.2-1.7l5,7L43.5,35.8z M30.5,15.3c-0.1,0-0.2,0-0.2,0h-0.8c-0.8,0-1.5-0.7-1.5-1.5
		c0-0.7,0.5-1.4,1.2-1.5l10.1-2l2.5,1.3l-5.1,2.8L30.5,15.3z M7.5,36.4v-0.4c0-0.6,0.3-1.2,0.8-1.5l22.7-14.4l12.8-7
		c0.6-0.3,1.3-0.5,1.9-0.5c1.2,0,2.3,0.5,3.1,1.4l4.6,5.5l1.4,7.1h3.6c0.7,0,1.3,0.6,1.3,1.3c0,0.7-0.6,1.3-1.3,1.3h-5.4l-2.6-9.1
		l-10.2,1.5L10.2,38c-0.3,0.1-0.5,0.2-0.8,0.2C8.3,38.2,7.5,37.4,7.5,36.4z"/>
	<path class="st0" d="M57.2,15.3c4.2,0,7.6-3.4,7.6-7.6S61.4,0,57.2,0s-7.6,3.4-7.6,7.6S53,15.3,57.2,15.3z M57.2,2.5
		c2.8,0,5.1,2.3,5.1,5.1s-2.3,5.1-5.1,5.1c-2.8,0-5.1-2.3-5.1-5.1S54.4,2.5,57.2,2.5z"/>
	<rect x="1.2" y="45.9" class="st0" width="2.5" height="2.5"/>
	<rect x="1.2" y="19.1" class="st0" width="2.5" height="2.5"/>
	<rect x="6.3" y="19.1" class="st0" width="12.7" height="2.5"/>
	<rect x="3.7" y="14" class="st0" width="2.5" height="2.5"/>
	<rect x="8.8" y="14" class="st0" width="14" height="2.5"/>
	<rect x="6.3" y="8.9" class="st0" width="2.5" height="2.5"/>
	<rect x="11.4" y="8.9" class="st0" width="12.7" height="2.5"/>
	<path class="st0" d="M40.7,45.9c-7.7,0-14,6.3-14,14v1.3h1.3h1.3h1.3v-2.5h-1.2c0.1-1.2,0.4-2.3,0.9-3.3l1,0.6l1.3-2.2l-1-0.6
		c0.7-0.9,1.5-1.7,2.4-2.4l0.6,1l2.2-1.3l-0.6-1c1-0.5,2.1-0.8,3.3-0.9v1.2h2.5v-1.2c1.2,0.1,2.3,0.4,3.3,0.9l-0.6,1l2.2,1.3l0.6-1
		c0.9,0.7,1.7,1.5,2.4,2.4l-1,0.6l1.3,2.2l1-0.6c0.5,1,0.8,2.1,0.9,3.3h-1.2v2.5h1.3h1.3h1.3v-1.3C54.7,52.2,48.4,45.9,40.7,45.9z"
		/>
	<rect x="38.4" y="60.5" transform="matrix(0.5812 -0.8137 0.8137 0.5812 -31.9238 61.5611)" class="st0" width="11" height="2.5"/>
	<rect x="39.4" y="70.1" class="st0" width="2.5" height="2.5"/>
	<rect x="44.5" y="70.1" class="st0" width="2.5" height="2.5"/>
	<rect x="34.3" y="70.1" class="st0" width="2.5" height="2.5"/>
</g>
</svg>
