<?xml version="1.0" encoding="utf-8"?>
<!-- Generator: Adobe Illustrator 22.1.0, SVG Export Plug-In . SVG Version: 6.00 Build 0)  -->
<svg version="1.1"
	 id="Layer_1" xmlns:cc="http://creativecommons.org/ns#" xmlns:dc="http://purl.org/dc/elements/1.1/" xmlns:inkscape="http://www.inkscape.org/namespaces/inkscape" xmlns:rdf="http://www.w3.org/1999/02/22-rdf-syntax-ns#" xmlns:sodipodi="http://sodipodi.sourceforge.net/DTD/sodipodi-0.dtd" xmlns:svg="http://www.w3.org/2000/svg"
	 xmlns="http://www.w3.org/2000/svg" xmlns:xlink="http://www.w3.org/1999/xlink" x="0px" y="0px" viewBox="0 0 100 100"
	 style="enable-background:new 0 0 100 100;" xml:space="preserve">
<style type="text/css">
	.st0{fill:#7CB434;}
</style>
<g transform="translate(0,-284.29998)">
	<path class="st0" d="M20.9,284.7c-3.9,0-7,3.1-7,7v79c0,3.9,3.1,7,7,7h13.7v7h4.7v-7h21.4v7h4.7v-7h13.7c3.9,0,7-3.1,7-7
		c0,0,0,0,0,0v-79c0-3.9-3.1-7-7-7c0,0,0,0,0,0H20.9z M20.9,289.4h58.2c1.3,0,2.3,1,2.3,2.3v10.9c0,1.3-1,2.3-2.3,2.3H20.9
		c-1.3,0-2.3-1-2.3-2.3v-10.9C18.5,290.4,19.6,289.4,20.9,289.4z M20.9,309.6h58.2c1.3,0,2.3,1,2.3,2.3v58.8c0,1.3-1,2.3-2.3,2.3
		H20.9c-1.3,0-2.3-1-2.3-2.3v-58.8C18.5,310.6,19.6,309.6,20.9,309.6z"/>
	<path class="st0" d="M50.4,342.2c-0.9-3,0-6.2,2.4-8.2c0.3-0.2,0.5-0.5,0.7-0.8c0.7-1.4,1.3-2.9,1.6-4.5c0.1-0.7,0-1.3-0.3-1.9
		c-1.7-2.8-3.6-5.4-5.7-7.8c-0.1-0.1-0.3-0.1-0.4,0c-0.1,0.1-0.1,0.2-0.1,0.3c0.7,2.1,0.3,4.5-1.3,6.2c-1.7,1.8-3.2,3.8-4.6,5.8
		c-1.2,1.8-1.1,4.2,0.4,5.9c1.6,1.8,3.4,3.4,5.5,4.7C49.2,342.2,49.8,342.3,50.4,342.2L50.4,342.2z"/>
	<path class="st0" d="M56.3,329.5c-0.1-0.1-0.2-0.2-0.4-0.1c-0.1,0-0.1,0.1-0.1,0.2c-0.3,1.5-0.9,2.9-1.6,4.2
		c-0.2,0.3-0.4,0.6-0.7,0.8c-2.2,1.8-3.1,4.7-2.3,7.4c0.1,0,0.1-0.1,0.2-0.1c1.9-1.3,3.7-2.8,5.2-4.5c1.3-1.5,1.6-3.6,0.8-5.4
		C57.1,331.1,56.7,330.3,56.3,329.5L56.3,329.5z"/>
	<path class="st0" d="M36.2,358.3c-0.9,0-1.6,0.7-1.6,1.6c0,0.9,0.7,1.6,1.6,1.6h27.7c0.9,0,1.6-0.7,1.6-1.6c0-0.9-0.7-1.6-1.6-1.6
		H36.2z"/>
</g>
</svg>
