<?xml version="1.0" encoding="utf-8"?>
<!-- Generator: Adobe Illustrator 22.1.0, SVG Export Plug-In . SVG Version: 6.00 Build 0)  -->
<svg version="1.1" id="Layer_1" xmlns="http://www.w3.org/2000/svg" xmlns:xlink="http://www.w3.org/1999/xlink" x="0px" y="0px"
	 viewBox="0 0 100 100" style="enable-background:new 0 0 100 100;" xml:space="preserve">
<g>
	<rect x="0.6" y="48.3" width="20.8" height="4.1"/>
	<rect x="5.6" y="39.4" width="20.8" height="4.1"/>
	<rect x="10.6" y="30.6" width="20.8" height="4.1"/>
	<path d="M100,45.5L84.8,29.2c-0.4-0.4-0.9-0.7-1.5-0.7H70.4v-0.8c0-5-4.1-9-9-9H20.9c-4.5,0-8.3,3.4-8.9,7.7h4.2
		c0.6-2.1,2.5-3.6,4.7-3.6h40.5c2.7,0,4.9,2.2,4.9,4.9v42H43.4c-1-5-5.4-8.8-10.6-8.8c-5.3,0-9.7,3.8-10.7,8.8h-1.2
		c-2.7,0-4.9-2.2-4.9-4.9v-8.2h-4.1v8.2c0,5,4.1,9,9,9h1.2c1,5,5.4,8.8,10.7,8.8s9.7-3.8,10.6-8.8h24.9h5.1c1,5,5.4,8.8,10.7,8.8
		c5.3,0,9.7-3.8,10.6-8.8h3.8c1.1,0,2.1-0.9,2.1-2.1V46.9C100.6,46.4,100.4,45.9,100,45.5z M32.8,78.5L32.8,78.5
		c-3.7,0-6.7-3-6.7-6.7s3-6.7,6.7-6.7c3.7,0,6.7,3,6.7,6.7C39.5,75.5,36.5,78.5,32.8,78.5z M70.4,32.7h11.9l11.4,12.2H70.4V32.7z
		 M84.1,78.5L84.1,78.5c-3.7,0-6.7-3-6.7-6.7s3-6.7,6.7-6.7c3.7,0,6.7,3,6.7,6.7C90.8,75.5,87.8,78.5,84.1,78.5z M96.5,69.7h-1.8
		c-1-5-5.4-8.8-10.6-8.8c-5.3,0-9.7,3.8-10.7,8.8h-3V49h26.1C96.5,49,96.5,69.7,96.5,69.7z"/>
</g>
</svg>
