<?xml version="1.0" encoding="utf-8"?>
<!-- Generator: Adobe Illustrator 22.1.0, SVG Export Plug-In . SVG Version: 6.00 Build 0)  -->
<svg version="1.1" id="Layer_1" xmlns="http://www.w3.org/2000/svg" xmlns:xlink="http://www.w3.org/1999/xlink" x="0px" y="0px"
	 viewBox="0 0 100 100" style="enable-background:new 0 0 100 100;" xml:space="preserve">
<title>shield-badge-waranty-guarantee-security-protection</title>
<g>
	<path d="M51.2,99.5l40-40c0.3-0.3,0.5-0.7,0.5-1.2V21.7c0-0.6-0.4-1.2-0.9-1.5l-40-20c-0.5-0.2-1-0.2-1.5,0l-40,20
		c-0.6,0.3-0.9,0.9-0.9,1.5v36.7c0,0.4,0.2,0.9,0.5,1.2l40,40C49.5,100.2,50.5,100.2,51.2,99.5z M11.7,57.6V22.7L50,3.5l38.3,19.2
		v34.9L50,96L11.7,57.6z"/>
	<path d="M51.2,85.4l30-30c0.3-0.3,0.5-0.7,0.5-1.2V27.8c0-0.6-0.4-1.2-0.9-1.5l-30-15c-0.5-0.2-1-0.2-1.5,0l-30,15
		c-0.6,0.3-0.9,0.9-0.9,1.5v26.3c0,0.4,0.2,0.9,0.5,1.2l30,30C49.5,86,50.5,86,51.2,85.4z M21.7,53.5V28.9L50,14.7l28.3,14.2v24.6
		L50,81.8L21.7,53.5z"/>
	<path d="M63.1,57.6l3.3-5c0.2-0.3,0.3-0.6,0.3-0.9V35c0-0.9-0.7-1.7-1.7-1.7h-5c0-4.6-3.7-8.3-8.3-8.3c-0.9,0-1.7,0.7-1.7,1.7v6.7
		H35c-0.9,0-1.7,0.7-1.7,1.7v21.7c0,0.9,0.7,1.7,1.7,1.7h26.7C62.2,58.3,62.7,58.1,63.1,57.6z M36.7,36.7h10V55h-10V36.7z M50,55
		V36.7h1.7c0.9,0,1.7-0.7,1.7-1.7v-6.4c2,0.7,3.3,2.6,3.3,4.7V35c0,0.9,0.7,1.7,1.7,1.7h5v14.5L60.8,55H50z"/>
	<path d="M41.7,46.7c-0.9,0-1.7,0.7-1.7,1.7v3.3c0,0.9,0.7,1.7,1.7,1.7s1.7-0.7,1.7-1.7v-3.3C43.3,47.4,42.6,46.7,41.7,46.7z"/>
</g>
</svg>
