<?xml version="1.0" encoding="utf-8"?>
<!-- Generator: Adobe Illustrator 22.1.0, SVG Export Plug-In . SVG Version: 6.00 Build 0)  -->
<svg version="1.1" id="Layer_1" xmlns="http://www.w3.org/2000/svg" xmlns:xlink="http://www.w3.org/1999/xlink" x="0px" y="0px"
	 viewBox="0 0 100 100" style="enable-background:new 0 0 100 100;" xml:space="preserve">
<style type="text/css">
	.st0{fill:#7CB434;}
</style>
<path class="st0" d="M62.7,54.7c0-3.6-6.4-5.4-12.7-5.4s-12.7,1.9-12.7,5.4c0,3.6,6.4,5.4,12.7,5.4S62.7,58.2,62.7,54.7z M39.9,54.7
	c0-0.9,3.4-2.9,10.1-2.9s10.1,2,10.1,2.9c0,0.9-3.4,2.9-10.1,2.9S39.9,55.5,39.9,54.7z"/>
<path class="st0" d="M75.8,61.6c1.6-1.4,2.5-3,2.5-4.8c0-3.6-3.5-6.3-8.7-8.2c3.8-5.3,5.9-11.9,5.9-18.9C75.4,13.4,64,0.1,50,0.1
	S24.6,13.4,24.6,29.6c0,7,2.1,13.6,5.9,18.9c-5.2,1.9-8.7,4.6-8.7,8.2c0,1.8,0.9,3.4,2.5,4.8c0.6,6.9,4,13,8.9,17.3l-6.3,15.6
	c-0.5,1.3-0.4,2.7,0.3,3.7c0.8,1.2,2.3,1.9,4.2,1.9h37.4c1.8,0,3.3-0.7,4.2-1.9c0.7-1.1,0.8-2.4,0.3-3.7l-6.3-15.6
	C71.8,74.6,75.1,68.5,75.8,61.6z M27.1,29.6c0-14.9,10.3-27,22.9-27s22.9,12.1,22.9,27c0,6.7-2.1,13.1-5.9,18.1
	c-5-1.4-11.1-2.1-17-2.1c-5.9,0-12,0.7-17,2.1C29.2,42.7,27.1,36.4,27.1,29.6z M24.3,56.7c0-2.2,3.2-4.6,8.7-6.3c0,0,0,0,0,0
	c4.4-1.4,10.2-2.3,17-2.3c15.2,0,25.7,4.5,25.7,8.6S65.2,65.3,50,65.3S24.3,60.8,24.3,56.7z M70.8,95.4c0.1,0.4,0.3,0.9,0,1.3
	c-0.3,0.5-1.1,0.8-2,0.8H31.3c-1,0-1.7-0.3-2-0.8c-0.3-0.4-0.2-1,0-1.3l6-15c4.2,2.9,9.3,4.7,14.7,4.7c5.5,0,10.5-1.7,14.7-4.7
	L70.8,95.4z M50,82.6c-11.3,0-20.9-8.2-22.9-19.1c5.5,2.9,14.4,4.4,22.9,4.4c8.6,0,17.5-1.5,22.9-4.4C70.9,74.4,61.3,82.6,50,82.6z"
	/>
<path class="st0" d="M65.6,20.8c0.2,0.5,0.4,1.1,0.6,1.6c0.2,0.6,0.7,0.9,1.2,0.9c0.1,0,0.2,0,0.4-0.1c0.7-0.2,1.1-0.9,0.9-1.6
	c-0.2-0.6-0.4-1.2-0.6-1.8c-0.3-0.7-1-1-1.7-0.7C65.7,19.4,65.4,20.1,65.6,20.8z"/>
<path class="st0" d="M51.6,10.2c5,0,9.7,2.9,12.6,7.7c0.2,0.4,0.7,0.6,1.1,0.6c0.2,0,0.5-0.1,0.7-0.2c0.6-0.4,0.8-1.2,0.4-1.8
	C63,11,57.5,7.6,51.6,7.6c-0.7,0-1.3,0.6-1.3,1.3S50.9,10.2,51.6,10.2z"/>
</svg>
