<?xml version="1.0" encoding="utf-8"?>
<!-- Generator: Adobe Illustrator 22.1.0, SVG Export Plug-In . SVG Version: 6.00 Build 0)  -->
<svg version="1.1" id="Layer_1" xmlns="http://www.w3.org/2000/svg" xmlns:xlink="http://www.w3.org/1999/xlink" x="0px" y="0px"
	 viewBox="0 0 100 100" style="enable-background:new 0 0 100 100;" xml:space="preserve">
<style type="text/css">
	.st0{fill:#56323B;}
	.st1{fill:#FFEED2;}
	.st2{fill:#FFF3E1;}
	.st3{fill:#70D8EF;}
	.st4{opacity:0.6;fill:#C94343;}
	.st5{fill:#FFF1DC;}
	.st6{fill:#F4E2C9;}
	.st7{fill:#C1A584;}
	.st8{fill:#DDC2A8;}
	.st9{fill:#4CB1CC;}
	.st10{fill:#619CAA;}
	.st11{fill:#4C8993;}
	.st12{fill:#80CBD8;}
	.st13{fill:#E5D2B7;}
	.st14{fill:#C1A787;}
	.st15{fill:#BA5438;}
	.st16{fill:#A0402A;}
	.st17{fill:#7A2618;}
	.st18{fill:#C95D7C;}
	.st19{fill:#B54168;}
	.st20{fill:#FFCE55;}
	.st21{fill:#FFB345;}
	.st22{fill:#FFF1C5;}
	.st23{fill:#E8D6A3;}
	.st24{fill:#FF7694;}
	.st25{fill:#EA4974;}
	.st26{fill:#FFB882;}
	.st27{fill:#FF9566;}
	.st28{fill:#DB5B3E;}
	.st29{fill:#66423B;}
	.st30{fill:#7C4343;}
	.st31{fill:#EA7B59;}
	.st32{fill:#EF8F6F;}
	.st33{fill:#491D2E;}
	.st34{fill:#FFEBEB;}
	.st35{fill:#FFA33E;}
	.st36{fill:#7A545B;}
	.st37{fill:#634047;}
	.st38{fill:#F7DEB0;}
	.st39{fill:#E8C792;}
	.st40{fill:#5C95B7;}
	.st41{fill:#417EA3;}
	.st42{fill:#D8B37C;}
	.st43{fill:#FFBF4D;}
	.st44{fill:#8E3F4C;}
	.st45{fill:#6B2A37;}
	.st46{fill:#EDD3AE;}
	.st47{fill:#F4DBBD;}
	.st48{fill:#DDBC94;}
	.st49{fill:#847477;}
	.st50{fill:#FFE3BB;}
	.st51{fill:#5E343D;}
	.st52{fill:#4C2831;}
	.st53{fill:#FF9739;}
	.st54{fill:#7FB8DB;}
	.st55{fill:#5B302C;}
	.st56{opacity:0.9;}
	.st57{fill:#C94343;}
	.st58{opacity:0.9;fill:#C94343;}
	.st59{fill:#2894AD;}
	.st60{opacity:0.47;}
	.st61{fill:#9CF1FF;}
</style>
<g>
	<g>
		<g>
			<polygon class="st0" points="34.6,74.4 38.2,74.4 38.5,79 36.1,79 			"/>
			<polygon class="st0" points="13.4,74.4 9.7,74.4 9.6,79 12,79 			"/>
			<rect x="9.5" y="75.9" class="st0" width="28.8" height="2.3"/>
			<polygon class="st1" points="10.9,74.4 7.8,74.4 7.7,79 9.7,79 			"/>
			<polygon class="st1" points="37,74.4 39.9,74.4 40.1,79 38.2,79 			"/>
			<polygon class="st1" points="39.6,43.8 8.3,43.8 7.8,76.7 39.9,76.7 			"/>
			<polygon class="st2" points="36.7,43.8 25.4,43.8 10.9,76.7 29.6,76.7 			"/>
			<path class="st3" d="M33.7,69.9c-0.1-3.6-0.2-7.1-0.4-10.7c0-0.3-0.1-0.7-0.3-0.8l-18.3,1.3c0.9,5.5,0.7,11.2,0.8,16.9
				c0,0.1,0.1,0.2,0.2,0.2l0,0c0.1,0,0.2-0.1,0.2-0.2c-0.1-1.4-0.2-2.9-0.2-4.3c0-0.7,0-1.5,0.4-2.2c0.3,0.2,0.3,0.7,0.3,1.1
				c0.1,1.7,0,5.2,0.2,5.2c0.5,0,0.2-1.9,0.5-3.1c0-0.1,0-0.2,0.1-0.3c0.1-0.2,0.3-0.1,0.5,0c0.1,0.2,0.2,0.4,0.2,0.6
				c0.2,1,0.2,2,0.3,2.9c0,0.2,0.2,0.3,0.4,0.3h0.6c0.2,0,0.3-0.1,0.4-0.3c0.1-0.8,0.1-1.7,0.2-2.5c0.9,0.3,1.7,0.6,2.6,1
				c0.4,0.1,0.8,0.3,1.1,0.6c0.3,0.3,0.4,0.7,0.5,1.1c0,0.1,0.1,0.2,0.3,0.2h1.1c0.1,0,0.2-0.1,0.3-0.2c0.1-0.4,0.2-0.8,0.3-1.2
				c0.1-0.3,0.3-0.6,0.5-0.5c0.1,0.5,0.2,1.1,0.2,1.6c0,0.1,0.1,0.2,0.2,0.2h0.4c0.1,0,0.2-0.1,0.2-0.2c0.1-1.1,0.2-2.2,0.3-3.3
				c0-0.4,0.1-0.7,0.3-1c0.2-0.3,0.6-0.3,0.7,0c0.1,0.1,0.1,0.3,0.1,0.4c0.1,1.3,0,2.5,0,3.8c0,0.2,0.1,0.3,0.3,0.3h0.1
				c0.1,0,0.2-0.1,0.2-0.2c0-0.9,0.2-4.2,1-5.6c0.1-0.2,0.4-0.5,0.6-0.5c0.6,0.1,0.4,1.4,0.9,1.9c0-1.3,0-2.6,0-3.9
				c0-0.3,0.1-0.7,0.3-0.7c0.1,0,0.2,0.1,0.2,0.1c0.6,0.7,0.5,1.9,0.4,3c-0.2,1.7,0,3.9,0.2,5.8c0,0.1,0.1,0.2,0.2,0.2l0,0
				c0.1,0,0.2-0.1,0.2-0.2C33.9,75,33.7,71.7,33.7,69.9z"/>
			<ellipse transform="matrix(0.9814 -0.1922 0.1922 0.9814 -11.3776 5.7358)" class="st4" cx="23.9" cy="61.5" rx="10" ry="10.6"/>
			<ellipse transform="matrix(0.7302 -0.6832 0.6832 0.7302 -35.0169 32.683)" class="st5" cx="23.9" cy="60.7" rx="9.5" ry="9.7"/>
			<path class="st6" d="M33.2,58.8c-1.6,2.6-4.6,4.3-7.9,4.3c-4.7,0-8.6-3.3-9.6-7.7c-1,1.5-1.5,3.3-1.4,5.3
				c0.1,5.3,4.6,9.6,9.9,9.6c5.3,0,9.5-4.3,9.4-9.6C33.5,60,33.4,59.4,33.2,58.8z"/>
			<ellipse transform="matrix(0.7302 -0.6832 0.6832 0.7302 -35.0165 32.682)" class="st7" cx="23.9" cy="60.7" rx="6.8" ry="6.9"/>
			<path class="st8" d="M23.8,61.9c-2.3,0-4.5,0.5-6.3,1.2c1.1,2.6,3.6,4.4,6.5,4.4c2.9,0,5.3-1.8,6.2-4.3
				C28.4,62.4,26.2,61.9,23.8,61.9z"/>
			<path class="st3" d="M27.6,62.8c-0.1-0.5-0.2-1-0.5-1.4c-0.2-0.4-0.6-0.8-1-1c-0.4-0.1-0.7-0.1-1.1-0.1c-0.8,0.1-1.5,0.2-2.2,0.4
				c-0.7,0.2-1.5,0.4-2.2,0.6c-0.2,0-0.3,0.1-0.5,0.2c-0.2,0.2-0.3,0.5-0.2,0.8c1,3.8,0,5,0.2,7.1c0,0.4,0.5,0.6,0.5,0.1
				c0-1.9,0.1-2.7,0.2-2.7c0.4-0.3,2.5,0.5,2.7,0.8c0.5,1.2,0.2,2.3,0.2,2.5c0,0.4,0.7,0.7,0.7,0c0-0.6-0.5-2-0.3-2.8
				c0-0.2,0.8-0.2,1,0.1c0.3,0.6,0.4,1.5,0.4,2.7c0,0.6,0.5,0.5,0.4-0.2c-0.5-2.7-0.3-3.8,0.3-4.8c0.2,0.1,0.2,0.3,0.3,0.5
				c0,0.2,0.2,0.4,0.4,0.4c0.2,1.8-0.2,2.6,0,3.8c0,0.1,0.1,0.1,0.2,0.1c0,0,0.1,0,0.1,0c0.1,0,0.2-0.1,0.2-0.3
				c0.2-1.2-0.4-1.6-0.1-3.7c0.1-0.4-0.2-0.8-0.2-1.3c0-0.4,0.1-0.9,0.4-1.2c0.1-0.1,0.2-0.2,0.3-0.3C27.7,63.1,27.7,62.9,27.6,62.8
				z"/>
			<path class="st9" d="M20.3,66.9c0.1,0,0.3,0.1,0.4,0.1c0-0.1,0-0.2,0.1-0.2c0.4-0.3,2.3,0.4,2.6,0.8c0.2,0,0.4,0,0.6,0
				c0-0.1,0-0.2,0-0.4c0-0.2,0.8-0.2,1,0.1c0,0.1,0.1,0.1,0.1,0.2c0.2,0,0.3,0,0.5-0.1c0-1.1,0.2-1.8,0.6-2.4
				c0.2,0.1,0.2,0.3,0.3,0.5c0,0.2,0.2,0.4,0.4,0.4c0.1,0.5,0.1,0.9,0.1,1.2c0.1,0,0.2,0,0.2-0.1c0-0.3,0-0.7,0.1-1.2
				c0.1-0.4-0.2-0.8-0.2-1.3c0-0.4,0.1-0.9,0.4-1.2c0.1-0.1,0.2-0.2,0.3-0.3c0.1-0.1,0-0.3,0-0.5c-0.1-0.5-0.2-1-0.5-1.4
				c-0.2-0.4-0.6-0.8-1-1c-0.4-0.1-0.7-0.1-1.1-0.1c-0.8,0.1-1.5,0.2-2.2,0.4c-0.7,0.2-1.5,0.4-2.2,0.6c-0.2,0-0.3,0.1-0.5,0.2
				c-0.2,0.2-0.3,0.5-0.2,0.8C20.4,64.6,20.4,65.8,20.3,66.9z"/>
			<ellipse transform="matrix(0.9812 -0.1932 0.1932 0.9812 -11.2735 5.756)" class="st0" cx="23.9" cy="60.7" rx="5.9" ry="6.4"/>
			
				<ellipse transform="matrix(0.9812 -0.1932 0.1932 0.9812 -11.2714 5.7546)" class="st10" cx="23.9" cy="60.7" rx="5.5" ry="5.9"/>
			<path class="st11" d="M19.7,57.7c0.9,1.2,2.4,2,3.9,2c1.7,0,3.2-0.9,4-2.3c-0.9-1.2-2.4-2-3.9-2C22,55.5,20.6,56.4,19.7,57.7z"/>
			<path class="st12" d="M28.8,63c-1.2-0.3-2.6-0.5-4-0.5c-2,0-3.9,0.4-5.4,1c0.9,1.8,2.7,3,4.7,3C26.2,66.4,28.1,65,28.8,63z"/>
			<polygon class="st13" points="8.2,49.3 39.6,49.3 39.6,48.8 8.2,48.8 			"/>
			<path class="st3" d="M33.6,77.3c-0.2,0.8-0.3,1.2,0.1,1.2C34,78.5,33.6,77.3,33.6,77.3z"/>
			<path class="st3" d="M30.5,75.6c-0.2,1.2-0.3,1.6,0.1,1.7C31,77.3,30.5,75.6,30.5,75.6z"/>
			<path class="st3" d="M25,77.5c-0.2,1-0.3,1.3,0.1,1.4C25.4,78.9,25,77.5,25,77.5z"/>
			<path class="st3" d="M21.7,76.1c-0.2,1-0.3,1.3,0.1,1.4C22.1,77.5,21.7,76.1,21.7,76.1z"/>
			<path class="st3" d="M19.1,77.3c-0.2,0.7-0.3,1,0.1,1C19.5,78.3,19.1,77.3,19.1,77.3z"/>
			<polygon class="st13" points="15.5,43.8 15.5,48.9 16,48.9 16,43.8 			"/>
			<polygon class="st13" points="20.6,43.8 20.6,48.9 21.1,48.9 21.1,43.8 			"/>
			<g>
				<path class="st14" d="M22.9,46.7c0,0.9,0.6,1.6,1.4,1.6c0.8,0,1.4-0.7,1.4-1.6c0-0.9-0.6-1.6-1.4-1.6
					C23.5,45.1,22.9,45.8,22.9,46.7z"/>
				<ellipse transform="matrix(0.7032 -0.711 0.711 0.7032 -25.6843 30.9991)" class="st6" cx="24.3" cy="46.3" rx="1.1" ry="1.1"/>
				<path class="st5" d="M24.3,45.2c-0.4,0-0.7,0.2-0.8,0.5c0.2,0.3,0.5,0.5,0.8,0.5c0.4,0,0.7-0.2,0.8-0.5
					C24.9,45.4,24.6,45.2,24.3,45.2z"/>
			</g>
			<g>
				<ellipse class="st14" cx="28.3" cy="46.7" rx="1.4" ry="1.6"/>
				
					<ellipse transform="matrix(0.7071 -0.7071 0.7071 0.7071 -24.4321 33.5387)" class="st6" cx="28.3" cy="46.3" rx="1.1" ry="1.1"/>
				<path class="st5" d="M28.3,45.2c-0.4,0-0.7,0.2-0.8,0.5c0.2,0.3,0.5,0.5,0.8,0.5c0.3,0,0.7-0.2,0.8-0.5
					C28.9,45.4,28.6,45.2,28.3,45.2z"/>
			</g>
			<g>
				<path class="st14" d="M35.5,46.7c0,0.9,0.6,1.6,1.4,1.6c0.8,0,1.4-0.7,1.4-1.6c0-0.9-0.6-1.6-1.4-1.6
					C36.1,45.1,35.5,45.8,35.5,46.7z"/>
				
					<ellipse transform="matrix(0.7071 -0.7071 0.7071 0.7071 -21.9042 39.6416)" class="st6" cx="36.9" cy="46.3" rx="1.1" ry="1.1"/>
				<path class="st5" d="M36.9,45.2c-0.3,0-0.7,0.2-0.8,0.5c0.2,0.3,0.5,0.5,0.8,0.5c0.4,0,0.7-0.2,0.8-0.5
					C37.6,45.4,37.2,45.2,36.9,45.2z"/>
			</g>
			<rect x="30.7" y="45.2" class="st14" width="4.1" height="2.1"/>
			<rect x="30.8" y="45.3" class="st0" width="3.8" height="1.8"/>
			<rect x="31" y="45.6" class="st12" width="3.4" height="1.3"/>
			<path class="st14" d="M14.6,45.4H9.4v0.2c0,0.5,0.4,1,1,1h3.2c0.5,0,1-0.4,1-1V45.4z"/>
			<path class="st1" d="M14,45H9.9v0.2c0,0.5,0.4,1,1,1H13c0.5,0,1-0.4,1-1V45z"/>
			<g>
				<path class="st14" d="M38.3,75.6h-2.5c-0.4,0-0.8-0.3-0.8-0.8v-2.2c0-0.4,0.3-0.8,0.8-0.8h2.5c0.4,0,0.8,0.3,0.8,0.8v2.2
					C39,75.3,38.7,75.6,38.3,75.6z M35.8,72.1c-0.3,0-0.5,0.2-0.5,0.5v2.2c0,0.3,0.2,0.5,0.5,0.5h2.5c0.3,0,0.5-0.2,0.5-0.5v-2.2
					c0-0.3-0.2-0.5-0.5-0.5H35.8z"/>
			</g>
			<rect x="17" y="46.9" class="st14" width="0.8" height="0.7"/>
			<rect x="17" y="44.9" class="st14" width="0.8" height="0.7"/>
			<rect x="18.8" y="46.9" class="st14" width="0.8" height="0.7"/>
			<rect x="18.8" y="44.9" class="st14" width="0.8" height="0.7"/>
		</g>
		<g>
			<g>
				<path class="st15" d="M28.8,34.5c-4.7,0.4-6.3-1.6-6.1-3.7c0.2-2.1,1.2-2.6,1.2-2.6s-2.6,0.4-1.9-2.2s3-3.3,3-3.3
					s-1.5-0.8-0.1-2.5c1.3-1.6,5.1-2.1,6-1.6s1.1,1.1,1.1,1.1s2.6-1.3,3.7,1.6c1.1,2.9-1.1,6.4-1.1,6.4S37.6,33.8,28.8,34.5z"/>
				<path class="st16" d="M35.5,25.2c-4.1-4.1-3.2,1.1-6.4-0.4c-3.3-1.5-4.3-3.4-4.1-4.9c-0.1,0.1-0.1,0.1-0.2,0.2
					c-1.3,1.6,0.1,2.5,0.1,2.5s-2.3,0.7-3,3.3s1.9,2.2,1.9,2.2s-1,0.5-1.2,2.6c-0.2,2.1,1.4,4.1,6.1,3.7c8.8-0.7,5.7-6.9,5.7-6.9
					S35.1,26.6,35.5,25.2z"/>
				<path class="st17" d="M30.1,25.3c-2.4,0-4.4,6.2-3.7,9.2c0.7,0.1,1.5,0.1,2.4,0c3.1-0.2,4.8-1.2,5.5-2.3c0-0.2,0-0.4,0-0.6
					C34.3,28.5,32.4,25.3,30.1,25.3z"/>
				<path class="st18" d="M29.5,69c-1.1-11.2-2.4-18.8-2.1-19.8c0.3-1,3.2-5.9,2.3-9.7l4.1-1.8c0,0-0.9,1.6,0.7,5
					c1.6,3.4,5.7,16.3,6,25.1l-1.4,0.6l-6-12.4l-1.9,11.7L29.5,69z"/>
				<polygon class="st19" points="29.4,64.5 31.5,65.7 31.3,67.8 29.8,66.9 				"/>
				<polygon class="st19" points="37.6,64.5 40.2,64.3 40.5,66.3 38.6,67.3 				"/>
				<path class="st19" d="M28.9,46.4c4.4,0.6,6.5-1.1,6.5-1.1l-0.4-1.2l-5.6,0.2L28.9,46.4z"/>
				<path class="st19" d="M28.6,49.3c0.2-0.7,2.7-6.6,2.7-6.6l-1.2-3.4l-0.5,0.2c0.9,3.8-2.3,8.5-2.6,9.5c-0.3,1,1.3,8.8,2.4,20
					l0.7-0.5C29.7,63.9,28.4,49.9,28.6,49.3z"/>
				<path class="st19" d="M33.5,52.5L33,56.3l5.8,12.3l0.5-0.2C38,64.7,35,56.5,33.5,52.5z"/>
				<polygon class="st19" points="31.4,51.6 33.5,53.1 35.5,50.6 33.3,51.9 				"/>
				<polygon class="st20" points="27.9,65.2 30.4,78.6 30.7,78.6 32.6,66.3 				"/>
				<polygon class="st21" points="29.2,65.5 27.9,65.2 30.4,78.6 30.6,78.6 				"/>
				<polygon class="st20" points="41.2,64.5 42.9,78.6 42.6,78.6 37.2,67.2 				"/>
				<polygon class="st21" points="38.7,66.2 37.2,67.2 42.6,78.6 42.8,78.6 				"/>
				<path class="st20" d="M45.2,79.3h-2.9c0,0,0-0.9,0.4-1.1C43.1,77.9,45.2,79.3,45.2,79.3z"/>
				<path class="st20" d="M29.1,79.3h2.2c0,0-0.3-0.8-0.7-1.1C30.2,77.9,29.1,79.3,29.1,79.3z"/>
				<path class="st22" d="M33.7,38.7l-4.5,0.3c0.6,3.4-0.4,6-0.4,6s3.6,1.2,6.7,0C35.5,44.8,33.5,39.8,33.7,38.7z"/>
				<path class="st23" d="M29.9,45.2c0.2-2.2,1.3-4.1,2.7-3.9c1.2,0.2,2.2,1.8,2.6,3.6c0.1,0,0.1-0.1,0.2-0.1c0,0-2-5.1-1.8-6.2
					l-4.5,0.3c0.6,3.4-0.4,6-0.4,6S29.3,45,29.9,45.2z"/>
				<path class="st22" d="M38.5,37.1c-2.1,0-6.6-1.8-9-3.8c-0.7-0.6,2.7-2,3.4-1.3c0.7,0.6,4.8,2.7,6.4,3.1
					C40.1,35.3,40.1,37.1,38.5,37.1z"/>
				<path class="st23" d="M39.3,35.7c-4.3-0.4-4.9-2.4-7.1-4.1c-0.8,0.3-3,1.4-2.7,1.7c2.4,2,6.9,3.8,9,3.8c1.1,0,1.5-0.9,1.3-1.5
					C39.7,35.7,39.5,35.7,39.3,35.7z"/>
				<path class="st22" d="M27.7,31.5c-2.5,1.9-5.4,6.9-5.6,8c-0.2,1.1,0.7,1.8,1.2,1.3c0.5-0.5,3.8-4.5,4.6-5
					C28.7,35.3,28.4,30.9,27.7,31.5z"/>
				<path class="st23" d="M27.8,32c-0.9,0.6-4.4,7-4.9,7.5c-0.2,0.2-0.5,0.2-0.8,0.1c0,1,0.7,1.6,1.2,1.1c0.5-0.5,3.8-4.5,4.6-5
					c0.4-0.3,0.5-1.6,0.4-2.7C28.3,33.6,28,31.9,27.8,32z"/>
				<path class="st24" d="M21.3,37.8c-0.8,0.9-1.1,2.7-0.1,3.4c1,0.7,2.2,0.2,2.5-0.6c0.3-0.8,0-2-0.8-2.5
					C22.2,37.7,21.3,37.8,21.3,37.8z"/>
				<path class="st25" d="M22.2,40.2c-0.7-0.5-0.8-1.6-0.5-2.5c-0.3,0-0.4,0-0.4,0c-0.8,0.9-1.1,2.7-0.1,3.4c1,0.7,2.2,0.2,2.5-0.6
					c0,0,0-0.1,0-0.1C23.3,40.6,22.7,40.6,22.2,40.2z"/>
				<path class="st26" d="M17.4,30.7c1.2,3.8,2.2,6.4,2.9,8.6c0.2,0.6,0.8,1.9,1.9,1.5c1.1-0.4,0.3-2.8-0.5-3.8
					c-1.7-2.4-4.2-6.3-4.2-6.3L17.4,30.7z"/>
				<path class="st27" d="M21.4,39c-1-2.1-2.1-4.3-3.7-7.9l-0.2-0.3c1.2,3.8,2.2,6.4,2.9,8.6c0.2,0.6,0.8,1.9,1.9,1.5
					c0.2-0.1,0.3-0.2,0.4-0.3C22,40.2,21.6,39.4,21.4,39z"/>
				<path class="st22" d="M27.3,32c-0.1,2.4,0.6,7.1,1.2,7.5c0.6,0.4,7-0.1,7.1-0.6s-2-6.2-2.9-7c-0.5-0.5-2.2-1.1-3.2-1.1
					C28.5,30.9,27.3,31.5,27.3,32z"/>
				<path class="st23" d="M33,32.2c0.9,1.7,2.2,5.7,2.1,6.1c-0.1,0.5-5.7,1-6.3,0.6c-0.4-0.3-1.1-2.6-1.5-5c0.2,2.4,0.7,5.4,1.2,5.7
					c0.6,0.4,7.1-0.1,7.2-0.6C35.8,38.2,33.9,33.6,33,32.2z"/>
				<path class="st24" d="M30.9,33.7l1.2-2.3c-0.7-0.4-1.8-0.6-2.5-0.6c-0.5,0-1,0.2-1.5,0.4L30.9,33.7z"/>
				<path class="st26" d="M28.6,26.4c0.1,3.1,0,4.6,0,4.6l2.1,1.6l0.9-1.3L31,26.9L28.6,26.4z"/>
				<path class="st24" d="M37.7,34c-0.6,1-0.4,2.9,0.7,3.4c1.2,0.4,2.2-0.3,2.3-1.2c0.1-0.8-0.5-1.9-1.3-2.2
					C38.6,33.6,37.7,34,37.7,34z"/>
				<path class="st25" d="M38.6,35.7c-0.6-0.2-0.9-0.8-1-1.5c-0.5,1.1-0.3,2.8,0.8,3.2c1.2,0.4,2.2-0.3,2.3-1.2c0-0.3,0-0.6-0.1-0.9
					C40.2,35.7,39.4,36,38.6,35.7z"/>
				<path class="st26" d="M40.7,26.8c-0.6,4.7-2.4,7.6-2.4,7.6s-0.2,1.6,0.7,2c0.9,0.4,1.8-1.6,1.9-2.6C41.1,32.1,41,27,41,27
					L40.7,26.8z"/>
				<path class="st27" d="M40,33.4c0.3-1.4,0.7-5,0.8-6.5l-0.1-0.1c-0.6,4.7-2.4,7.6-2.4,7.6s-0.2,1.1,0.3,1.7
					C39.2,35.6,39.8,34.2,40,33.4z"/>
				<path class="st4" d="M32.7,31.8c-0.2-0.2-0.6-0.4-1.1-0.6l0,0l-0.5-3.5c-0.8-0.5-1.7-0.7-2.5-0.7c0.1,2.4,0,3.7,0,3.9
					c-0.1,0-0.1,0-0.2,0.1c0,0,0,0,0,0c-0.1,0-0.2,0.1-0.3,0.1c0,0,0,0,0,0c-0.3,0.1-0.5,0.3-0.7,0.4c-0.3,0.2-0.6,0.5-0.9,0.8
					c0.1,0.2,0.2,0.4,0.4,0.7c1.5,2.3,4.1,3.4,5.8,2.5c1-0.5,1.5-1.5,1.5-2.8c-0.7-0.4-1.2-0.7-1.4-0.9
					C32.9,31.9,32.8,31.9,32.7,31.8z"/>
				<path class="st4" d="M33.9,28.9c-0.1-0.3-0.1-0.7-0.1-1c0-0.6,0.1-1.2,0.3-1.6L33,25.2l-0.2,0l0,0l0,0l0,0l0,0L32,26.9
					L33.9,28.9z"/>
				<path class="st26" d="M31.7,30.7c-2.3-1.1-3.2-1.9-3.5-4.3c-0.3-2.4,0.5-4.9,2.8-4.6c2.3,0.2,2.3,2.4,2.4,3.9
					C33.5,29.1,31.7,30.7,31.7,30.7z"/>
				<path class="st15" d="M31.5,20.7c0,0-1.6-1.6-4,0.9C25.1,24,28.8,28,28.8,28C28.3,22.5,32,21.3,31.5,20.7z"/>
				<path class="st26" d="M28.9,28.2c-1.6-0.3-2.5-1.8-1.7-2.5c0.8-0.7,1.4,0.7,1.6,1.3S28.9,28.2,28.9,28.2z"/>
				<path class="st28" d="M28.5,27.6c-0.9-0.2-1.4-1-1-1.4c0.4-0.4,0.8,0.4,0.9,0.7C28.5,27.2,28.5,27.6,28.5,27.6z"/>
				<path class="st26" d="M28.6,27.8c-0.6-0.1-1-0.7-0.7-1c0.3-0.3,0.5,0.3,0.6,0.5C28.6,27.5,28.6,27.8,28.6,27.8z"/>
				<g>
					<path class="st26" d="M18.1,32c-0.5-0.5-1.4-0.8-1.6-1.2c-0.1-0.3,0.4-1.1,0.6-1.1c0.2,0,1.2,1.9,1.2,1.9L18.1,32z"/>
					<path class="st26" d="M18,31.1c-0.1-0.6,0-1.6,0-1.7c0-0.2-0.2-0.1-0.3,0.3c-0.1,0.5,0,0.6-0.2,0.7C17.2,30.5,18,31.4,18,31.1z
						"/>
					<path class="st26" d="M17.2,30.4C17,30,16.6,29.1,16.7,29c0.1-0.1,0.8,1.2,0.8,1.2L17.2,30.4z"/>
					<path class="st26" d="M16.8,30.6c-0.2-0.3-0.8-1-0.7-1.1c0.1-0.1,1,0.9,1,0.9L16.8,30.6z"/>
					<path class="st26" d="M16.6,31c-0.4-0.3-1-0.8-0.9-0.9c0.1-0.1,1.2,0.7,1.2,0.7L16.6,31z"/>
				</g>
				<g>
					<path class="st26" d="M41,28.5c0.2-0.7,1-1.5,1-1.9c0-0.3-1-0.7-1.2-0.6c-0.2,0.2-0.1,2.2-0.1,2.2L41,28.5z"/>
					<path class="st26" d="M40.7,27.7c-0.2-0.6-0.8-1.3-0.9-1.5c-0.1-0.2,0.2-0.2,0.5,0.1c0.4,0.3,0.4,0.5,0.6,0.5
						C41.2,26.7,40.8,28,40.7,27.7z"/>
					<path class="st26" d="M41.1,26.5c0-0.4,0-1.5-0.2-1.5c-0.2,0-0.2,1.5-0.2,1.5L41.1,26.5z"/>
					<path class="st26" d="M41.6,26.5c0.1-0.4,0.4-1.4,0.2-1.4c-0.2,0-0.6,1.4-0.6,1.4L41.6,26.5z"/>
					<path class="st26" d="M42,26.7c0.3-0.5,0.6-1.3,0.4-1.3c-0.2,0-0.9,1.4-0.9,1.4L42,26.7z"/>
				</g>
			</g>
			<g>
				<path class="st29" d="M33,26.1c0-0.3-0.2-0.6-0.4-0.6c-0.2,0-0.4,0.3-0.4,0.6c0,0.3,0.2,0.6,0.4,0.6C32.9,26.7,33,26.4,33,26.1z
					"/>
				<path class="st29" d="M30.8,26.1c0-0.4-0.2-0.7-0.4-0.7c-0.2,0-0.4,0.3-0.4,0.7c0,0.4,0.2,0.7,0.4,0.7
					C30.6,26.8,30.8,26.5,30.8,26.1z"/>
				<path class="st29" d="M29.5,26c0,0,0.8-0.5,1.4-0.4c0,0-0.2-0.3-0.7-0.2C29.8,25.4,29.5,26,29.5,26z"/>
				<path class="st29" d="M33.3,25.8c0,0-0.7-0.4-1.3-0.2c0,0,0.1-0.3,0.6-0.3C33.1,25.3,33.3,25.8,33.3,25.8z"/>
				<g>
					<path class="st30" d="M30.6,23.9L30.6,23.9c-0.2,0.6-0.7,1-1.1,1.1l-0.1-0.3C29.7,24.8,30.4,24.4,30.6,23.9z"/>
				</g>
				<g>
					<path class="st30" d="M32.1,23.8c0.3,0.6,1,0.9,1.1,0.9L33.2,25C33,25,32.3,24.6,32.1,23.8L32.1,23.8z"/>
				</g>
				<path class="st31" d="M32.1,27.2C32.1,27.2,32.1,27.2,32.1,27.2c-0.1,0.3-0.3,0.4-0.6,0.3c-0.1,0-0.2-0.1-0.3-0.3
					c0,0.2,0.1,0.4,0.3,0.5c0.2,0.1,0.5,0,0.6-0.3C32.1,27.4,32.1,27.3,32.1,27.2z"/>
				<path class="st32" d="M31.7,29.5c0-0.1-0.1,0-0.3,0c-0.2,0-0.3-0.1-0.3,0c0,0.1,0.1,0.2,0.3,0.2C31.6,29.7,31.7,29.6,31.7,29.5z
					"/>
				<path class="st33" d="M31.8,28.8c0.1-0.3,0-0.5-0.2-0.6c-0.2-0.1-0.4,0.1-0.5,0.4c-0.1,0.3,0,0.5,0.2,0.6
					C31.5,29.2,31.8,29.1,31.8,28.8z"/>
				<path class="st34" d="M31.6,28.3c-0.1,0-0.3,0.1-0.3,0.3c0,0,0,0,0,0.1c0.1,0,0.1,0,0.2,0c0.1,0,0.2,0,0.3,0
					C31.7,28.4,31.7,28.3,31.6,28.3z"/>
			</g>
		</g>
		<g>
			<path class="st35" d="M49.9,52c-1.4-0.7-1.8-0.8-1.7-1.5c0.1-0.7,0.6-3.1,1.1-3.2c0.5-0.1,1.5,0.2,1.5,0.2L49.9,52z"/>
			
				<rect x="77.4" y="73.5" transform="matrix(-1 -1.224647e-16 1.224647e-16 -1 164.0863 149.6272)" class="st36" width="9.2" height="2.7"/>
			<polygon class="st37" points="77.4,73.5 81.7,73.5 84.4,76.2 77.4,76.2 			"/>
			
				<rect x="77.4" y="75.1" transform="matrix(-1 -1.224647e-16 1.224647e-16 -1 164.0863 151.2928)" class="st37" width="9.2" height="1"/>
			<path class="st27" d="M55,45.3c-0.8,3.1-1.2,4-1.2,4l0.6,4.5c0,0,4-1,4-4.2C58.4,46.3,55,45.3,55,45.3z"/>
			<path class="st4" d="M55.6,50.3c0-1.2-0.5-2.1-1.1-2.8c0.2-0.6,0.4-1.3,0.6-2.2c0,0,3.4,1.1,3.4,4.3c0,3.2-4,4.2-4,4.2L54.4,53
				C55,52.3,55.6,51.5,55.6,50.3z"/>
			<path class="st38" d="M56.5,39.9c-1.8,2.9-2.3,7.2-2.3,7.2l4.5,4.7c0,0,2-7.8,0.7-10.1C58.1,39.3,56.5,39.9,56.5,39.9z"/>
			<path class="st39" d="M58.7,51.8l-3.5-3.7c0.1-0.8,0.5-4.8,2.1-7.6c0,0,0.5-0.2,1.2,0.1c0.3,0.3,0.5,0.6,0.8,1.1
				C60.7,44,58.7,51.8,58.7,51.8z"/>
			<path class="st40" d="M69.2,37.7c4.5,4.6-0.5,29.3-0.5,29.3l2,12h-0.3l-6.1-11.8l-1.9-6.7l-1.2,0.1L56,65.9L54.2,79H54l-2.1-14.3
				c0,0,6-10.1,6-10.7c0-0.6-2.3-11.4-1.8-13.7c0.6-2.2,6.4-4.3,8.2-4.4C66,35.8,68.2,36.7,69.2,37.7z"/>
			<path class="st41" d="M68.7,67l2,12h-0.1c-0.9-3-3.7-12.6-3.7-12.6s-1.1-13.9-1.6-17.5c-1.1-8.8,3.1-11.9,3.8-11.1
				C73.7,42.2,68.7,67,68.7,67z"/>
			<polygon class="st41" points="54.6,65 59.7,60.1 58.3,59 61.6,59.9 65.4,59.1 62.5,60.9 62.1,60.7 61.1,60.8 56,65.9 54.2,79 
				54,79 53.9,78.6 			"/>
			<path class="st39" d="M65.6,42.3c-0.6,1.6,0,8,1,8.8c0.9,0.8,3,1.5,3.4,0.2c0.3-1.4,0.9-4.8,0.5-6.8
				C70.2,42.6,65.6,42.3,65.6,42.3z"/>
			<path class="st42" d="M70.3,49.3c0,0-5.1-2.4-4.8-5.6l5.3,2.3L70.3,49.3z"/>
			<path class="st38" d="M51.4,79.4h3.2c0,0,0.2-1.2-0.3-1.4C53.7,77.8,51.4,79.4,51.4,79.4z"/>
			<path class="st27" d="M69.8,38.9c3.2,1.1,6.1,4.2,7.8,7l-4.7,3.2c-1.2-2.4-6.2-4.8-6.2-4.8S66.6,37.8,69.8,38.9z"/>
			<path class="st43" d="M77.7,44.3c0,0,2.1,5.5,1.9,10.8l-5.3-1c-0.3-0.9-3.1-5.9-3.1-5.9L77.7,44.3z"/>
			<path class="st35" d="M78.1,51.9c-0.2-2.6-0.9-4.9-1.9-6.7l1.5-0.9c0,0,2.1,5.5,1.9,10.8l-5.3-1c-0.1-0.3-0.5-1.2-1.1-2.2
				L78.1,51.9z"/>
			<path class="st44" d="M60.8,56.6L60.8,56.6c0.4-0.6,2.1,0.5,2.4,0.8l8.8,6.7c0.3,0.3,0.4,0.8,0.1,1.1l0,0
				c-0.3,0.4-0.8,0.4-1.1,0.2l-8.8-6.7C61.9,58.4,60.4,57.2,60.8,56.6z"/>
			<path class="st45" d="M60.8,56.6c0.4,0.5,1,1.1,1.3,1.3l8.8,6.7c0.3,0.3,0.8,0.2,1.1-0.2c0-0.1,0.1-0.1,0.1-0.2
				c0.3,0.3,0.3,0.7,0,1c-0.3,0.4-0.8,0.4-1.1,0.2l-8.8-6.7C61.9,58.4,60.4,57.2,60.8,56.6C60.8,56.6,60.8,56.6,60.8,56.6z"/>
			<path class="st1" d="M71.9,64.7c0,0.3-0.2,0.5-0.5,0.5S71,64.9,71,64.7c0-0.3,0.2-0.5,0.5-0.5S71.9,64.4,71.9,64.7z"/>
			<polygon class="st46" points="72,66.1 71,66.1 71.3,64.5 71.6,64.5 			"/>
			<path class="st1" d="M63.3,79.3h19.4c0,0,1.3-6.7-6.8-6.7c-1.8,0-0.5-2.6,5-2.6S85.7,53,85.7,53l-12.9,0v11.8h0.8v1h-15
				c-0.6,0-1.1,0.5-1.1,1.1l0,0c0,0.6,0.5,1.1,1.1,1.1h0.1c0,0,0.8,9.4,8.5,9.4C67.2,77.4,63.3,78.1,63.3,79.3z"/>
			<path class="st46" d="M73,65.8L73,65.8l0.6,0v-1H73v-0.3h-0.2V63c0.9,1.4,5.7,2.6,8-0.1c1.2-1.5,2-7.2,1.8-9.9h3.1
				c0,0,0.8,17.1-4.7,17.1s-6.8,2.6-5,2.6c8.1,0,6.8,6.7,6.8,6.7H63.3c0-1.2,3.9-2,3.9-2c-7.7,0-8.5-9.4-8.5-9.4h-0.1
				c-0.6,0-1-0.4-1.1-1h14.3C72.5,67,73,66.5,73,65.8z"/>
			<path class="st47" d="M63,68.7c6.6,1.4,10.7,4.2,9.8,6.4c-0.6,1.3-3,2.2-6.3,2.4c0.4-0.1,0.7-0.2,0.7-0.2c-7.2,0-8.4-8.4-8.5-9.3
				C60.1,68.2,61.6,68.4,63,68.7z"/>
			<path class="st48" d="M83.5,68.4c-0.6,1-1.5,1.7-2.5,1.7c-2.1,0-3.6,0.4-4.5,0.9c0.4-3.2-3.4-5.1-3.4-5.1h0.6v-1
				C73.6,64.7,76.7,69.1,83.5,68.4z"/>
			<g>
				<path class="st38" d="M75.4,41.9c-0.1,0.2-4.4,6-4.4,6s-4.8-2.5-5.4-3.5c-0.5-1,0.8-6.5,2.2-6.8C70.1,37.2,75.4,41.9,75.4,41.9z
					"/>
				<path class="st39" d="M68.1,37.6c2.4,0,7.3,4.2,7.3,4.2c0,0-0.3,0.3-0.6,0.8C73.6,41.4,70.7,38.2,68.1,37.6z"/>
				<path class="st39" d="M71.5,47.1c-0.4,0.4-0.5,0.8-0.5,0.8s-4.8-2.2-5.4-3.5c0-0.1-0.1-0.1-0.1-0.2
					C66.2,44.9,70.8,46.8,71.5,47.1z"/>
			</g>
			<path class="st43" d="M55.1,54.5c2.1-1.1,0.4-5.6-0.8-6.4c-1.2-0.7-2.9-1.3-4,0.3C49.2,50,49.8,57.1,55.1,54.5z"/>
			<path class="st35" d="M49.8,48.2c2.7-2.5,2.2,4.6,5.4,3c0.3-0.1,0.5-0.3,0.6-0.6c0.5,1.5,0.5,3.2-0.7,3.8
				C50.2,56.9,49,50.4,49.8,48.2z"/>
			<path class="st38" d="M57.4,46.8c0,0-1.2-3.9-1.1-6.9c1.1-2.1,6.4-3.9,8-4c0.8,0,1.8,0.2,2.6,0.5C64,39.3,64.2,46,64.2,46
				L57.4,46.8z"/>
			<path class="st39" d="M56.3,39.8c0.2-0.4,0.6-0.8,1-1.1c-0.3,0.3-0.5,0.5-0.7,0.8c-0.1,3.1,1,7,1,7l6.6-0.8c0,0.2,0,0.2,0,0.2
				l-6.9,0.9C57.3,46.9,56.2,42.9,56.3,39.8z"/>
			<g>
				
					<rect x="49.7" y="45" transform="matrix(-0.9576 -0.288 0.288 -0.9576 84.1121 111.2321)" class="st49" width="1.2" height="8.9"/>
				<path class="st49" d="M51.3,42.8l-0.5,1.8l1.7,0.5l0.5-1.8c0.4,0.5,0.5,1.1,0.3,1.7c-0.3,1-1.3,1.6-2.2,1.3
					c-0.9-0.3-1.4-1.3-1.1-2.3C50.3,43.4,50.7,43,51.3,42.8z"/>
				<path class="st49" d="M49.2,55.6l0.4-1.2L48.1,54l-0.4,1.2c-0.3-0.4-0.4-0.9-0.2-1.4c0.2-0.8,1-1.3,1.7-1.1
					c0.7,0.2,1.1,1,0.9,1.9C50,55.1,49.6,55.4,49.2,55.6z"/>
			</g>
			<path class="st26" d="M64.4,36.8l-4-5.2l-5.1,4.2l2.4,4.6C57.7,40.3,62.1,42.5,64.4,36.8z"/>
			
				<rect x="72.7" y="53.1" transform="matrix(-1 -1.224647e-16 1.224647e-16 -1 158.227 107.3195)" class="st46" width="12.8" height="1.2"/>
			<polygon class="st48" points="58.7,68 72.5,68 58.8,68.5 			"/>
			<path class="st50" d="M72.7,52.4h13.1c0.3,0,0.5,0.2,0.5,0.5v0.2c0,0.3-0.2,0.5-0.5,0.5l-13.1,0c-0.3,0-0.5-0.2-0.5-0.5v-0.2
				C72.2,52.6,72.4,52.4,72.7,52.4z"/>
			<path class="st1" d="M72.2,53c0-0.3,0.3-0.5,0.6-0.5h12.9c0,0,0.1,0,0.1,0c0,0.3-0.3,0.5-0.6,0.5L72.2,53
				C72.3,53,72.2,53,72.2,53z"/>
			<path class="st26" d="M75.3,42.8c0.4,0.4,0.9,1,1.3,1.6l-3,1.8l-0.4-0.4L75.3,42.8z"/>
			<path class="st4" d="M58.7,44.4c-2-0.6-2.4-4.5-2.4-4.5c0,0,0,0,0,0c0.1-0.2,0.2-0.4,0.4-0.6c0,0,0,0,0,0c0-0.1,0.1-0.1,0.1-0.2
				c0,0,0,0,0,0c0,0,0.1-0.1,0.1-0.1l-0.5-0.9c0.2-1,0.6-2.1,1.1-3.1c0.3-0.7,0.7-1.4,1.1-2l1.7-1.4l3.4,4.4c0,0,0,0,0,0
				c0,0,0.1,0,0.1,0c0,0,0.1,0,0.1,0c0,0,0,0,0.1,0c0.1,0,0.1,0,0.2,0c0.1,0,0.2,0,0.3,0c0,0,0.1,0,0.1,0c0.1,0,0.1,0,0.2,0
				c0.1,0,0.1,0,0.2,0c0,0,0.1,0,0.1,0c0.1,0,0.2,0,0.2,0c0,0,0.1,0,0.1,0c0.1,0,0.2,0,0.3,0.1c0,0,0,0,0,0c0.1,0,0.2,0,0.3,0.1
				c0,0,0,0,0,0c0.1,0,0.2,0.1,0.3,0.1c0,0,0,0,0,0c0.1,0,0.2,0.1,0.3,0.1c0,0,0,0,0,0c0.2,0.1,0.3,0.1,0.5,0.2
				c-0.2,0.8-0.5,1.7-0.9,2.6C64.3,43.6,61.3,45.1,58.7,44.4z"/>
			<path class="st51" d="M60.4,30.3c3.6,4.6,2.3,7.5,1.5,10.5c-0.1,0.5-4.5,2.1-5.1,1.9c-0.7-0.2-1.6-4.8-2.2-5.6c-0.6-0.9-2-4-2-4
				L60.4,30.3z"/>
			<path class="st52" d="M60.4,36.5c0-2.3-0.7-4.3-1.8-5.6l1.8-0.7c3.6,4.6,2.5,7.4,1.8,10.4c-0.1,0.4-2.5,1.4-4.1,1.8
				C59.4,41.4,60.4,39.1,60.4,36.5z"/>
			<path class="st51" d="M51,31c0.3-0.5,1.1-0.9,1.1-0.9l-0.5-0.2c0.4-0.5,1.6-0.9,1.6-0.9l-0.4-0.4c0.5-0.3,2-0.3,2-0.3l-0.1-0.4
				c0.9-0.3,1.9,0,1.9,0l-0.3-0.6c0,0,1.5,0,2.9,0.8c1.5,0.7,1.4,2.1,1.4,2.1s1.7,1.6,0.7,3.8L55,37.4c0,0-1.6-4.2-2.2-4.2
				c-0.5,0-0.5,1-0.5,1c-0.7-0.4-1-2-1-2l-0.3,0.4c-0.3-0.9,0.5-1.7,0.5-1.7L51,31z"/>
			<path class="st52" d="M58.8,33.3c0-2.7-2.2-4.8-5-4.8c-0.4,0-0.7,0-1.1,0.1l0,0c0.5-0.3,2-0.3,2-0.3l-0.1-0.4
				c0.9-0.3,1.9,0,1.9,0l-0.3-0.6c0,0,1.5,0,2.9,0.8c1.5,0.7,1.4,2.1,1.4,2.1s1.7,1.6,0.7,3.8l-3,1.7C58.6,35,58.8,34.2,58.8,33.3z"
				/>
			<path class="st26" d="M61.5,34.4c0.9-0.8,1-2.3,0.6-2.7c-0.5-0.4-1.3-0.6-1.2,0.8C61,33.8,61.5,34.4,61.5,34.4z"/>
			<path class="st26" d="M58.1,31.1c0.4,0,0.7,0.2,0.9,0.4c1,1.4,1.9,3,1.5,3.6c-0.4,0.7-4.8,2.6-5.3,2.3c-0.3-0.2-1.2-1.9-1.8-3.1
				c-0.4-0.9-0.1-1.9,0.8-2.3C55.4,31.5,56.6,31.1,58.1,31.1z"/>
			<path class="st28" d="M61.5,33.8c0.6-0.5,0.7-1.5,0.4-1.7c-0.3-0.3-0.9-0.4-0.8,0.5C61.2,33.4,61.5,33.8,61.5,33.8z"/>
			<path class="st26" d="M61.5,33.9c0.4-0.4,0.5-1.1,0.3-1.2c-0.2-0.2-0.6-0.3-0.5,0.4C61.3,33.7,61.5,33.9,61.5,33.9z"/>
			<polygon class="st41" points="66.8,54.2 57.8,53.9 57.8,54.2 57.5,54.8 67.2,56 			"/>
			<polygon class="st39" points="60.6,54.2 61.8,54.2 61.9,55 60.6,54.7 			"/>
			<path class="st41" d="M63.6,47.7c-0.1-0.5,0.1-1,0.4-1c0.3,0,0.6,0.4,0.7,0.9s-0.1,1-0.4,1C64,48.7,63.7,48.3,63.6,47.7z"/>
			<path class="st39" d="M63.8,47.6c0-0.3,0.1-0.6,0.3-0.6c0.2,0,0.4,0.3,0.4,0.6c0,0.3-0.1,0.6-0.3,0.6
				C64,48.2,63.8,47.9,63.8,47.6z"/>
			<path class="st41" d="M57.3,48.3c-0.1-0.5,0.1-1,0.4-1c0.3,0,0.6,0.4,0.7,0.9c0.1,0.5-0.1,1-0.4,1C57.6,49.2,57.3,48.8,57.3,48.3
				z"/>
			<path class="st39" d="M57.4,48.1c0-0.3,0.1-0.6,0.3-0.6c0.2,0,0.4,0.3,0.4,0.6c0,0.3-0.1,0.6-0.3,0.6
				C57.6,48.7,57.5,48.4,57.4,48.1z"/>
			<path class="st47" d="M78.3,79.3h-15c0-1.2,3.6-1.9,3.9-2c0.9-0.1,1.9-0.2,2.9-0.2C74.1,77.2,77.4,78.1,78.3,79.3z"/>
			<polygon class="st53" points="85.7,73.1 86.7,72.7 86.7,76.9 85.7,76.5 			"/>
			<path class="st54" d="M81.3,51.2c1.4-1.9,2.2-2.4,1.4-2.8S81.3,51.2,81.3,51.2z"/>
			<path class="st54" d="M82.5,46.9c1-1.4,1.6-1.7,1-2C82.9,44.5,82.5,46.9,82.5,46.9z"/>
			<path class="st54" d="M80.1,48.6c0.1-1.7,0.4-2.3-0.3-2.2C79.1,46.4,80.1,48.6,80.1,48.6z"/>
			<path class="st54" d="M83.5,51.4c1.4-0.8,2.1-0.9,1.7-1.4C84.7,49.4,83.5,51.4,83.5,51.4z"/>
			<g>
				<path class="st55" d="M55,35.2l0.7-0.3c0.2,0.3,0.3,0.8,0,1C55.4,36,55.1,35.5,55,35.2z"/>
				<path class="st51" d="M55.7,33.6c0.1,0.1,0.5,1,0.5,1.1c0,0.1-1.6,0.9-1.7,0.8c-0.1,0-0.5-1-0.5-1.1
					C53.9,34.2,55.6,33.5,55.7,33.6z"/>
				<path class="st31" d="M56.1,34.2c0.2,1.3,0.6,3.5,0.8,3.8c0.1,0.3,0.9-0.9,1-1.1c0-0.2-1.6-2.7-1.6-2.7L56.1,34.2z"/>
				<path class="st26" d="M56.2,34c0.2,1.2,0.6,3.3,0.7,3.5c0.1,0.2,0.9-0.7,0.9-1c0-0.2-1.5-2.6-1.5-2.6L56.2,34z"/>
				<path class="st55" d="M57.3,34.4L58,34c0.2,0.3,0.3,0.8,0,1C57.6,35.2,57.3,34.6,57.3,34.4z"/>
				<path class="st51" d="M58.3,32.5c0.1,0.1,0.5,1,0.5,1.1c0,0.1-2.1,0.9-2.2,0.9c-0.1,0-0.5-1-0.5-1.1
					C56.1,33.3,58.2,32.4,58.3,32.5z"/>
				<g class="st56">
					<path class="st57" d="M59.1,36.8l0.2,0.1c0,0.7-0.7,1.2-2.1,1.8l0-0.1C58.5,38.1,59.1,37.4,59.1,36.8z"/>
				</g>
				<path class="st58" d="M58.1,38.6c0,0,0.2,0.1,0.4,0c0.2-0.1,0.3-0.3,0.2-0.3c0,0-0.2,0.1-0.3,0.2C58.2,38.6,58,38.6,58.1,38.6z"
					/>
			</g>
			<path class="st43" d="M50.6,49.8c0-1.8,0.3-2,0.6-2.1c0.3-0.1,0.7-0.2,0.8,0.4c0.1,0.5-0.1,2.3-0.4,2.5
				C51.3,50.8,50.6,50.4,50.6,49.8z"/>
			<path class="st43" d="M49.8,47.1c1.2,0.1,1.3,0.3,1.3,0.7c0,0.3,0,0.7-0.4,0.8s-1.5-0.2-1.6-0.5C49,47.8,49.4,47.1,49.8,47.1z"/>
			<path class="st43" d="M49.3,48.5c1.2,0.1,1.3,0.3,1.3,0.7c0,0.3,0,0.7-0.4,0.8s-1.5-0.2-1.6-0.5C48.6,49.2,49,48.5,49.3,48.5z"/>
			<path class="st43" d="M48.9,49.9c1.2,0.1,1.3,0.3,1.3,0.7c0,0.3,0,0.7-0.4,0.8s-1.5-0.2-1.6-0.5C48.1,50.6,48.5,49.9,48.9,49.9z"
				/>
		</g>
		<g>
			<path class="st59" d="M86.7,72c-6.7,2.1-13.3-0.7-15.8-0.3C56,73.9,57,72.1,49.3,71.4C44,71,37.5,73.8,32.1,73.7
				c-5.3-0.1-9.8-2.7-14.2-2.9C9.2,70.4,2.5,72,2.5,72l0,7.4l84.2,0V72z"/>
			<g class="st60">
				<path class="st59" d="M77.7,72.5c-2.9,2.3-7.2,4.6-12.4,6.8h21.4V72C83.5,72.9,80.4,72.9,77.7,72.5z"/>
				<path class="st59" d="M23.3,71.9c-1.8-0.5-3.6-1-5.4-1.1C9.2,70.4,2.5,72,2.5,72v7.4h9.8C14.3,76.9,18.2,74.3,23.3,71.9z"/>
			</g>
			<path class="st61" d="M15.7,71.5c4.7,0.2,10,2.1,15.7,2.2c5.7,0.1,12.1-2.1,17.7-1.6c8.2,0.7,6.2,1.9,22-0.4
				c2.4-0.3,9.2,2.5,15.6,1.4v-1.4c-6.7,2.1-13.3-0.7-15.8-0.3C56,73.8,57,71.9,49.3,71.3c-5.3-0.5-11.8,2.4-17.2,2.3
				c-5.3-0.1-9.8-2.7-14.2-2.9c-8.7-0.4-15.4,1.2-15.4,1.2v0.4C5.5,71.8,10.2,71.3,15.7,71.5z"/>
		</g>
	</g>
	<polygon class="st43" points="-0.3,79.4 48,83.5 100,79.4 	"/>
</g>
</svg>
